<svg xmlns="http://www.w3.org/2000/svg" xmlns:xlink="http://www.w3.org/1999/xlink" width="500" zoomAndPan="magnify" viewBox="0 0 375 374.999991" height="500" preserveAspectRatio="xMidYMid meet" version="1.0"><defs><g/><clipPath id="b6077cceb2"><path d="M 17.203125 120.214844 L 145.433594 120.214844 L 145.433594 248.445312 L 17.203125 248.445312 Z M 17.203125 120.214844 " clip-rule="nonzero"/></clipPath><clipPath id="f3ca7c3b2a"><path d="M 81.320312 120.214844 C 45.910156 120.214844 17.203125 148.921875 17.203125 184.332031 C 17.203125 219.742188 45.910156 248.445312 81.320312 248.445312 C 116.730469 248.445312 145.433594 219.742188 145.433594 184.332031 C 145.433594 148.921875 116.730469 120.214844 81.320312 120.214844 Z M 81.320312 120.214844 " clip-rule="nonzero"/></clipPath><clipPath id="d43ff56722"><path d="M 41.421875 144.433594 L 121.214844 144.433594 L 121.214844 224.226562 L 41.421875 224.226562 Z M 41.421875 144.433594 " clip-rule="nonzero"/></clipPath><clipPath id="4bb58092c4"><path d="M 81.320312 144.433594 C 59.285156 144.433594 41.421875 162.296875 41.421875 184.332031 C 41.421875 206.363281 59.285156 224.226562 81.320312 224.226562 C 103.355469 224.226562 121.214844 206.363281 121.214844 184.332031 C 121.214844 162.296875 103.355469 144.433594 81.320312 144.433594 Z M 81.320312 144.433594 " clip-rule="nonzero"/></clipPath><clipPath id="c4d04890e7"><path d="M 11.105469 181.257812 L 151.535156 181.257812 L 151.535156 200.859375 L 11.105469 200.859375 Z M 11.105469 181.257812 " clip-rule="nonzero"/></clipPath><clipPath id="416c7461e9"><path d="M 60 151.214844 L 101 151.214844 L 101 215.714844 L 60 215.714844 Z M 60 151.214844 " clip-rule="nonzero"/></clipPath><clipPath id="4ae5c5f716"><path d="M 67 182 L 105.164062 182 L 105.164062 214 L 67 214 Z M 67 182 " clip-rule="nonzero"/></clipPath></defs><g clip-path="url(#b6077cceb2)"><g clip-path="url(#f3ca7c3b2a)"><path fill="#af1840" d="M 17.203125 120.214844 L 145.433594 120.214844 L 145.433594 248.445312 L 17.203125 248.445312 Z M 17.203125 120.214844 " fill-opacity="1" fill-rule="nonzero"/></g></g><g clip-path="url(#d43ff56722)"><g clip-path="url(#4bb58092c4)"><path fill="#eee2b5" d="M 41.421875 144.433594 L 121.214844 144.433594 L 121.214844 224.226562 L 41.421875 224.226562 Z M 41.421875 144.433594 " fill-opacity="1" fill-rule="nonzero"/></g></g><g clip-path="url(#c4d04890e7)"><path fill="#eee2b5" d="M 11.105469 181.257812 L 151.527344 181.257812 L 151.527344 200.859375 L 11.105469 200.859375 Z M 11.105469 181.257812 " fill-opacity="1" fill-rule="nonzero"/></g><g fill="#ffffff" fill-opacity="1"><g transform="translate(33.387366, 211.15397)"><g><path d="M 2.359375 3.4375 L 3.703125 0.765625 L 3.484375 0.421875 L 1.3125 1.90625 L 0.34375 0.5 L 6.09375 -3.4375 L 7.703125 -1.078125 C 8.015625 -0.617188 8.203125 -0.179688 8.265625 0.234375 C 8.328125 0.660156 8.273438 1.050781 8.109375 1.40625 C 7.941406 1.757812 7.691406 2.050781 7.359375 2.28125 C 6.960938 2.550781 6.539062 2.675781 6.09375 2.65625 C 5.65625 2.644531 5.226562 2.472656 4.8125 2.140625 L 3.4375 5.03125 Z M 4.46875 -0.25 L 5.0625 0.625 C 5.226562 0.875 5.421875 1.019531 5.640625 1.0625 C 5.859375 1.101562 6.078125 1.046875 6.296875 0.890625 C 6.523438 0.734375 6.65625 0.546875 6.6875 0.328125 C 6.726562 0.117188 6.664062 -0.109375 6.5 -0.359375 L 5.90625 -1.234375 Z M 4.46875 -0.25 "/></g></g></g><g fill="#ffffff" fill-opacity="1"><g transform="translate(37.275032, 216.743112)"><g><path d="M 5.765625 -1.90625 L 4.703125 -1 L 6.1875 0.734375 L 5.1875 1.59375 L 3.703125 -0.140625 L 2.546875 0.859375 L 4.21875 2.8125 L 3.1875 3.703125 L 0.390625 0.46875 L 5.671875 -4.078125 L 8.46875 -0.84375 L 7.4375 0.046875 Z M 5.765625 -1.90625 "/></g></g></g><g fill="#ffffff" fill-opacity="1"><g transform="translate(40.994114, 221.060757)"><g><path d="M 2.25 2.1875 C 1.875 1.84375 1.59375 1.472656 1.40625 1.078125 C 1.21875 0.679688 1.144531 0.28125 1.1875 -0.125 C 1.238281 -0.53125 1.421875 -0.90625 1.734375 -1.25 L 3.046875 -0.015625 C 2.890625 0.191406 2.820312 0.394531 2.84375 0.59375 C 2.863281 0.800781 2.96875 0.988281 3.15625 1.15625 C 3.332031 1.332031 3.515625 1.425781 3.703125 1.4375 C 3.890625 1.457031 4.050781 1.394531 4.1875 1.25 C 4.300781 1.125 4.351562 0.976562 4.34375 0.8125 C 4.34375 0.65625 4.300781 0.488281 4.21875 0.3125 C 4.144531 0.144531 4.03125 -0.078125 3.875 -0.359375 C 3.632812 -0.765625 3.457031 -1.113281 3.34375 -1.40625 C 3.226562 -1.707031 3.1875 -2.023438 3.21875 -2.359375 C 3.257812 -2.703125 3.425781 -3.035156 3.71875 -3.359375 C 4.164062 -3.828125 4.6875 -4.035156 5.28125 -3.984375 C 5.875 -3.929688 6.453125 -3.648438 7.015625 -3.140625 C 7.578125 -2.609375 7.898438 -2.046875 7.984375 -1.453125 C 8.078125 -0.867188 7.914062 -0.328125 7.5 0.171875 L 6.140625 -1.078125 C 6.296875 -1.253906 6.359375 -1.441406 6.328125 -1.640625 C 6.304688 -1.835938 6.210938 -2.015625 6.046875 -2.171875 C 5.890625 -2.316406 5.726562 -2.390625 5.5625 -2.390625 C 5.394531 -2.398438 5.238281 -2.328125 5.09375 -2.171875 C 4.9375 -2.003906 4.890625 -1.800781 4.953125 -1.5625 C 5.023438 -1.332031 5.179688 -1.015625 5.421875 -0.609375 C 5.640625 -0.191406 5.804688 0.160156 5.921875 0.453125 C 6.035156 0.742188 6.078125 1.054688 6.046875 1.390625 C 6.015625 1.734375 5.859375 2.054688 5.578125 2.359375 C 5.304688 2.648438 4.984375 2.847656 4.609375 2.953125 C 4.234375 3.054688 3.835938 3.039062 3.421875 2.90625 C 3.015625 2.78125 2.625 2.539062 2.25 2.1875 Z M 2.25 2.1875 "/></g></g></g><g fill="#ffffff" fill-opacity="1"><g transform="translate(45.71921, 225.424032)"><g><path d="M 5.203125 -3.09375 L 4.359375 -1.96875 L 6.1875 -0.609375 L 5.40625 0.4375 L 3.578125 -0.921875 L 2.65625 0.296875 L 4.71875 1.84375 L 3.90625 2.9375 L 0.484375 0.359375 L 4.671875 -5.21875 L 8.09375 -2.640625 L 7.265625 -1.546875 Z M 5.203125 -3.09375 "/></g></g></g><g fill="#ffffff" fill-opacity="1"><g transform="translate(50.279089, 228.861162)"><g><path d="M 3.59375 2.109375 L 3.6875 -0.90625 L 3.34375 -1.109375 L 2 1.171875 L 0.53125 0.3125 L 4.0625 -5.6875 L 6.515625 -4.234375 C 6.992188 -3.953125 7.351562 -3.632812 7.59375 -3.28125 C 7.832031 -2.925781 7.945312 -2.550781 7.9375 -2.15625 C 7.9375 -1.769531 7.832031 -1.40625 7.625 -1.0625 C 7.382812 -0.65625 7.0625 -0.359375 6.65625 -0.171875 C 6.25 0.00390625 5.785156 0.0234375 5.265625 -0.109375 L 5.25 3.09375 Z M 3.9375 -2.125 L 4.84375 -1.578125 C 5.101562 -1.429688 5.34375 -1.382812 5.5625 -1.4375 C 5.78125 -1.488281 5.957031 -1.628906 6.09375 -1.859375 C 6.226562 -2.097656 6.265625 -2.320312 6.203125 -2.53125 C 6.148438 -2.75 5.992188 -2.929688 5.734375 -3.078125 L 4.828125 -3.625 Z M 3.9375 -2.125 "/></g></g></g><g fill="#ffffff" fill-opacity="1"><g transform="translate(56.196768, 232.344845)"><g><path d="M 9.328125 -3.59375 L 4.3125 1.84375 L 2.359375 1 L 2.828125 -6.375 L 4.46875 -5.671875 L 4 -0.140625 L 7.65625 -4.296875 Z M 9.328125 -3.59375 "/></g></g></g><g fill="#ffffff" fill-opacity="1"><g transform="translate(63.257581, 235.329996)"><g><path d="M 5.109375 0.109375 L 2.609375 -0.5625 L 1.875 0.515625 L 0.15625 0.046875 L 4.421875 -6.015625 L 6.3125 -5.5 L 6.921875 1.890625 L 5.1875 1.421875 Z M 5.03125 -1.265625 L 4.875 -3.9375 L 3.375 -1.71875 Z M 5.03125 -1.265625 "/></g></g></g><g fill="#ffffff" fill-opacity="1"><g transform="translate(70.695628, 237.29039)"><g><path d="M 6.5625 -6.09375 L 6.375 -4.75 L 4.546875 -5.015625 L 3.75 0.53125 L 2.078125 0.296875 L 2.875 -5.25 L 1.03125 -5.515625 L 1.21875 -6.859375 Z M 6.5625 -6.09375 "/></g></g></g><g fill="#ffffff" fill-opacity="1"><g transform="translate(76.758453, 238.089056)"><g><path d="M 2.734375 -6.8125 L 2.3125 0.140625 L 0.609375 0.03125 L 1.03125 -6.921875 Z M 2.734375 -6.8125 "/></g></g></g><g fill="#ffffff" fill-opacity="1"><g transform="translate(79.98412, 238.390658)"><g><path d="M 3.921875 -0.09375 C 3.265625 -0.0703125 2.65625 -0.195312 2.09375 -0.46875 C 1.539062 -0.75 1.085938 -1.15625 0.734375 -1.6875 C 0.390625 -2.226562 0.207031 -2.84375 0.1875 -3.53125 C 0.15625 -4.207031 0.289062 -4.820312 0.59375 -5.375 C 0.894531 -5.925781 1.3125 -6.367188 1.84375 -6.703125 C 2.375 -7.035156 2.96875 -7.210938 3.625 -7.234375 C 4.28125 -7.265625 4.882812 -7.132812 5.4375 -6.84375 C 6 -6.5625 6.445312 -6.15625 6.78125 -5.625 C 7.125 -5.101562 7.3125 -4.503906 7.34375 -3.828125 C 7.363281 -3.140625 7.226562 -2.515625 6.9375 -1.953125 C 6.644531 -1.390625 6.234375 -0.945312 5.703125 -0.625 C 5.171875 -0.300781 4.578125 -0.125 3.921875 -0.09375 Z M 3.859375 -1.640625 C 4.410156 -1.660156 4.84375 -1.863281 5.15625 -2.25 C 5.476562 -2.632812 5.628906 -3.132812 5.609375 -3.75 C 5.578125 -4.363281 5.390625 -4.84375 5.046875 -5.1875 C 4.703125 -5.539062 4.253906 -5.707031 3.703125 -5.6875 C 3.140625 -5.664062 2.691406 -5.460938 2.359375 -5.078125 C 2.035156 -4.703125 1.890625 -4.207031 1.921875 -3.59375 C 1.941406 -2.96875 2.128906 -2.476562 2.484375 -2.125 C 2.835938 -1.78125 3.296875 -1.617188 3.859375 -1.640625 Z M 3.859375 -1.640625 "/></g></g></g><g fill="#ffffff" fill-opacity="1"><g transform="translate(88.217697, 238.010309)"><g><path d="M 6.75 -1.265625 L 5.0625 -0.953125 L 1.484375 -4.640625 L 2.265625 -0.421875 L 0.59375 -0.109375 L -0.6875 -6.953125 L 0.984375 -7.265625 L 4.578125 -3.5625 L 3.78125 -7.796875 L 5.46875 -8.109375 Z M 6.75 -1.265625 "/></g></g></g><g fill="#ffffff" fill-opacity="1"><g transform="translate(95.795831, 236.461896)"><g/></g></g><g fill="#ffffff" fill-opacity="1"><g transform="translate(98.065078, 235.894525)"><g><path d="M 2.96875 -1.015625 C 2.488281 -0.835938 2.03125 -0.753906 1.59375 -0.765625 C 1.15625 -0.773438 0.765625 -0.894531 0.421875 -1.125 C 0.0859375 -1.351562 -0.160156 -1.679688 -0.328125 -2.109375 L 1.359375 -2.734375 C 1.472656 -2.492188 1.625 -2.335938 1.8125 -2.265625 C 2 -2.191406 2.210938 -2.195312 2.453125 -2.28125 C 2.679688 -2.363281 2.847656 -2.484375 2.953125 -2.640625 C 3.054688 -2.804688 3.070312 -2.984375 3 -3.171875 C 2.9375 -3.328125 2.832031 -3.441406 2.6875 -3.515625 C 2.539062 -3.585938 2.375 -3.625 2.1875 -3.625 C 2 -3.632812 1.742188 -3.632812 1.421875 -3.625 C 0.953125 -3.59375 0.554688 -3.59375 0.234375 -3.625 C -0.078125 -3.65625 -0.375 -3.765625 -0.65625 -3.953125 C -0.945312 -4.140625 -1.164062 -4.4375 -1.3125 -4.84375 C -1.539062 -5.457031 -1.492188 -6.015625 -1.171875 -6.515625 C -0.859375 -7.023438 -0.347656 -7.410156 0.359375 -7.671875 C 1.085938 -7.929688 1.734375 -7.96875 2.296875 -7.78125 C 2.859375 -7.601562 3.269531 -7.207031 3.53125 -6.59375 L 1.796875 -5.96875 C 1.710938 -6.175781 1.578125 -6.316406 1.390625 -6.390625 C 1.203125 -6.460938 1 -6.457031 0.78125 -6.375 C 0.582031 -6.3125 0.441406 -6.203125 0.359375 -6.046875 C 0.273438 -5.898438 0.269531 -5.726562 0.34375 -5.53125 C 0.425781 -5.3125 0.585938 -5.179688 0.828125 -5.140625 C 1.078125 -5.097656 1.4375 -5.085938 1.90625 -5.109375 C 2.375 -5.128906 2.765625 -5.117188 3.078125 -5.078125 C 3.390625 -5.046875 3.6875 -4.9375 3.96875 -4.75 C 4.257812 -4.570312 4.476562 -4.289062 4.625 -3.90625 C 4.757812 -3.53125 4.785156 -3.15625 4.703125 -2.78125 C 4.628906 -2.40625 4.441406 -2.0625 4.140625 -1.75 C 3.847656 -1.4375 3.457031 -1.191406 2.96875 -1.015625 Z M 2.96875 -1.015625 "/></g></g></g><g fill="#ffffff" fill-opacity="1"><g transform="translate(104.138922, 233.662051)"><g><path d="M 2.703125 -9.203125 L 2.6875 -3.96875 L 3.734375 -1.90625 L 2.21875 -1.125 L 1.171875 -3.1875 L -3.109375 -6.234375 L -1.390625 -7.109375 L 1.140625 -5.125 L 1 -8.328125 Z M 2.703125 -9.203125 "/></g></g></g><g fill="#ffffff" fill-opacity="1"><g transform="translate(110.380648, 230.437058)"><g><path d="M 2.640625 -1.703125 C 2.210938 -1.421875 1.785156 -1.226562 1.359375 -1.125 C 0.929688 -1.03125 0.523438 -1.054688 0.140625 -1.203125 C -0.234375 -1.347656 -0.554688 -1.601562 -0.828125 -1.96875 L 0.671875 -2.96875 C 0.835938 -2.769531 1.019531 -2.65625 1.21875 -2.625 C 1.425781 -2.601562 1.632812 -2.660156 1.84375 -2.796875 C 2.050781 -2.941406 2.179688 -3.097656 2.234375 -3.265625 C 2.296875 -3.441406 2.269531 -3.617188 2.15625 -3.796875 C 2.0625 -3.929688 1.929688 -4.015625 1.765625 -4.046875 C 1.609375 -4.078125 1.4375 -4.078125 1.25 -4.046875 C 1.070312 -4.015625 0.828125 -3.945312 0.515625 -3.84375 C 0.0664062 -3.707031 -0.3125 -3.617188 -0.625 -3.578125 C -0.9375 -3.535156 -1.253906 -3.570312 -1.578125 -3.6875 C -1.898438 -3.800781 -2.179688 -4.039062 -2.421875 -4.40625 C -2.785156 -4.9375 -2.875 -5.484375 -2.6875 -6.046875 C -2.507812 -6.617188 -2.101562 -7.113281 -1.46875 -7.53125 C -0.832031 -7.96875 -0.21875 -8.160156 0.375 -8.109375 C 0.976562 -8.066406 1.472656 -7.785156 1.859375 -7.265625 L 0.328125 -6.234375 C 0.191406 -6.410156 0.0234375 -6.507812 -0.171875 -6.53125 C -0.367188 -6.5625 -0.566406 -6.507812 -0.765625 -6.375 C -0.929688 -6.257812 -1.035156 -6.117188 -1.078125 -5.953125 C -1.117188 -5.796875 -1.082031 -5.632812 -0.96875 -5.46875 C -0.84375 -5.28125 -0.65625 -5.191406 -0.40625 -5.203125 C -0.164062 -5.222656 0.175781 -5.296875 0.625 -5.421875 C 1.082031 -5.546875 1.46875 -5.628906 1.78125 -5.671875 C 2.09375 -5.710938 2.410156 -5.679688 2.734375 -5.578125 C 3.054688 -5.472656 3.332031 -5.242188 3.5625 -4.890625 C 3.78125 -4.566406 3.894531 -4.210938 3.90625 -3.828125 C 3.925781 -3.441406 3.828125 -3.0625 3.609375 -2.6875 C 3.390625 -2.320312 3.066406 -1.992188 2.640625 -1.703125 Z M 2.640625 -1.703125 "/></g></g></g><g fill="#ffffff" fill-opacity="1"><g transform="translate(115.717849, 226.821121)"><g><path d="M -0.21875 -8.96875 L 0.671875 -7.9375 L -0.75 -6.734375 L 2.875 -2.453125 L 1.59375 -1.359375 L -2.03125 -5.640625 L -3.453125 -4.4375 L -4.34375 -5.46875 Z M -0.21875 -8.96875 "/></g></g></g><g fill="#ffffff" fill-opacity="1"><g transform="translate(120.414875, 222.795015)"><g><path d="M -2.46875 -5.546875 L -1.453125 -4.578125 L 0.125 -6.234375 L 1.078125 -5.328125 L -0.5 -3.671875 L 0.609375 -2.609375 L 2.390625 -4.484375 L 3.375 -3.546875 L 0.421875 -0.4375 L -4.625 -5.25 L -1.671875 -8.359375 L -0.6875 -7.421875 Z M -2.46875 -5.546875 "/></g></g></g><g fill="#ffffff" fill-opacity="1"><g transform="translate(124.483027, 218.667248)"><g><path d="M -0.671875 -10.984375 L 4.984375 -6.90625 L 3.984375 -5.53125 L 0.59375 -7.984375 L 3.078125 -4.25 L 2.28125 -3.15625 L -2.03125 -4.328125 L 1.359375 -1.875 L 0.359375 -0.5 L -5.296875 -4.578125 L -4.125 -6.203125 L 0.9375 -4.96875 L -1.84375 -9.359375 Z M -0.671875 -10.984375 "/></g></g></g><g fill="#ffffff" fill-opacity="1"><g transform="translate(33.103173, 177.7733)"><g><path d="M -2.640625 -4.71875 C -2.503906 -5.0625 -2.285156 -5.320312 -1.984375 -5.5 C -1.679688 -5.6875 -1.347656 -5.757812 -0.984375 -5.71875 C -0.472656 -5.644531 -0.0859375 -5.410156 0.171875 -5.015625 C 0.429688 -4.617188 0.519531 -4.09375 0.4375 -3.4375 L 0.0625 -0.546875 L -6.15625 -1.34375 L -5.796875 -4.140625 C -5.710938 -4.773438 -5.5 -5.25 -5.15625 -5.5625 C -4.820312 -5.882812 -4.410156 -6.015625 -3.921875 -5.953125 C -3.554688 -5.898438 -3.265625 -5.757812 -3.046875 -5.53125 C -2.828125 -5.3125 -2.691406 -5.039062 -2.640625 -4.71875 Z M -3.4375 -2.53125 L -3.3125 -3.515625 C -3.28125 -3.765625 -3.3125 -3.960938 -3.40625 -4.109375 C -3.5 -4.265625 -3.648438 -4.359375 -3.859375 -4.390625 C -4.078125 -4.410156 -4.25 -4.359375 -4.375 -4.234375 C -4.5 -4.117188 -4.578125 -3.9375 -4.609375 -3.6875 L -4.734375 -2.703125 Z M -0.8125 -3.328125 C -0.78125 -3.585938 -0.8125 -3.789062 -0.90625 -3.9375 C -1.007812 -4.09375 -1.171875 -4.179688 -1.390625 -4.203125 C -1.609375 -4.234375 -1.785156 -4.179688 -1.921875 -4.046875 C -2.066406 -3.921875 -2.15625 -3.734375 -2.1875 -3.484375 L -2.328125 -2.390625 L -0.953125 -2.21875 Z M -0.8125 -3.328125 "/></g></g></g><g fill="#ffffff" fill-opacity="1"><g transform="translate(33.788915, 172.147524)"><g><path d="M 0.03125 -4.59375 L -0.5625 -2.328125 L 0.421875 -1.6875 L 0.03125 -0.140625 L -5.484375 -3.875 L -5.046875 -5.59375 L 1.59375 -6.234375 L 1.1875 -4.671875 Z M -1.203125 -4.5 L -3.625 -4.3125 L -1.578125 -3 Z M -1.203125 -4.5 "/></g></g></g><g fill="#ffffff" fill-opacity="1"><g transform="translate(35.34147, 165.999549)"><g><path d="M 2.28125 -5.71875 L 1.71875 -4.296875 L -2.8125 -3.359375 L 0.765625 -1.921875 L 0.203125 -0.5 L -5.609375 -2.828125 L -5.046875 -4.25 L -0.484375 -5.1875 L -4.09375 -6.625 L -3.53125 -8.046875 Z M 2.28125 -5.71875 "/></g></g></g><g fill="#ffffff" fill-opacity="1"><g transform="translate(37.718994, 159.984137)"><g><path d="M 3.40625 -3.828125 L 2.0625 -3.671875 C 1.988281 -3.441406 1.894531 -3.226562 1.78125 -3.03125 C 1.488281 -2.507812 1.101562 -2.101562 0.625 -1.8125 C 0.144531 -1.519531 -0.375 -1.375 -0.9375 -1.375 C -1.507812 -1.375 -2.066406 -1.523438 -2.609375 -1.828125 C -3.128906 -2.117188 -3.53125 -2.507812 -3.8125 -3 C -4.09375 -3.488281 -4.234375 -4.015625 -4.234375 -4.578125 C -4.234375 -5.140625 -4.085938 -5.679688 -3.796875 -6.203125 C -3.503906 -6.710938 -3.113281 -7.113281 -2.625 -7.40625 C -2.144531 -7.695312 -1.625 -7.84375 -1.0625 -7.84375 C -0.5 -7.84375 0.0390625 -7.695312 0.5625 -7.40625 C 1.039062 -7.132812 1.414062 -6.789062 1.6875 -6.375 C 1.957031 -5.96875 2.128906 -5.523438 2.203125 -5.046875 L 4.328125 -5.4375 Z M -1.828125 -3.171875 C -1.335938 -2.890625 -0.875 -2.796875 -0.4375 -2.890625 C -0.0078125 -2.992188 0.328125 -3.269531 0.578125 -3.71875 C 0.828125 -4.144531 0.878906 -4.570312 0.734375 -5 C 0.585938 -5.4375 0.273438 -5.789062 -0.203125 -6.0625 C -0.679688 -6.332031 -1.132812 -6.414062 -1.5625 -6.3125 C -2 -6.207031 -2.34375 -5.941406 -2.59375 -5.515625 C -2.84375 -5.066406 -2.894531 -4.628906 -2.75 -4.203125 C -2.613281 -3.785156 -2.304688 -3.441406 -1.828125 -3.171875 Z M -1.828125 -3.171875 "/></g></g></g><g fill="#ffffff" fill-opacity="1"><g transform="translate(41.079646, 154.077732)"><g><path d="M -3.765625 -5.421875 L -0.765625 -3.15625 C -0.472656 -2.925781 -0.191406 -2.820312 0.078125 -2.84375 C 0.359375 -2.875 0.601562 -3.03125 0.8125 -3.3125 C 1.03125 -3.59375 1.113281 -3.867188 1.0625 -4.140625 C 1.019531 -4.421875 0.851562 -4.675781 0.5625 -4.90625 L -2.4375 -7.171875 L -1.515625 -8.375 L 1.46875 -6.125 C 1.914062 -5.78125 2.21875 -5.398438 2.375 -4.984375 C 2.539062 -4.566406 2.582031 -4.140625 2.5 -3.703125 C 2.414062 -3.265625 2.222656 -2.847656 1.921875 -2.453125 C 1.628906 -2.054688 1.285156 -1.757812 0.890625 -1.5625 C 0.503906 -1.363281 0.09375 -1.289062 -0.34375 -1.34375 C -0.789062 -1.40625 -1.238281 -1.609375 -1.6875 -1.953125 L -4.671875 -4.203125 Z M -3.765625 -5.421875 "/></g></g></g><g fill="#ffffff" fill-opacity="1"><g transform="translate(44.785289, 149.226043)"><g><path d="M -2.25 -4.984375 L -1.328125 -4.109375 L 0.078125 -5.59375 L 0.9375 -4.78125 L -0.46875 -3.296875 L 0.53125 -2.359375 L 2.125 -4.03125 L 3.015625 -3.1875 L 0.375 -0.390625 L -4.171875 -4.6875 L -1.53125 -7.484375 L -0.65625 -6.65625 Z M -2.25 -4.984375 "/></g></g></g><g fill="#ffffff" fill-opacity="1"><g transform="translate(47.958757, 145.816702)"><g><path d="M 2.84375 -2.4375 L 0.3125 -3.390625 L 0.046875 -3.15625 L 1.578125 -1.359375 L 0.421875 -0.359375 L -3.65625 -5.109375 L -1.71875 -6.765625 C -1.332031 -7.097656 -0.953125 -7.3125 -0.578125 -7.40625 C -0.203125 -7.5 0.144531 -7.488281 0.46875 -7.375 C 0.789062 -7.257812 1.070312 -7.066406 1.3125 -6.796875 C 1.582031 -6.472656 1.734375 -6.109375 1.765625 -5.703125 C 1.804688 -5.304688 1.703125 -4.910156 1.453125 -4.515625 L 4.15625 -3.5625 Z M -0.65625 -3.96875 L 0.0625 -4.578125 C 0.269531 -4.753906 0.378906 -4.941406 0.390625 -5.140625 C 0.410156 -5.347656 0.34375 -5.546875 0.1875 -5.734375 C 0.03125 -5.898438 -0.144531 -5.988281 -0.34375 -6 C -0.539062 -6.019531 -0.742188 -5.941406 -0.953125 -5.765625 L -1.671875 -5.15625 Z M -0.65625 -3.96875 "/></g></g></g><g fill="#ffffff" fill-opacity="1"><g transform="translate(52.175878, 142.136063)"><g><path d="M 2.96875 -1.890625 C 2.46875 -1.554688 1.9375 -1.367188 1.375 -1.328125 C 0.820312 -1.296875 0.289062 -1.398438 -0.21875 -1.640625 C -0.726562 -1.890625 -1.148438 -2.273438 -1.484375 -2.796875 C -1.816406 -3.296875 -2 -3.832031 -2.03125 -4.40625 C -2.0625 -4.976562 -1.945312 -5.507812 -1.6875 -6 C -1.4375 -6.5 -1.0625 -6.914062 -0.5625 -7.25 C -0.0625 -7.570312 0.460938 -7.753906 1.015625 -7.796875 C 1.578125 -7.835938 2.109375 -7.726562 2.609375 -7.46875 C 3.117188 -7.207031 3.539062 -6.828125 3.875 -6.328125 C 4.207031 -5.804688 4.390625 -5.265625 4.421875 -4.703125 C 4.453125 -4.140625 4.34375 -3.609375 4.09375 -3.109375 C 3.84375 -2.617188 3.46875 -2.210938 2.96875 -1.890625 Z M 2.203125 -3.046875 C 2.617188 -3.316406 2.859375 -3.671875 2.921875 -4.109375 C 2.992188 -4.554688 2.878906 -5.015625 2.578125 -5.484375 C 2.273438 -5.941406 1.90625 -6.222656 1.46875 -6.328125 C 1.039062 -6.441406 0.617188 -6.363281 0.203125 -6.09375 C -0.222656 -5.8125 -0.46875 -5.445312 -0.53125 -5 C -0.601562 -4.5625 -0.488281 -4.113281 -0.1875 -3.65625 C 0.125 -3.1875 0.492188 -2.894531 0.921875 -2.78125 C 1.347656 -2.675781 1.773438 -2.765625 2.203125 -3.046875 Z M 2.203125 -3.046875 "/></g></g></g><g fill="#ffffff" fill-opacity="1"><g transform="translate(57.833067, 138.411535)"><g><path d="M 2.671875 -8.234375 L 5.390625 -2.59375 L 4.015625 -1.9375 L 2.890625 -4.265625 L 0.75 -3.234375 L 1.875 -0.90625 L 0.5 -0.234375 L -2.21875 -5.875 L -0.84375 -6.546875 L 0.21875 -4.34375 L 2.359375 -5.375 L 1.296875 -7.578125 Z M 2.671875 -8.234375 "/></g></g></g><g fill="#ffffff" fill-opacity="1"><g transform="translate(63.496059, 135.665747)"><g><path d="M 3.890625 -2.453125 L 1.65625 -1.703125 L 1.640625 -0.546875 L 0.140625 -0.046875 L 0.3125 -6.703125 L 1.984375 -7.265625 L 6.109375 -2.03125 L 4.578125 -1.515625 Z M 3.140625 -3.453125 L 1.671875 -5.375 L 1.671875 -2.96875 Z M 3.140625 -3.453125 "/></g></g></g><g fill="#ffffff" fill-opacity="1"><g transform="translate(69.511185, 133.653131)"><g><path d="M 6.046875 -1.15625 L 4.546875 -0.875 L 1.328125 -4.1875 L 2.046875 -0.390625 L 0.53125 -0.109375 L -0.640625 -6.265625 L 0.875 -6.546875 L 4.09375 -3.203125 L 3.375 -7.03125 L 4.875 -7.3125 Z M 6.046875 -1.15625 "/></g></g></g><g fill="#ffffff" fill-opacity="1"><g transform="translate(75.993518, 132.511448)"><g/></g></g><g fill="#ffffff" fill-opacity="1"><g transform="translate(77.753658, 132.226195)"><g><path d="M 5.859375 -6.390625 L 5.984375 -0.125 L 4.453125 -0.09375 L 4.40625 -2.671875 L 2.03125 -2.625 L 2.078125 -0.046875 L 0.546875 -0.015625 L 0.421875 -6.28125 L 1.953125 -6.3125 L 2 -3.859375 L 4.375 -3.90625 L 4.328125 -6.359375 Z M 5.859375 -6.390625 "/></g></g></g><g fill="#ffffff" fill-opacity="1"><g transform="translate(84.08409, 132.135451)"><g><path d="M 2.53125 -4.84375 L 2.40625 -3.578125 L 4.453125 -3.390625 L 4.34375 -2.203125 L 2.296875 -2.390625 L 2.171875 -1.03125 L 4.484375 -0.8125 L 4.375 0.40625 L 0.546875 0.046875 L 1.125 -6.1875 L 4.953125 -5.828125 L 4.84375 -4.625 Z M 2.53125 -4.84375 "/></g></g></g><g fill="#ffffff" fill-opacity="1"><g transform="translate(88.711301, 132.501883)"><g><path d="M 4.578125 -0.1875 L 2.28125 -0.671875 L 1.703125 0.359375 L 0.140625 0.03125 L 3.625 -5.65625 L 5.34375 -5.296875 L 6.296875 1.3125 L 4.734375 0.984375 Z M 4.453125 -1.40625 L 4.140625 -3.8125 L 2.9375 -1.71875 Z M 4.453125 -1.40625 "/></g></g></g><g fill="#ffffff" fill-opacity="1"><g transform="translate(94.963299, 133.851963)"><g><path d="M 2.34375 -0.46875 L 4.234375 0.140625 L 3.875 1.25 L 0.515625 0.171875 L 2.4375 -5.796875 L 3.90625 -5.328125 Z M 2.34375 -0.46875 "/></g></g></g><g fill="#ffffff" fill-opacity="1"><g transform="translate(98.888142, 135.0823)"><g><path d="M 7.125 -3.75 L 6.640625 -2.640625 L 5.109375 -3.296875 L 3.125 1.34375 L 1.71875 0.734375 L 3.703125 -3.90625 L 2.1875 -4.546875 L 2.671875 -5.65625 Z M 7.125 -3.75 "/></g></g></g><g fill="#ffffff" fill-opacity="1"><g transform="translate(103.57178, 137.043469)"><g><path d="M 8.3125 -2.453125 L 5.1875 2.984375 L 3.859375 2.21875 L 5.140625 -0.015625 L 3.078125 -1.203125 L 1.796875 1.03125 L 0.46875 0.265625 L 3.59375 -5.171875 L 4.921875 -4.40625 L 3.703125 -2.265625 L 5.765625 -1.078125 L 6.984375 -3.21875 Z M 8.3125 -2.453125 "/></g></g></g><g fill="#ffffff" fill-opacity="1"><g transform="translate(109.072628, 140.31353)"><g/></g></g><g fill="#ffffff" fill-opacity="1"><g transform="translate(110.595131, 141.282471)"><g><path d="M 2.140625 1.8125 C 1.785156 1.519531 1.515625 1.203125 1.328125 0.859375 C 1.148438 0.523438 1.066406 0.175781 1.078125 -0.1875 C 1.085938 -0.550781 1.21875 -0.894531 1.46875 -1.21875 L 2.734375 -0.203125 C 2.609375 -0.00390625 2.554688 0.179688 2.578125 0.359375 C 2.597656 0.535156 2.695312 0.695312 2.875 0.84375 C 3.050781 0.976562 3.222656 1.046875 3.390625 1.046875 C 3.554688 1.054688 3.695312 0.988281 3.8125 0.84375 C 3.914062 0.71875 3.957031 0.582031 3.9375 0.4375 C 3.925781 0.289062 3.878906 0.144531 3.796875 0 C 3.722656 -0.144531 3.601562 -0.335938 3.4375 -0.578125 C 3.207031 -0.921875 3.03125 -1.222656 2.90625 -1.484375 C 2.789062 -1.742188 2.734375 -2.023438 2.734375 -2.328125 C 2.742188 -2.640625 2.867188 -2.941406 3.109375 -3.234375 C 3.472656 -3.691406 3.925781 -3.914062 4.46875 -3.90625 C 5.007812 -3.90625 5.546875 -3.695312 6.078125 -3.28125 C 6.617188 -2.832031 6.945312 -2.347656 7.0625 -1.828125 C 7.175781 -1.304688 7.0625 -0.804688 6.71875 -0.328125 L 5.4375 -1.359375 C 5.550781 -1.523438 5.585938 -1.695312 5.546875 -1.875 C 5.515625 -2.050781 5.421875 -2.203125 5.265625 -2.328125 C 5.117188 -2.453125 4.96875 -2.507812 4.8125 -2.5 C 4.664062 -2.5 4.535156 -2.429688 4.421875 -2.296875 C 4.296875 -2.140625 4.269531 -1.953125 4.34375 -1.734375 C 4.425781 -1.523438 4.585938 -1.242188 4.828125 -0.890625 C 5.046875 -0.523438 5.210938 -0.21875 5.328125 0.03125 C 5.441406 0.289062 5.492188 0.566406 5.484375 0.859375 C 5.484375 1.160156 5.367188 1.457031 5.140625 1.75 C 4.910156 2.03125 4.632812 2.222656 4.3125 2.328125 C 3.988281 2.441406 3.640625 2.457031 3.265625 2.375 C 2.890625 2.300781 2.515625 2.113281 2.140625 1.8125 Z M 2.140625 1.8125 "/></g></g></g><g fill="#ffffff" fill-opacity="1"><g transform="translate(114.730736, 144.634458)"><g><path d="M 5.015625 -2.109375 L 4.125 -1.21875 L 5.578125 0.21875 L 4.75 1.0625 L 3.296875 -0.375 L 2.328125 0.609375 L 3.984375 2.234375 L 3.125 3.09375 L 0.390625 0.390625 L 4.796875 -4.0625 L 7.53125 -1.359375 L 6.671875 -0.484375 Z M 5.015625 -2.109375 "/></g></g></g><g fill="#ffffff" fill-opacity="1"><g transform="translate(118.062563, 147.889216)"><g><path d="M 2.375 2.90625 L 3.375 0.40625 L 3.140625 0.125 L 1.3125 1.609375 L 0.34375 0.421875 L 5.203125 -3.546875 L 6.828125 -1.5625 C 7.140625 -1.175781 7.335938 -0.789062 7.421875 -0.40625 C 7.503906 -0.03125 7.484375 0.316406 7.359375 0.640625 C 7.234375 0.972656 7.03125 1.253906 6.75 1.484375 C 6.425781 1.742188 6.0625 1.882812 5.65625 1.90625 C 5.25 1.925781 4.851562 1.804688 4.46875 1.546875 L 3.453125 4.234375 Z M 3.96875 -0.5625 L 4.578125 0.171875 C 4.742188 0.378906 4.925781 0.492188 5.125 0.515625 C 5.320312 0.535156 5.519531 0.46875 5.71875 0.3125 C 5.894531 0.164062 5.992188 -0.00390625 6.015625 -0.203125 C 6.035156 -0.398438 5.960938 -0.601562 5.796875 -0.8125 L 5.1875 -1.546875 Z M 3.96875 -0.5625 "/></g></g></g><g fill="#ffffff" fill-opacity="1"><g transform="translate(121.634294, 152.212674)"><g><path d="M 8.734375 2.09375 L 2.25 3.5625 L 1.21875 1.9375 L 5.34375 -3.28125 L 6.203125 -1.90625 L 3.03125 1.9375 L 7.859375 0.71875 Z M 8.734375 2.09375 "/></g></g></g><g fill="#ffffff" fill-opacity="1"><g transform="translate(124.966851, 157.643878)"><g><path d="M 6.515625 -1 L 0.9375 1.84375 L 0.25 0.484375 L 5.828125 -2.359375 Z M 6.515625 -1 "/></g></g></g><g fill="#ffffff" fill-opacity="1"><g transform="translate(126.193737, 159.821443)"><g><path d="M 3.03125 -0.875 C 3.601562 -1.101562 4.160156 -1.1875 4.703125 -1.125 C 5.253906 -1.0625 5.742188 -0.851562 6.171875 -0.5 C 6.597656 -0.15625 6.921875 0.289062 7.140625 0.84375 C 7.421875 1.539062 7.476562 2.207031 7.3125 2.84375 C 7.144531 3.476562 6.78125 4.007812 6.21875 4.4375 L 5.59375 2.875 C 5.789062 2.65625 5.910156 2.410156 5.953125 2.140625 C 5.992188 1.878906 5.960938 1.613281 5.859375 1.34375 C 5.679688 0.914062 5.390625 0.625 4.984375 0.46875 C 4.578125 0.320312 4.117188 0.351562 3.609375 0.5625 C 3.097656 0.757812 2.742188 1.050781 2.546875 1.4375 C 2.347656 1.832031 2.335938 2.242188 2.515625 2.671875 C 2.617188 2.941406 2.773438 3.160156 2.984375 3.328125 C 3.203125 3.492188 3.453125 3.585938 3.734375 3.609375 L 4.359375 5.171875 C 3.660156 5.242188 3.03125 5.109375 2.46875 4.765625 C 1.914062 4.421875 1.5 3.898438 1.21875 3.203125 C 1 2.648438 0.925781 2.097656 1 1.546875 C 1.082031 1.003906 1.296875 0.519531 1.640625 0.09375 C 1.992188 -0.332031 2.457031 -0.65625 3.03125 -0.875 Z M 3.03125 -0.875 "/></g></g></g><g fill="#ffffff" fill-opacity="1"><g transform="translate(128.591931, 165.971347)"><g><path d="M 5.421875 0.6875 L 4.203125 1.015625 L 4.734375 3 L 3.578125 3.3125 L 3.046875 1.328125 L 1.71875 1.6875 L 2.3125 3.921875 L 1.140625 4.234375 L 0.140625 0.53125 L 6.1875 -1.109375 L 7.1875 2.59375 L 6.015625 2.921875 Z M 5.421875 0.6875 "/></g></g></g><g fill="#ffffff" fill-opacity="1"><g transform="translate(129.83591, 170.465378)"><g><path d="M 0.390625 2.796875 C 0.316406 2.335938 0.328125 1.914062 0.421875 1.53125 C 0.515625 1.15625 0.6875 0.835938 0.9375 0.578125 C 1.1875 0.316406 1.507812 0.148438 1.90625 0.078125 L 2.171875 1.671875 C 1.953125 1.722656 1.789062 1.828125 1.6875 1.984375 C 1.582031 2.140625 1.550781 2.332031 1.59375 2.5625 C 1.625 2.769531 1.703125 2.929688 1.828125 3.046875 C 1.953125 3.160156 2.109375 3.203125 2.296875 3.171875 C 2.441406 3.148438 2.554688 3.078125 2.640625 2.953125 C 2.722656 2.828125 2.785156 2.6875 2.828125 2.53125 C 2.867188 2.375 2.910156 2.148438 2.953125 1.859375 C 3.015625 1.453125 3.082031 1.109375 3.15625 0.828125 C 3.238281 0.554688 3.382812 0.3125 3.59375 0.09375 C 3.8125 -0.125 4.109375 -0.265625 4.484375 -0.328125 C 5.054688 -0.421875 5.539062 -0.289062 5.9375 0.0625 C 6.34375 0.425781 6.601562 0.941406 6.71875 1.609375 C 6.820312 2.296875 6.738281 2.875 6.46875 3.34375 C 6.207031 3.820312 5.796875 4.117188 5.234375 4.234375 L 4.96875 2.609375 C 5.164062 2.566406 5.304688 2.46875 5.390625 2.3125 C 5.484375 2.15625 5.515625 1.972656 5.484375 1.765625 C 5.453125 1.578125 5.378906 1.429688 5.265625 1.328125 C 5.148438 1.234375 5.003906 1.203125 4.828125 1.234375 C 4.617188 1.265625 4.476562 1.382812 4.40625 1.59375 C 4.332031 1.800781 4.257812 2.117188 4.1875 2.546875 C 4.113281 2.972656 4.035156 3.316406 3.953125 3.578125 C 3.867188 3.847656 3.722656 4.09375 3.515625 4.3125 C 3.316406 4.539062 3.03125 4.6875 2.65625 4.75 C 2.3125 4.800781 1.976562 4.757812 1.65625 4.625 C 1.34375 4.488281 1.070312 4.265625 0.84375 3.953125 C 0.613281 3.648438 0.460938 3.265625 0.390625 2.796875 Z M 0.390625 2.796875 "/></g></g></g><g fill="#ffffff" fill-opacity="1"><g transform="translate(130.643178, 175.7975)"><g/></g></g><g fill="#af1840" fill-opacity="1"><g transform="translate(127.675971, 193.74933)"><g><path d="M 0.28125 -0.96875 C 0.4375 -1.09375 0.507812 -1.15625 0.5 -1.15625 C 0.957031 -1.53125 1.320312 -1.84375 1.59375 -2.09375 C 1.863281 -2.34375 2.085938 -2.597656 2.265625 -2.859375 C 2.453125 -3.128906 2.546875 -3.394531 2.546875 -3.65625 C 2.546875 -3.84375 2.5 -3.988281 2.40625 -4.09375 C 2.320312 -4.207031 2.1875 -4.265625 2 -4.265625 C 1.820312 -4.265625 1.679688 -4.195312 1.578125 -4.0625 C 1.484375 -3.925781 1.4375 -3.738281 1.4375 -3.5 L 0.265625 -3.5 C 0.273438 -3.894531 0.359375 -4.226562 0.515625 -4.5 C 0.679688 -4.769531 0.894531 -4.96875 1.15625 -5.09375 C 1.425781 -5.226562 1.726562 -5.296875 2.0625 -5.296875 C 2.625 -5.296875 3.046875 -5.148438 3.328125 -4.859375 C 3.617188 -4.566406 3.765625 -4.191406 3.765625 -3.734375 C 3.765625 -3.222656 3.585938 -2.75 3.234375 -2.3125 C 2.890625 -1.882812 2.453125 -1.46875 1.921875 -1.0625 L 3.84375 -1.0625 L 3.84375 -0.078125 L 0.28125 -0.078125 Z M 0.28125 -0.96875 "/></g></g></g><g fill="#af1840" fill-opacity="1"><g transform="translate(132.570508, 193.74933)"><g><path d="M 0.3125 -2.65625 C 0.3125 -3.46875 0.46875 -4.109375 0.78125 -4.578125 C 1.101562 -5.046875 1.613281 -5.28125 2.3125 -5.28125 C 3.007812 -5.28125 3.515625 -5.046875 3.828125 -4.578125 C 4.148438 -4.109375 4.3125 -3.46875 4.3125 -2.65625 C 4.3125 -1.832031 4.148438 -1.1875 3.828125 -0.71875 C 3.515625 -0.25 3.007812 -0.015625 2.3125 -0.015625 C 1.613281 -0.015625 1.101562 -0.25 0.78125 -0.71875 C 0.46875 -1.1875 0.3125 -1.832031 0.3125 -2.65625 Z M 3.109375 -2.65625 C 3.109375 -3.132812 3.054688 -3.503906 2.953125 -3.765625 C 2.847656 -4.023438 2.632812 -4.15625 2.3125 -4.15625 C 1.988281 -4.15625 1.773438 -4.023438 1.671875 -3.765625 C 1.566406 -3.503906 1.515625 -3.132812 1.515625 -2.65625 C 1.515625 -2.332031 1.53125 -2.066406 1.5625 -1.859375 C 1.601562 -1.648438 1.679688 -1.476562 1.796875 -1.34375 C 1.910156 -1.21875 2.082031 -1.15625 2.3125 -1.15625 C 2.539062 -1.15625 2.710938 -1.21875 2.828125 -1.34375 C 2.941406 -1.476562 3.015625 -1.648438 3.046875 -1.859375 C 3.085938 -2.066406 3.109375 -2.332031 3.109375 -2.65625 Z M 3.109375 -2.65625 "/></g></g></g><g fill="#af1840" fill-opacity="1"><g transform="translate(138.039588, 193.74933)"><g><path d="M 0.28125 -0.96875 C 0.4375 -1.09375 0.507812 -1.15625 0.5 -1.15625 C 0.957031 -1.53125 1.320312 -1.84375 1.59375 -2.09375 C 1.863281 -2.34375 2.085938 -2.597656 2.265625 -2.859375 C 2.453125 -3.128906 2.546875 -3.394531 2.546875 -3.65625 C 2.546875 -3.84375 2.5 -3.988281 2.40625 -4.09375 C 2.320312 -4.207031 2.1875 -4.265625 2 -4.265625 C 1.820312 -4.265625 1.679688 -4.195312 1.578125 -4.0625 C 1.484375 -3.925781 1.4375 -3.738281 1.4375 -3.5 L 0.265625 -3.5 C 0.273438 -3.894531 0.359375 -4.226562 0.515625 -4.5 C 0.679688 -4.769531 0.894531 -4.96875 1.15625 -5.09375 C 1.425781 -5.226562 1.726562 -5.296875 2.0625 -5.296875 C 2.625 -5.296875 3.046875 -5.148438 3.328125 -4.859375 C 3.617188 -4.566406 3.765625 -4.191406 3.765625 -3.734375 C 3.765625 -3.222656 3.585938 -2.75 3.234375 -2.3125 C 2.890625 -1.882812 2.453125 -1.46875 1.921875 -1.0625 L 3.84375 -1.0625 L 3.84375 -0.078125 L 0.28125 -0.078125 Z M 0.28125 -0.96875 "/></g></g></g><g fill="#af1840" fill-opacity="1"><g transform="translate(142.934125, 193.74933)"><g><path d="M 0.34375 -0.921875 L 0.34375 -1.90625 L 2.59375 -5.109375 L 3.9375 -5.109375 L 3.9375 -1.96875 L 4.53125 -1.96875 L 4.53125 -0.921875 L 3.9375 -0.921875 L 3.9375 0 L 2.734375 0 L 2.734375 -0.921875 Z M 2.8125 -3.78125 L 1.625 -1.96875 L 2.8125 -1.96875 Z M 2.8125 -3.78125 "/></g></g></g><g fill="#af1840" fill-opacity="1"><g transform="translate(20.422619, 191.882723)"><g><path d="M 1.65625 -4.015625 L 1.65625 -3 L 3.28125 -3 L 3.28125 -2.0625 L 1.65625 -2.0625 L 1.65625 -0.96875 L 3.484375 -0.96875 L 3.484375 0 L 0.4375 0 L 0.4375 -4.984375 L 3.484375 -4.984375 L 3.484375 -4.015625 Z M 1.65625 -4.015625 "/></g></g></g><g fill="#af1840" fill-opacity="1"><g transform="translate(25.104363, 191.882723)"><g><path d="M 2.234375 0.046875 C 1.878906 0.046875 1.554688 -0.0078125 1.265625 -0.125 C 0.972656 -0.25 0.738281 -0.425781 0.5625 -0.65625 C 0.394531 -0.882812 0.304688 -1.160156 0.296875 -1.484375 L 1.59375 -1.484375 C 1.613281 -1.304688 1.675781 -1.164062 1.78125 -1.0625 C 1.882812 -0.96875 2.023438 -0.921875 2.203125 -0.921875 C 2.378906 -0.921875 2.519531 -0.960938 2.625 -1.046875 C 2.726562 -1.128906 2.78125 -1.242188 2.78125 -1.390625 C 2.78125 -1.515625 2.738281 -1.613281 2.65625 -1.6875 C 2.582031 -1.769531 2.484375 -1.835938 2.359375 -1.890625 C 2.234375 -1.941406 2.0625 -2.003906 1.84375 -2.078125 C 1.519531 -2.171875 1.253906 -2.265625 1.046875 -2.359375 C 0.847656 -2.460938 0.675781 -2.609375 0.53125 -2.796875 C 0.382812 -2.992188 0.3125 -3.25 0.3125 -3.5625 C 0.3125 -4.03125 0.476562 -4.394531 0.8125 -4.65625 C 1.144531 -4.914062 1.582031 -5.046875 2.125 -5.046875 C 2.675781 -5.046875 3.117188 -4.914062 3.453125 -4.65625 C 3.785156 -4.394531 3.96875 -4.03125 4 -3.5625 L 2.6875 -3.5625 C 2.675781 -3.71875 2.613281 -3.84375 2.5 -3.9375 C 2.394531 -4.03125 2.253906 -4.078125 2.078125 -4.078125 C 1.929688 -4.078125 1.8125 -4.035156 1.71875 -3.953125 C 1.632812 -3.878906 1.59375 -3.769531 1.59375 -3.625 C 1.59375 -3.46875 1.664062 -3.34375 1.8125 -3.25 C 1.96875 -3.15625 2.207031 -3.054688 2.53125 -2.953125 C 2.851562 -2.847656 3.113281 -2.742188 3.3125 -2.640625 C 3.519531 -2.546875 3.695312 -2.398438 3.84375 -2.203125 C 3.988281 -2.015625 4.0625 -1.773438 4.0625 -1.484375 C 4.0625 -1.203125 3.988281 -0.941406 3.84375 -0.703125 C 3.695312 -0.472656 3.484375 -0.289062 3.203125 -0.15625 C 2.929688 -0.0195312 2.609375 0.046875 2.234375 0.046875 Z M 2.234375 0.046875 "/></g></g></g><g fill="#af1840" fill-opacity="1"><g transform="translate(30.310999, 191.882723)"><g><path d="M 4.015625 -4.984375 L 4.015625 -4.015625 L 2.703125 -4.015625 L 2.703125 0 L 1.484375 0 L 1.484375 -4.015625 L 0.171875 -4.015625 L 0.171875 -4.984375 Z M 4.015625 -4.984375 "/></g></g></g><g clip-path="url(#416c7461e9)"><path fill="#0a3666" d="M 81.289062 214.199219 C 82.703125 214.691406 84.144531 215.042969 85.570312 215.261719 C 82.46875 215.496094 79.28125 215.105469 76.15625 214.03125 C 63.855469 209.777344 57.164062 196.296875 61.417969 183.980469 C 62.066406 182.101562 62.738281 180.597656 63.90625 178.71875 C 72.382812 163.277344 64.828125 151.234375 64.828125 151.234375 C 64.828125 151.234375 74.613281 158.285156 71.257812 171.792969 C 77.101562 168.113281 84.507812 167.011719 91.546875 169.449219 C 95.1875 170.703125 98.324219 172.765625 100.828125 175.371094 C 99.21875 174.335938 97.457031 173.480469 95.5625 172.816406 C 83.441406 168.628906 70.425781 174.503906 66.472656 185.9375 C 62.542969 197.359375 69.167969 210.011719 81.289062 214.199219 Z M 81.289062 214.199219 " fill-opacity="1" fill-rule="nonzero"/></g><path fill="#0a3666" d="M 84.082031 158.621094 C 84.207031 158.878906 84.304688 159.144531 84.378906 159.417969 C 84.449219 159.695312 84.496094 159.972656 84.511719 160.257812 C 84.527344 160.539062 84.519531 160.824219 84.480469 161.105469 C 84.441406 161.386719 84.375 161.660156 84.28125 161.929688 C 84.1875 162.199219 84.070312 162.457031 83.925781 162.703125 C 83.785156 162.949219 83.617188 163.175781 83.429688 163.390625 C 83.242188 163.601562 83.035156 163.792969 82.808594 163.964844 C 82.582031 164.136719 82.339844 164.285156 82.082031 164.410156 C 81.828125 164.535156 81.5625 164.632812 81.289062 164.707031 C 81.011719 164.777344 80.734375 164.824219 80.449219 164.839844 C 80.164062 164.855469 79.882812 164.847656 79.601562 164.808594 C 79.320312 164.769531 79.042969 164.703125 78.777344 164.609375 C 78.507812 164.515625 78.25 164.398438 78.003906 164.257812 C 77.757812 164.113281 77.53125 163.945312 77.316406 163.757812 C 77.105469 163.570312 76.910156 163.363281 76.738281 163.136719 C 76.566406 162.910156 76.421875 162.667969 76.296875 162.414062 C 76.171875 162.15625 76.074219 161.890625 76 161.617188 C 75.929688 161.339844 75.882812 161.0625 75.867188 160.777344 C 75.851562 160.496094 75.859375 160.210938 75.898438 159.929688 C 75.9375 159.648438 76.003906 159.371094 76.097656 159.105469 C 76.1875 158.835938 76.308594 158.578125 76.449219 158.332031 C 76.59375 158.085938 76.761719 157.859375 76.949219 157.644531 C 77.136719 157.433594 77.34375 157.242188 77.570312 157.070312 C 77.796875 156.898438 78.039062 156.75 78.292969 156.625 C 78.550781 156.5 78.816406 156.402344 79.089844 156.328125 C 79.367188 156.257812 79.644531 156.210938 79.929688 156.195312 C 80.210938 156.179688 80.496094 156.1875 80.777344 156.226562 C 81.058594 156.265625 81.332031 156.332031 81.601562 156.425781 C 81.871094 156.515625 82.128906 156.636719 82.375 156.777344 C 82.621094 156.921875 82.847656 157.089844 83.0625 157.277344 C 83.273438 157.464844 83.464844 157.671875 83.636719 157.898438 C 83.808594 158.125 83.957031 158.367188 84.082031 158.621094 Z M 84.082031 158.621094 " fill-opacity="1" fill-rule="nonzero"/><g clip-path="url(#4ae5c5f716)"><path fill="#253e17" d="M 102.695312 202.011719 C 96.976562 209.519531 93.113281 208.445312 89.535156 207.601562 C 89.535156 207.601562 94.398438 207.1875 96.171875 204.035156 C 96.859375 202.816406 95.449219 201.804688 93.96875 203.296875 C 92.492188 204.789062 88.601562 203.75 86.308594 203.53125 C 84.011719 203.308594 81.9375 202.894531 80.265625 206.628906 C 71.410156 201.882812 67.082031 192.003906 70.285156 182.722656 C 70.335938 182.582031 70.386719 182.425781 70.441406 182.28125 C 69.570312 183.589844 68.859375 185.015625 68.328125 186.558594 C 64.734375 196.957031 70.828125 208.535156 81.925781 212.371094 C 85.90625 213.746094 89.796875 213.796875 93.59375 212.773438 C 99.039062 211.296875 103.175781 206.734375 105.46875 201.261719 C 104.472656 200.871094 103.328125 201.171875 102.695312 202.011719 Z M 102.695312 202.011719 " fill-opacity="1" fill-rule="nonzero"/></g><g fill="#af1840" fill-opacity="1"><g transform="translate(76.201923, 198.085606)"><g><path d="M 13.21875 -9.15625 C 14.289062 -8.90625 15.125 -8.390625 15.71875 -7.609375 C 16.320312 -6.828125 16.625 -5.921875 16.625 -4.890625 C 16.625 -3.328125 16.101562 -2.117188 15.0625 -1.265625 C 14.03125 -0.421875 12.546875 0 10.609375 0 L 1.265625 0 L 1.265625 -17.859375 L 10.359375 -17.859375 C 12.179688 -17.859375 13.613281 -17.460938 14.65625 -16.671875 C 15.695312 -15.878906 16.21875 -14.726562 16.21875 -13.21875 C 16.21875 -12.175781 15.941406 -11.296875 15.390625 -10.578125 C 14.847656 -9.859375 14.125 -9.382812 13.21875 -9.15625 Z M 6.859375 -10.890625 L 9.03125 -10.890625 C 9.53125 -10.890625 9.898438 -10.988281 10.140625 -11.1875 C 10.390625 -11.394531 10.515625 -11.707031 10.515625 -12.125 C 10.515625 -12.5625 10.390625 -12.882812 10.140625 -13.09375 C 9.898438 -13.3125 9.53125 -13.421875 9.03125 -13.421875 L 6.859375 -13.421875 Z M 9.40625 -4.484375 C 9.90625 -4.484375 10.273438 -4.578125 10.515625 -4.765625 C 10.765625 -4.960938 10.890625 -5.28125 10.890625 -5.71875 C 10.890625 -6.582031 10.394531 -7.015625 9.40625 -7.015625 L 6.859375 -7.015625 L 6.859375 -4.484375 Z M 9.40625 -4.484375 "/></g></g></g><g fill="#253e17" fill-opacity="1"><g transform="translate(149.153227, 133.135647)"><g><path d="M 10.71875 -7.921875 C 11.613281 -7.734375 12.332031 -7.289062 12.875 -6.59375 C 13.414062 -5.894531 13.6875 -5.097656 13.6875 -4.203125 C 13.6875 -2.910156 13.234375 -1.882812 12.328125 -1.125 C 11.429688 -0.375 10.175781 0 8.5625 0 L 1.359375 0 L 1.359375 -15.4375 L 8.3125 -15.4375 C 9.882812 -15.4375 11.113281 -15.078125 12 -14.359375 C 12.882812 -13.640625 13.328125 -12.664062 13.328125 -11.4375 C 13.328125 -10.53125 13.085938 -9.773438 12.609375 -9.171875 C 12.140625 -8.566406 11.507812 -8.148438 10.71875 -7.921875 Z M 5.125 -9.203125 L 7.59375 -9.203125 C 8.207031 -9.203125 8.675781 -9.335938 9 -9.609375 C 9.332031 -9.878906 9.5 -10.273438 9.5 -10.796875 C 9.5 -11.328125 9.332031 -11.734375 9 -12.015625 C 8.675781 -12.296875 8.207031 -12.4375 7.59375 -12.4375 L 5.125 -12.4375 Z M 7.890625 -3.03125 C 8.523438 -3.03125 9.015625 -3.171875 9.359375 -3.453125 C 9.703125 -3.742188 9.875 -4.160156 9.875 -4.703125 C 9.875 -5.242188 9.691406 -5.671875 9.328125 -5.984375 C 8.972656 -6.296875 8.484375 -6.453125 7.859375 -6.453125 L 5.125 -6.453125 L 5.125 -3.03125 Z M 7.890625 -3.03125 "/></g></g></g><g fill="#253e17" fill-opacity="1"><g transform="translate(163.648645, 133.135647)"><g><path d="M 10.984375 -2.734375 L 5.21875 -2.734375 L 4.296875 0 L 0.359375 0 L 5.9375 -15.4375 L 10.296875 -15.4375 L 15.890625 0 L 11.90625 0 Z M 10.015625 -5.625 L 8.09375 -11.28125 L 6.203125 -5.625 Z M 10.015625 -5.625 "/></g></g></g><g fill="#253e17" fill-opacity="1"><g transform="translate(179.85976, 133.135647)"><g><path d="M 15.1875 0 L 11.421875 0 L 5.125 -9.53125 L 5.125 0 L 1.359375 0 L 1.359375 -15.4375 L 5.125 -15.4375 L 11.421875 -5.875 L 11.421875 -15.4375 L 15.1875 -15.4375 Z M 15.1875 0 "/></g></g></g><g fill="#253e17" fill-opacity="1"><g transform="translate(196.400809, 133.135647)"><g><path d="M 12.359375 2.640625 L 10.390625 -0.015625 C 9.796875 0.0976562 9.222656 0.15625 8.671875 0.15625 C 7.210938 0.15625 5.878906 -0.179688 4.671875 -0.859375 C 3.460938 -1.535156 2.5 -2.476562 1.78125 -3.6875 C 1.070312 -4.894531 0.71875 -6.253906 0.71875 -7.765625 C 0.71875 -9.273438 1.070312 -10.628906 1.78125 -11.828125 C 2.5 -13.035156 3.460938 -13.972656 4.671875 -14.640625 C 5.878906 -15.316406 7.210938 -15.65625 8.671875 -15.65625 C 10.117188 -15.65625 11.445312 -15.316406 12.65625 -14.640625 C 13.863281 -13.972656 14.816406 -13.035156 15.515625 -11.828125 C 16.210938 -10.628906 16.5625 -9.273438 16.5625 -7.765625 C 16.5625 -6.441406 16.289062 -5.234375 15.75 -4.140625 C 15.21875 -3.054688 14.476562 -2.15625 13.53125 -1.4375 L 16.921875 2.640625 Z M 4.578125 -7.765625 C 4.578125 -6.398438 4.945312 -5.3125 5.6875 -4.5 C 6.425781 -3.6875 7.421875 -3.28125 8.671875 -3.28125 C 9.898438 -3.28125 10.882812 -3.6875 11.625 -4.5 C 12.363281 -5.320312 12.734375 -6.410156 12.734375 -7.765625 C 12.734375 -9.128906 12.363281 -10.21875 11.625 -11.03125 C 10.882812 -11.84375 9.898438 -12.25 8.671875 -12.25 C 7.421875 -12.25 6.425781 -11.84375 5.6875 -11.03125 C 4.945312 -10.226562 4.578125 -9.140625 4.578125 -7.765625 Z M 4.578125 -7.765625 "/></g></g></g><g fill="#253e17" fill-opacity="1"><g transform="translate(213.73372, 133.135647)"><g><path d="M 5.0625 -15.4375 L 5.0625 -6.203125 C 5.0625 -5.273438 5.285156 -4.5625 5.734375 -4.0625 C 6.191406 -3.570312 6.863281 -3.328125 7.75 -3.328125 C 8.625 -3.328125 9.296875 -3.570312 9.765625 -4.0625 C 10.234375 -4.5625 10.46875 -5.273438 10.46875 -6.203125 L 10.46875 -15.4375 L 14.234375 -15.4375 L 14.234375 -6.21875 C 14.234375 -4.84375 13.9375 -3.675781 13.34375 -2.71875 C 12.757812 -1.769531 11.972656 -1.050781 10.984375 -0.5625 C 9.992188 -0.0820312 8.890625 0.15625 7.671875 0.15625 C 6.460938 0.15625 5.375 -0.0820312 4.40625 -0.5625 C 3.445312 -1.039062 2.6875 -1.757812 2.125 -2.71875 C 1.570312 -3.675781 1.296875 -4.84375 1.296875 -6.21875 L 1.296875 -15.4375 Z M 5.0625 -15.4375 "/></g></g></g><g fill="#253e17" fill-opacity="1"><g transform="translate(229.240955, 133.135647)"><g><path d="M 5.125 -12.4375 L 5.125 -9.3125 L 10.15625 -9.3125 L 10.15625 -6.40625 L 5.125 -6.40625 L 5.125 -3.015625 L 10.828125 -3.015625 L 10.828125 0 L 1.359375 0 L 1.359375 -15.4375 L 10.828125 -15.4375 L 10.828125 -12.4375 Z M 5.125 -12.4375 "/></g></g></g><g fill="#253e17" fill-opacity="1"><g transform="translate(241.14083, 133.135647)"><g><path d="M 9.234375 0 L 6.03125 -5.828125 L 5.125 -5.828125 L 5.125 0 L 1.359375 0 L 1.359375 -15.4375 L 7.671875 -15.4375 C 8.890625 -15.4375 9.925781 -15.222656 10.78125 -14.796875 C 11.644531 -14.378906 12.289062 -13.800781 12.71875 -13.0625 C 13.144531 -12.320312 13.359375 -11.492188 13.359375 -10.578125 C 13.359375 -9.554688 13.066406 -8.640625 12.484375 -7.828125 C 11.898438 -7.023438 11.046875 -6.453125 9.921875 -6.109375 L 13.484375 0 Z M 5.125 -8.484375 L 7.453125 -8.484375 C 8.140625 -8.484375 8.65625 -8.648438 9 -8.984375 C 9.351562 -9.328125 9.53125 -9.804688 9.53125 -10.421875 C 9.53125 -11.015625 9.351562 -11.476562 9 -11.8125 C 8.65625 -12.144531 8.140625 -12.3125 7.453125 -12.3125 L 5.125 -12.3125 Z M 5.125 -8.484375 "/></g></g></g><g fill="#253e17" fill-opacity="1"><g transform="translate(255.482279, 133.135647)"><g><path d="M 8.671875 0.15625 C 7.210938 0.15625 5.878906 -0.179688 4.671875 -0.859375 C 3.460938 -1.535156 2.5 -2.476562 1.78125 -3.6875 C 1.070312 -4.894531 0.71875 -6.253906 0.71875 -7.765625 C 0.71875 -9.273438 1.070312 -10.628906 1.78125 -11.828125 C 2.5 -13.035156 3.460938 -13.972656 4.671875 -14.640625 C 5.878906 -15.316406 7.210938 -15.65625 8.671875 -15.65625 C 10.117188 -15.65625 11.445312 -15.316406 12.65625 -14.640625 C 13.863281 -13.972656 14.816406 -13.035156 15.515625 -11.828125 C 16.210938 -10.628906 16.5625 -9.273438 16.5625 -7.765625 C 16.5625 -6.253906 16.207031 -4.894531 15.5 -3.6875 C 14.800781 -2.476562 13.847656 -1.535156 12.640625 -0.859375 C 11.441406 -0.179688 10.117188 0.15625 8.671875 0.15625 Z M 8.671875 -3.28125 C 9.898438 -3.28125 10.882812 -3.6875 11.625 -4.5 C 12.363281 -5.320312 12.734375 -6.410156 12.734375 -7.765625 C 12.734375 -9.128906 12.363281 -10.21875 11.625 -11.03125 C 10.882812 -11.84375 9.898438 -12.25 8.671875 -12.25 C 7.421875 -12.25 6.425781 -11.84375 5.6875 -11.03125 C 4.945312 -10.226562 4.578125 -9.140625 4.578125 -7.765625 C 4.578125 -6.398438 4.945312 -5.3125 5.6875 -4.5 C 6.425781 -3.6875 7.421875 -3.28125 8.671875 -3.28125 Z M 8.671875 -3.28125 "/></g></g></g><g fill="#253e17" fill-opacity="1"><g transform="translate(272.771199, 133.135647)"><g><path d="M 14.734375 -15.4375 L 14.734375 0 L 10.984375 0 L 10.984375 -6.359375 L 5.125 -6.359375 L 5.125 0 L 1.359375 0 L 1.359375 -15.4375 L 5.125 -15.4375 L 5.125 -9.390625 L 10.984375 -9.390625 L 10.984375 -15.4375 Z M 14.734375 -15.4375 "/></g></g></g><g fill="#253e17" fill-opacity="1"><g transform="translate(288.85033, 133.135647)"><g><path d="M 10.984375 -2.734375 L 5.21875 -2.734375 L 4.296875 0 L 0.359375 0 L 5.9375 -15.4375 L 10.296875 -15.4375 L 15.890625 0 L 11.90625 0 Z M 10.015625 -5.625 L 8.09375 -11.28125 L 6.203125 -5.625 Z M 10.015625 -5.625 "/></g></g></g><g fill="#253e17" fill-opacity="1"><g transform="translate(305.061446, 133.135647)"><g><path d="M 15.1875 0 L 11.421875 0 L 5.125 -9.53125 L 5.125 0 L 1.359375 0 L 1.359375 -15.4375 L 5.125 -15.4375 L 11.421875 -5.875 L 11.421875 -15.4375 L 15.1875 -15.4375 Z M 15.1875 0 "/></g></g></g><g fill="#253e17" fill-opacity="1"><g transform="translate(321.60634, 133.135647)"><g/></g></g><g fill="#af1740" fill-opacity="1"><g transform="translate(176.282131, 163.885645)"><g><path d="M 6.953125 0.15625 C 5.828125 0.15625 4.816406 -0.0234375 3.921875 -0.390625 C 3.023438 -0.765625 2.304688 -1.3125 1.765625 -2.03125 C 1.234375 -2.75 0.953125 -3.613281 0.921875 -4.625 L 4.921875 -4.625 C 4.984375 -4.050781 5.179688 -3.613281 5.515625 -3.3125 C 5.859375 -3.007812 6.300781 -2.859375 6.84375 -2.859375 C 7.394531 -2.859375 7.832031 -2.984375 8.15625 -3.234375 C 8.476562 -3.492188 8.640625 -3.851562 8.640625 -4.3125 C 8.640625 -4.695312 8.507812 -5.007812 8.25 -5.25 C 8 -5.5 7.6875 -5.703125 7.3125 -5.859375 C 6.9375 -6.023438 6.40625 -6.210938 5.71875 -6.421875 C 4.71875 -6.734375 3.898438 -7.039062 3.265625 -7.34375 C 2.640625 -7.65625 2.097656 -8.109375 1.640625 -8.703125 C 1.191406 -9.304688 0.96875 -10.09375 0.96875 -11.0625 C 0.96875 -12.5 1.488281 -13.625 2.53125 -14.4375 C 3.570312 -15.25 4.925781 -15.65625 6.59375 -15.65625 C 8.300781 -15.65625 9.675781 -15.25 10.71875 -14.4375 C 11.757812 -13.625 12.316406 -12.492188 12.390625 -11.046875 L 8.3125 -11.046875 C 8.28125 -11.546875 8.097656 -11.9375 7.765625 -12.21875 C 7.429688 -12.507812 7 -12.65625 6.46875 -12.65625 C 6.007812 -12.65625 5.640625 -12.53125 5.359375 -12.28125 C 5.085938 -12.039062 4.953125 -11.691406 4.953125 -11.234375 C 4.953125 -10.742188 5.1875 -10.359375 5.65625 -10.078125 C 6.125 -9.796875 6.859375 -9.492188 7.859375 -9.171875 C 8.847656 -8.835938 9.65625 -8.515625 10.28125 -8.203125 C 10.90625 -7.898438 11.441406 -7.453125 11.890625 -6.859375 C 12.347656 -6.273438 12.578125 -5.519531 12.578125 -4.59375 C 12.578125 -3.71875 12.351562 -2.921875 11.90625 -2.203125 C 11.457031 -1.484375 10.804688 -0.910156 9.953125 -0.484375 C 9.109375 -0.0546875 8.109375 0.15625 6.953125 0.15625 Z M 6.953125 0.15625 "/></g></g></g><g fill="#af1740" fill-opacity="1"><g transform="translate(189.809722, 163.885645)"><g><path d="M 8.671875 0.15625 C 7.210938 0.15625 5.878906 -0.179688 4.671875 -0.859375 C 3.460938 -1.535156 2.5 -2.476562 1.78125 -3.6875 C 1.070312 -4.894531 0.71875 -6.253906 0.71875 -7.765625 C 0.71875 -9.273438 1.070312 -10.628906 1.78125 -11.828125 C 2.5 -13.035156 3.460938 -13.972656 4.671875 -14.640625 C 5.878906 -15.316406 7.210938 -15.65625 8.671875 -15.65625 C 10.117188 -15.65625 11.445312 -15.316406 12.65625 -14.640625 C 13.863281 -13.972656 14.816406 -13.035156 15.515625 -11.828125 C 16.210938 -10.628906 16.5625 -9.273438 16.5625 -7.765625 C 16.5625 -6.253906 16.207031 -4.894531 15.5 -3.6875 C 14.800781 -2.476562 13.847656 -1.535156 12.640625 -0.859375 C 11.441406 -0.179688 10.117188 0.15625 8.671875 0.15625 Z M 8.671875 -3.28125 C 9.898438 -3.28125 10.882812 -3.6875 11.625 -4.5 C 12.363281 -5.320312 12.734375 -6.410156 12.734375 -7.765625 C 12.734375 -9.128906 12.363281 -10.21875 11.625 -11.03125 C 10.882812 -11.84375 9.898438 -12.25 8.671875 -12.25 C 7.421875 -12.25 6.425781 -11.84375 5.6875 -11.03125 C 4.945312 -10.226562 4.578125 -9.140625 4.578125 -7.765625 C 4.578125 -6.398438 4.945312 -5.3125 5.6875 -4.5 C 6.425781 -3.6875 7.421875 -3.28125 8.671875 -3.28125 Z M 8.671875 -3.28125 "/></g></g></g><g fill="#af1740" fill-opacity="1"><g transform="translate(207.098642, 163.885645)"><g><path d="M 5.0625 -15.4375 L 5.0625 -6.203125 C 5.0625 -5.273438 5.285156 -4.5625 5.734375 -4.0625 C 6.191406 -3.570312 6.863281 -3.328125 7.75 -3.328125 C 8.625 -3.328125 9.296875 -3.570312 9.765625 -4.0625 C 10.234375 -4.5625 10.46875 -5.273438 10.46875 -6.203125 L 10.46875 -15.4375 L 14.234375 -15.4375 L 14.234375 -6.21875 C 14.234375 -4.84375 13.9375 -3.675781 13.34375 -2.71875 C 12.757812 -1.769531 11.972656 -1.050781 10.984375 -0.5625 C 9.992188 -0.0820312 8.890625 0.15625 7.671875 0.15625 C 6.460938 0.15625 5.375 -0.0820312 4.40625 -0.5625 C 3.445312 -1.039062 2.6875 -1.757812 2.125 -2.71875 C 1.570312 -3.675781 1.296875 -4.84375 1.296875 -6.21875 L 1.296875 -15.4375 Z M 5.0625 -15.4375 "/></g></g></g><g fill="#af1740" fill-opacity="1"><g transform="translate(222.605877, 163.885645)"><g><path d="M 12.46875 -15.4375 L 12.46875 -12.4375 L 8.375 -12.4375 L 8.375 0 L 4.625 0 L 4.625 -12.4375 L 0.53125 -12.4375 L 0.53125 -15.4375 Z M 12.46875 -15.4375 "/></g></g></g><g fill="#af1740" fill-opacity="1"><g transform="translate(235.605564, 163.885645)"><g><path d="M 14.734375 -15.4375 L 14.734375 0 L 10.984375 0 L 10.984375 -6.359375 L 5.125 -6.359375 L 5.125 0 L 1.359375 0 L 1.359375 -15.4375 L 5.125 -15.4375 L 5.125 -9.390625 L 10.984375 -9.390625 L 10.984375 -15.4375 Z M 14.734375 -15.4375 "/></g></g></g><g fill="#af1740" fill-opacity="1"><g transform="translate(251.684695, 163.885645)"><g><path d="M 5.125 -12.4375 L 5.125 -9.3125 L 10.15625 -9.3125 L 10.15625 -6.40625 L 5.125 -6.40625 L 5.125 -3.015625 L 10.828125 -3.015625 L 10.828125 0 L 1.359375 0 L 1.359375 -15.4375 L 10.828125 -15.4375 L 10.828125 -12.4375 Z M 5.125 -12.4375 "/></g></g></g><g fill="#af1740" fill-opacity="1"><g transform="translate(263.58457, 163.885645)"><g><path d="M 9.234375 0 L 6.03125 -5.828125 L 5.125 -5.828125 L 5.125 0 L 1.359375 0 L 1.359375 -15.4375 L 7.671875 -15.4375 C 8.890625 -15.4375 9.925781 -15.222656 10.78125 -14.796875 C 11.644531 -14.378906 12.289062 -13.800781 12.71875 -13.0625 C 13.144531 -12.320312 13.359375 -11.492188 13.359375 -10.578125 C 13.359375 -9.554688 13.066406 -8.640625 12.484375 -7.828125 C 11.898438 -7.023438 11.046875 -6.453125 9.921875 -6.109375 L 13.484375 0 Z M 5.125 -8.484375 L 7.453125 -8.484375 C 8.140625 -8.484375 8.65625 -8.648438 9 -8.984375 C 9.351562 -9.328125 9.53125 -9.804688 9.53125 -10.421875 C 9.53125 -11.015625 9.351562 -11.476562 9 -11.8125 C 8.65625 -12.144531 8.140625 -12.3125 7.453125 -12.3125 L 5.125 -12.3125 Z M 5.125 -8.484375 "/></g></g></g><g fill="#af1740" fill-opacity="1"><g transform="translate(277.926018, 163.885645)"><g><path d="M 15.1875 0 L 11.421875 0 L 5.125 -9.53125 L 5.125 0 L 1.359375 0 L 1.359375 -15.4375 L 5.125 -15.4375 L 11.421875 -5.875 L 11.421875 -15.4375 L 15.1875 -15.4375 Z M 15.1875 0 "/></g></g></g><g fill="#af1740" fill-opacity="1"><g transform="translate(294.47744, 163.885645)"><g/></g></g><g fill="#af1740" fill-opacity="1"><g transform="translate(174.500881, 194.635643)"><g><path d="M 18.859375 -15.4375 L 18.859375 0 L 15.09375 0 L 15.09375 -9.265625 L 11.640625 0 L 8.609375 0 L 5.125 -9.28125 L 5.125 0 L 1.359375 0 L 1.359375 -15.4375 L 5.8125 -15.4375 L 10.140625 -4.75 L 14.4375 -15.4375 Z M 18.859375 -15.4375 "/></g></g></g><g fill="#af1740" fill-opacity="1"><g transform="translate(194.693282, 194.635643)"><g><path d="M 10.984375 -2.734375 L 5.21875 -2.734375 L 4.296875 0 L 0.359375 0 L 5.9375 -15.4375 L 10.296875 -15.4375 L 15.890625 0 L 11.90625 0 Z M 10.015625 -5.625 L 8.09375 -11.28125 L 6.203125 -5.625 Z M 10.015625 -5.625 "/></g></g></g><g fill="#af1740" fill-opacity="1"><g transform="translate(210.904398, 194.635643)"><g><path d="M 12.46875 -15.4375 L 12.46875 -12.4375 L 8.375 -12.4375 L 8.375 0 L 4.625 0 L 4.625 -12.4375 L 0.53125 -12.4375 L 0.53125 -15.4375 Z M 12.46875 -15.4375 "/></g></g></g><g fill="#af1740" fill-opacity="1"><g transform="translate(223.904084, 194.635643)"><g><path d="M 5.125 -12.4375 L 5.125 -9.3125 L 10.15625 -9.3125 L 10.15625 -6.40625 L 5.125 -6.40625 L 5.125 -3.015625 L 10.828125 -3.015625 L 10.828125 0 L 1.359375 0 L 1.359375 -15.4375 L 10.828125 -15.4375 L 10.828125 -12.4375 Z M 5.125 -12.4375 "/></g></g></g><g fill="#af1740" fill-opacity="1"><g transform="translate(235.803959, 194.635643)"><g><path d="M 9.234375 0 L 6.03125 -5.828125 L 5.125 -5.828125 L 5.125 0 L 1.359375 0 L 1.359375 -15.4375 L 7.671875 -15.4375 C 8.890625 -15.4375 9.925781 -15.222656 10.78125 -14.796875 C 11.644531 -14.378906 12.289062 -13.800781 12.71875 -13.0625 C 13.144531 -12.320312 13.359375 -11.492188 13.359375 -10.578125 C 13.359375 -9.554688 13.066406 -8.640625 12.484375 -7.828125 C 11.898438 -7.023438 11.046875 -6.453125 9.921875 -6.109375 L 13.484375 0 Z M 5.125 -8.484375 L 7.453125 -8.484375 C 8.140625 -8.484375 8.65625 -8.648438 9 -8.984375 C 9.351562 -9.328125 9.53125 -9.804688 9.53125 -10.421875 C 9.53125 -11.015625 9.351562 -11.476562 9 -11.8125 C 8.65625 -12.144531 8.140625 -12.3125 7.453125 -12.3125 L 5.125 -12.3125 Z M 5.125 -8.484375 "/></g></g></g><g fill="#af1740" fill-opacity="1"><g transform="translate(250.145407, 194.635643)"><g><path d="M 15.1875 0 L 11.421875 0 L 5.125 -9.53125 L 5.125 0 L 1.359375 0 L 1.359375 -15.4375 L 5.125 -15.4375 L 11.421875 -5.875 L 11.421875 -15.4375 L 15.1875 -15.4375 Z M 15.1875 0 "/></g></g></g><g fill="#af1740" fill-opacity="1"><g transform="translate(266.686456, 194.635643)"><g><path d="M 5.125 -15.4375 L 5.125 0 L 1.359375 0 L 1.359375 -15.4375 Z M 5.125 -15.4375 "/></g></g></g><g fill="#af1740" fill-opacity="1"><g transform="translate(273.175302, 194.635643)"><g><path d="M 12.46875 -15.4375 L 12.46875 -12.4375 L 8.375 -12.4375 L 8.375 0 L 4.625 0 L 4.625 -12.4375 L 0.53125 -12.4375 L 0.53125 -15.4375 Z M 12.46875 -15.4375 "/></g></g></g><g fill="#af1740" fill-opacity="1"><g transform="translate(286.174988, 194.635643)"><g><path d="M 14.609375 -15.4375 L 9.265625 -5.109375 L 9.265625 0 L 5.5 0 L 5.5 -5.109375 L 0.15625 -15.4375 L 4.421875 -15.4375 L 7.40625 -8.96875 L 10.390625 -15.4375 Z M 14.609375 -15.4375 "/></g></g></g><g fill="#af1740" fill-opacity="1"><g transform="translate(152.246977, 225.385641)"><g><path d="M 5.125 -2.90625 L 10.046875 -2.90625 L 10.046875 0 L 1.359375 0 L 1.359375 -15.4375 L 5.125 -15.4375 Z M 5.125 -2.90625 "/></g></g></g><g fill="#af1740" fill-opacity="1"><g transform="translate(162.739102, 225.385641)"><g><path d="M 14.609375 -15.4375 L 9.265625 -5.109375 L 9.265625 0 L 5.5 0 L 5.5 -5.109375 L 0.15625 -15.4375 L 4.421875 -15.4375 L 7.40625 -8.96875 L 10.390625 -15.4375 Z M 14.609375 -15.4375 "/></g></g></g><g fill="#af1740" fill-opacity="1"><g transform="translate(177.498466, 225.385641)"><g><path d="M 5.125 -15.4375 L 5.125 0 L 1.359375 0 L 1.359375 -15.4375 Z M 5.125 -15.4375 "/></g></g></g><g fill="#af1740" fill-opacity="1"><g transform="translate(183.987311, 225.385641)"><g><path d="M 15.1875 0 L 11.421875 0 L 5.125 -9.53125 L 5.125 0 L 1.359375 0 L 1.359375 -15.4375 L 5.125 -15.4375 L 11.421875 -5.875 L 11.421875 -15.4375 L 15.1875 -15.4375 Z M 15.1875 0 "/></g></g></g><g fill="#af1740" fill-opacity="1"><g transform="translate(200.52836, 225.385641)"><g><path d="M 11.609375 -10.5625 C 11.335938 -11.070312 10.941406 -11.460938 10.421875 -11.734375 C 9.898438 -12.003906 9.285156 -12.140625 8.578125 -12.140625 C 7.359375 -12.140625 6.378906 -11.738281 5.640625 -10.9375 C 4.910156 -10.144531 4.546875 -9.082031 4.546875 -7.75 C 4.546875 -6.320312 4.929688 -5.207031 5.703125 -4.40625 C 6.472656 -3.613281 7.535156 -3.21875 8.890625 -3.21875 C 9.816406 -3.21875 10.597656 -3.453125 11.234375 -3.921875 C 11.867188 -4.390625 12.332031 -5.0625 12.625 -5.9375 L 7.859375 -5.9375 L 7.859375 -8.71875 L 16.03125 -8.71875 L 16.03125 -5.21875 C 15.757812 -4.28125 15.289062 -3.40625 14.625 -2.59375 C 13.957031 -1.789062 13.109375 -1.140625 12.078125 -0.640625 C 11.046875 -0.140625 9.890625 0.109375 8.609375 0.109375 C 7.078125 0.109375 5.710938 -0.222656 4.515625 -0.890625 C 3.328125 -1.554688 2.394531 -2.484375 1.71875 -3.671875 C 1.050781 -4.859375 0.71875 -6.21875 0.71875 -7.75 C 0.71875 -9.269531 1.050781 -10.628906 1.71875 -11.828125 C 2.394531 -13.023438 3.328125 -13.957031 4.515625 -14.625 C 5.703125 -15.289062 7.054688 -15.625 8.578125 -15.625 C 10.429688 -15.625 11.988281 -15.175781 13.25 -14.28125 C 14.519531 -13.382812 15.363281 -12.144531 15.78125 -10.5625 Z M 11.609375 -10.5625 "/></g></g></g><g fill="#af1740" fill-opacity="1"><g transform="translate(217.289376, 225.385641)"><g/></g></g><g fill="#af1740" fill-opacity="1"><g transform="translate(221.952545, 225.385641)"><g><path d="M 5.125 -15.4375 L 5.125 0 L 1.359375 0 L 1.359375 -15.4375 Z M 5.125 -15.4375 "/></g></g></g><g fill="#af1740" fill-opacity="1"><g transform="translate(228.44139, 225.385641)"><g><path d="M 15.1875 0 L 11.421875 0 L 5.125 -9.53125 L 5.125 0 L 1.359375 0 L 1.359375 -15.4375 L 5.125 -15.4375 L 11.421875 -5.875 L 11.421875 -15.4375 L 15.1875 -15.4375 Z M 15.1875 0 "/></g></g></g><g fill="#af1740" fill-opacity="1"><g transform="translate(244.982439, 225.385641)"><g/></g></g><g fill="#af1740" fill-opacity="1"><g transform="translate(249.645609, 225.385641)"><g><path d="M 0.71875 -7.75 C 0.71875 -9.269531 1.046875 -10.628906 1.703125 -11.828125 C 2.367188 -13.023438 3.289062 -13.957031 4.46875 -14.625 C 5.65625 -15.289062 6.992188 -15.625 8.484375 -15.625 C 10.316406 -15.625 11.882812 -15.140625 13.1875 -14.171875 C 14.5 -13.203125 15.375 -11.878906 15.8125 -10.203125 L 11.6875 -10.203125 C 11.375 -10.847656 10.9375 -11.335938 10.375 -11.671875 C 9.8125 -12.015625 9.171875 -12.1875 8.453125 -12.1875 C 7.285156 -12.1875 6.34375 -11.78125 5.625 -10.96875 C 4.90625 -10.164062 4.546875 -9.09375 4.546875 -7.75 C 4.546875 -6.394531 4.90625 -5.3125 5.625 -4.5 C 6.34375 -3.695312 7.285156 -3.296875 8.453125 -3.296875 C 9.171875 -3.296875 9.8125 -3.460938 10.375 -3.796875 C 10.9375 -4.140625 11.375 -4.632812 11.6875 -5.28125 L 15.8125 -5.28125 C 15.375 -3.601562 14.5 -2.285156 13.1875 -1.328125 C 11.882812 -0.367188 10.316406 0.109375 8.484375 0.109375 C 6.992188 0.109375 5.65625 -0.222656 4.46875 -0.890625 C 3.289062 -1.554688 2.367188 -2.484375 1.703125 -3.671875 C 1.046875 -4.859375 0.71875 -6.21875 0.71875 -7.75 Z M 0.71875 -7.75 "/></g></g></g><g fill="#af1740" fill-opacity="1"><g transform="translate(266.406624, 225.385641)"><g><path d="M 5.125 -2.90625 L 10.046875 -2.90625 L 10.046875 0 L 1.359375 0 L 1.359375 -15.4375 L 5.125 -15.4375 Z M 5.125 -2.90625 "/></g></g></g><g fill="#af1740" fill-opacity="1"><g transform="translate(276.89875, 225.385641)"><g><path d="M 5.125 -15.4375 L 5.125 0 L 1.359375 0 L 1.359375 -15.4375 Z M 5.125 -15.4375 "/></g></g></g><g fill="#af1740" fill-opacity="1"><g transform="translate(283.387595, 225.385641)"><g><path d="M 15.1875 0 L 11.421875 0 L 5.125 -9.53125 L 5.125 0 L 1.359375 0 L 1.359375 -15.4375 L 5.125 -15.4375 L 11.421875 -5.875 L 11.421875 -15.4375 L 15.1875 -15.4375 Z M 15.1875 0 "/></g></g></g><g fill="#af1740" fill-opacity="1"><g transform="translate(299.928644, 225.385641)"><g><path d="M 5.125 -15.4375 L 5.125 0 L 1.359375 0 L 1.359375 -15.4375 Z M 5.125 -15.4375 "/></g></g></g><g fill="#af1740" fill-opacity="1"><g transform="translate(306.417489, 225.385641)"><g><path d="M 0.71875 -7.75 C 0.71875 -9.269531 1.046875 -10.628906 1.703125 -11.828125 C 2.367188 -13.023438 3.289062 -13.957031 4.46875 -14.625 C 5.65625 -15.289062 6.992188 -15.625 8.484375 -15.625 C 10.316406 -15.625 11.882812 -15.140625 13.1875 -14.171875 C 14.5 -13.203125 15.375 -11.878906 15.8125 -10.203125 L 11.6875 -10.203125 C 11.375 -10.847656 10.9375 -11.335938 10.375 -11.671875 C 9.8125 -12.015625 9.171875 -12.1875 8.453125 -12.1875 C 7.285156 -12.1875 6.34375 -11.78125 5.625 -10.96875 C 4.90625 -10.164062 4.546875 -9.09375 4.546875 -7.75 C 4.546875 -6.394531 4.90625 -5.3125 5.625 -4.5 C 6.34375 -3.695312 7.285156 -3.296875 8.453125 -3.296875 C 9.171875 -3.296875 9.8125 -3.460938 10.375 -3.796875 C 10.9375 -4.140625 11.375 -4.632812 11.6875 -5.28125 L 15.8125 -5.28125 C 15.375 -3.601562 14.5 -2.285156 13.1875 -1.328125 C 11.882812 -0.367188 10.316406 0.109375 8.484375 0.109375 C 6.992188 0.109375 5.65625 -0.222656 4.46875 -0.890625 C 3.289062 -1.554688 2.367188 -2.484375 1.703125 -3.671875 C 1.046875 -4.859375 0.71875 -6.21875 0.71875 -7.75 Z M 0.71875 -7.75 "/></g></g></g><g fill="#ffc55a" fill-opacity="1"><g transform="translate(116.129791, 256.135639)"><g><path d="M 9.234375 0 L 6.03125 -5.828125 L 5.125 -5.828125 L 5.125 0 L 1.359375 0 L 1.359375 -15.4375 L 7.671875 -15.4375 C 8.890625 -15.4375 9.925781 -15.222656 10.78125 -14.796875 C 11.644531 -14.378906 12.289062 -13.800781 12.71875 -13.0625 C 13.144531 -12.320312 13.359375 -11.492188 13.359375 -10.578125 C 13.359375 -9.554688 13.066406 -8.640625 12.484375 -7.828125 C 11.898438 -7.023438 11.046875 -6.453125 9.921875 -6.109375 L 13.484375 0 Z M 5.125 -8.484375 L 7.453125 -8.484375 C 8.140625 -8.484375 8.65625 -8.648438 9 -8.984375 C 9.351562 -9.328125 9.53125 -9.804688 9.53125 -10.421875 C 9.53125 -11.015625 9.351562 -11.476562 9 -11.8125 C 8.65625 -12.144531 8.140625 -12.3125 7.453125 -12.3125 L 5.125 -12.3125 Z M 5.125 -8.484375 "/></g></g></g><g fill="#ffc55a" fill-opacity="1"><g transform="translate(130.47124, 256.135639)"><g><path d="M 5.125 -12.4375 L 5.125 -9.3125 L 10.15625 -9.3125 L 10.15625 -6.40625 L 5.125 -6.40625 L 5.125 -3.015625 L 10.828125 -3.015625 L 10.828125 0 L 1.359375 0 L 1.359375 -15.4375 L 10.828125 -15.4375 L 10.828125 -12.4375 Z M 5.125 -12.4375 "/></g></g></g><g fill="#ffc55a" fill-opacity="1"><g transform="translate(142.371115, 256.135639)"><g><path d="M 6.953125 0.15625 C 5.828125 0.15625 4.816406 -0.0234375 3.921875 -0.390625 C 3.023438 -0.765625 2.304688 -1.3125 1.765625 -2.03125 C 1.234375 -2.75 0.953125 -3.613281 0.921875 -4.625 L 4.921875 -4.625 C 4.984375 -4.050781 5.179688 -3.613281 5.515625 -3.3125 C 5.859375 -3.007812 6.300781 -2.859375 6.84375 -2.859375 C 7.394531 -2.859375 7.832031 -2.984375 8.15625 -3.234375 C 8.476562 -3.492188 8.640625 -3.851562 8.640625 -4.3125 C 8.640625 -4.695312 8.507812 -5.007812 8.25 -5.25 C 8 -5.5 7.6875 -5.703125 7.3125 -5.859375 C 6.9375 -6.023438 6.40625 -6.210938 5.71875 -6.421875 C 4.71875 -6.734375 3.898438 -7.039062 3.265625 -7.34375 C 2.640625 -7.65625 2.097656 -8.109375 1.640625 -8.703125 C 1.191406 -9.304688 0.96875 -10.09375 0.96875 -11.0625 C 0.96875 -12.5 1.488281 -13.625 2.53125 -14.4375 C 3.570312 -15.25 4.925781 -15.65625 6.59375 -15.65625 C 8.300781 -15.65625 9.675781 -15.25 10.71875 -14.4375 C 11.757812 -13.625 12.316406 -12.492188 12.390625 -11.046875 L 8.3125 -11.046875 C 8.28125 -11.546875 8.097656 -11.9375 7.765625 -12.21875 C 7.429688 -12.507812 7 -12.65625 6.46875 -12.65625 C 6.007812 -12.65625 5.640625 -12.53125 5.359375 -12.28125 C 5.085938 -12.039062 4.953125 -11.691406 4.953125 -11.234375 C 4.953125 -10.742188 5.1875 -10.359375 5.65625 -10.078125 C 6.125 -9.796875 6.859375 -9.492188 7.859375 -9.171875 C 8.847656 -8.835938 9.65625 -8.515625 10.28125 -8.203125 C 10.90625 -7.898438 11.441406 -7.453125 11.890625 -6.859375 C 12.347656 -6.273438 12.578125 -5.519531 12.578125 -4.59375 C 12.578125 -3.71875 12.351562 -2.921875 11.90625 -2.203125 C 11.457031 -1.484375 10.804688 -0.910156 9.953125 -0.484375 C 9.109375 -0.0546875 8.109375 0.15625 6.953125 0.15625 Z M 6.953125 0.15625 "/></g></g></g><g fill="#ffc55a" fill-opacity="1"><g transform="translate(155.898706, 256.135639)"><g><path d="M 5.125 -12.4375 L 5.125 -9.3125 L 10.15625 -9.3125 L 10.15625 -6.40625 L 5.125 -6.40625 L 5.125 -3.015625 L 10.828125 -3.015625 L 10.828125 0 L 1.359375 0 L 1.359375 -15.4375 L 10.828125 -15.4375 L 10.828125 -12.4375 Z M 5.125 -12.4375 "/></g></g></g><g fill="#ffc55a" fill-opacity="1"><g transform="translate(167.798581, 256.135639)"><g><path d="M 9.234375 0 L 6.03125 -5.828125 L 5.125 -5.828125 L 5.125 0 L 1.359375 0 L 1.359375 -15.4375 L 7.671875 -15.4375 C 8.890625 -15.4375 9.925781 -15.222656 10.78125 -14.796875 C 11.644531 -14.378906 12.289062 -13.800781 12.71875 -13.0625 C 13.144531 -12.320312 13.359375 -11.492188 13.359375 -10.578125 C 13.359375 -9.554688 13.066406 -8.640625 12.484375 -7.828125 C 11.898438 -7.023438 11.046875 -6.453125 9.921875 -6.109375 L 13.484375 0 Z M 5.125 -8.484375 L 7.453125 -8.484375 C 8.140625 -8.484375 8.65625 -8.648438 9 -8.984375 C 9.351562 -9.328125 9.53125 -9.804688 9.53125 -10.421875 C 9.53125 -11.015625 9.351562 -11.476562 9 -11.8125 C 8.65625 -12.144531 8.140625 -12.3125 7.453125 -12.3125 L 5.125 -12.3125 Z M 5.125 -8.484375 "/></g></g></g><g fill="#ffc55a" fill-opacity="1"><g transform="translate(182.14003, 256.135639)"><g><path d="M 15.859375 -15.4375 L 10.390625 0 L 5.671875 0 L 0.203125 -15.4375 L 4.203125 -15.4375 L 8.03125 -3.78125 L 11.875 -15.4375 Z M 15.859375 -15.4375 "/></g></g></g><g fill="#ffc55a" fill-opacity="1"><g transform="translate(198.197165, 256.135639)"><g><path d="M 10.984375 -2.734375 L 5.21875 -2.734375 L 4.296875 0 L 0.359375 0 L 5.9375 -15.4375 L 10.296875 -15.4375 L 15.890625 0 L 11.90625 0 Z M 10.015625 -5.625 L 8.09375 -11.28125 L 6.203125 -5.625 Z M 10.015625 -5.625 "/></g></g></g><g fill="#ffc55a" fill-opacity="1"><g transform="translate(214.40828, 256.135639)"><g><path d="M 12.46875 -15.4375 L 12.46875 -12.4375 L 8.375 -12.4375 L 8.375 0 L 4.625 0 L 4.625 -12.4375 L 0.53125 -12.4375 L 0.53125 -15.4375 Z M 12.46875 -15.4375 "/></g></g></g><g fill="#ffc55a" fill-opacity="1"><g transform="translate(227.407966, 256.135639)"><g><path d="M 5.125 -15.4375 L 5.125 0 L 1.359375 0 L 1.359375 -15.4375 Z M 5.125 -15.4375 "/></g></g></g><g fill="#ffc55a" fill-opacity="1"><g transform="translate(233.896812, 256.135639)"><g><path d="M 8.671875 0.15625 C 7.210938 0.15625 5.878906 -0.179688 4.671875 -0.859375 C 3.460938 -1.535156 2.5 -2.476562 1.78125 -3.6875 C 1.070312 -4.894531 0.71875 -6.253906 0.71875 -7.765625 C 0.71875 -9.273438 1.070312 -10.628906 1.78125 -11.828125 C 2.5 -13.035156 3.460938 -13.972656 4.671875 -14.640625 C 5.878906 -15.316406 7.210938 -15.65625 8.671875 -15.65625 C 10.117188 -15.65625 11.445312 -15.316406 12.65625 -14.640625 C 13.863281 -13.972656 14.816406 -13.035156 15.515625 -11.828125 C 16.210938 -10.628906 16.5625 -9.273438 16.5625 -7.765625 C 16.5625 -6.253906 16.207031 -4.894531 15.5 -3.6875 C 14.800781 -2.476562 13.847656 -1.535156 12.640625 -0.859375 C 11.441406 -0.179688 10.117188 0.15625 8.671875 0.15625 Z M 8.671875 -3.28125 C 9.898438 -3.28125 10.882812 -3.6875 11.625 -4.5 C 12.363281 -5.320312 12.734375 -6.410156 12.734375 -7.765625 C 12.734375 -9.128906 12.363281 -10.21875 11.625 -11.03125 C 10.882812 -11.84375 9.898438 -12.25 8.671875 -12.25 C 7.421875 -12.25 6.425781 -11.84375 5.6875 -11.03125 C 4.945312 -10.226562 4.578125 -9.140625 4.578125 -7.765625 C 4.578125 -6.398438 4.945312 -5.3125 5.6875 -4.5 C 6.425781 -3.6875 7.421875 -3.28125 8.671875 -3.28125 Z M 8.671875 -3.28125 "/></g></g></g><g fill="#ffc55a" fill-opacity="1"><g transform="translate(251.185732, 256.135639)"><g><path d="M 15.1875 0 L 11.421875 0 L 5.125 -9.53125 L 5.125 0 L 1.359375 0 L 1.359375 -15.4375 L 5.125 -15.4375 L 11.421875 -5.875 L 11.421875 -15.4375 L 15.1875 -15.4375 Z M 15.1875 0 "/></g></g></g><g fill="#ffc55a" fill-opacity="1"><g transform="translate(267.726781, 256.135639)"><g/></g></g><g fill="#ffc55a" fill-opacity="1"><g transform="translate(272.38995, 256.135639)"><g><path d="M 6.953125 0.15625 C 5.828125 0.15625 4.816406 -0.0234375 3.921875 -0.390625 C 3.023438 -0.765625 2.304688 -1.3125 1.765625 -2.03125 C 1.234375 -2.75 0.953125 -3.613281 0.921875 -4.625 L 4.921875 -4.625 C 4.984375 -4.050781 5.179688 -3.613281 5.515625 -3.3125 C 5.859375 -3.007812 6.300781 -2.859375 6.84375 -2.859375 C 7.394531 -2.859375 7.832031 -2.984375 8.15625 -3.234375 C 8.476562 -3.492188 8.640625 -3.851562 8.640625 -4.3125 C 8.640625 -4.695312 8.507812 -5.007812 8.25 -5.25 C 8 -5.5 7.6875 -5.703125 7.3125 -5.859375 C 6.9375 -6.023438 6.40625 -6.210938 5.71875 -6.421875 C 4.71875 -6.734375 3.898438 -7.039062 3.265625 -7.34375 C 2.640625 -7.65625 2.097656 -8.109375 1.640625 -8.703125 C 1.191406 -9.304688 0.96875 -10.09375 0.96875 -11.0625 C 0.96875 -12.5 1.488281 -13.625 2.53125 -14.4375 C 3.570312 -15.25 4.925781 -15.65625 6.59375 -15.65625 C 8.300781 -15.65625 9.675781 -15.25 10.71875 -14.4375 C 11.757812 -13.625 12.316406 -12.492188 12.390625 -11.046875 L 8.3125 -11.046875 C 8.28125 -11.546875 8.097656 -11.9375 7.765625 -12.21875 C 7.429688 -12.507812 7 -12.65625 6.46875 -12.65625 C 6.007812 -12.65625 5.640625 -12.53125 5.359375 -12.28125 C 5.085938 -12.039062 4.953125 -11.691406 4.953125 -11.234375 C 4.953125 -10.742188 5.1875 -10.359375 5.65625 -10.078125 C 6.125 -9.796875 6.859375 -9.492188 7.859375 -9.171875 C 8.847656 -8.835938 9.65625 -8.515625 10.28125 -8.203125 C 10.90625 -7.898438 11.441406 -7.453125 11.890625 -6.859375 C 12.347656 -6.273438 12.578125 -5.519531 12.578125 -4.59375 C 12.578125 -3.71875 12.351562 -2.921875 11.90625 -2.203125 C 11.457031 -1.484375 10.804688 -0.910156 9.953125 -0.484375 C 9.109375 -0.0546875 8.109375 0.15625 6.953125 0.15625 Z M 6.953125 0.15625 "/></g></g></g><g fill="#ffc55a" fill-opacity="1"><g transform="translate(285.917541, 256.135639)"><g><path d="M 14.609375 -15.4375 L 9.265625 -5.109375 L 9.265625 0 L 5.5 0 L 5.5 -5.109375 L 0.15625 -15.4375 L 4.421875 -15.4375 L 7.40625 -8.96875 L 10.390625 -15.4375 Z M 14.609375 -15.4375 "/></g></g></g><g fill="#ffc55a" fill-opacity="1"><g transform="translate(300.676905, 256.135639)"><g><path d="M 6.953125 0.15625 C 5.828125 0.15625 4.816406 -0.0234375 3.921875 -0.390625 C 3.023438 -0.765625 2.304688 -1.3125 1.765625 -2.03125 C 1.234375 -2.75 0.953125 -3.613281 0.921875 -4.625 L 4.921875 -4.625 C 4.984375 -4.050781 5.179688 -3.613281 5.515625 -3.3125 C 5.859375 -3.007812 6.300781 -2.859375 6.84375 -2.859375 C 7.394531 -2.859375 7.832031 -2.984375 8.15625 -3.234375 C 8.476562 -3.492188 8.640625 -3.851562 8.640625 -4.3125 C 8.640625 -4.695312 8.507812 -5.007812 8.25 -5.25 C 8 -5.5 7.6875 -5.703125 7.3125 -5.859375 C 6.9375 -6.023438 6.40625 -6.210938 5.71875 -6.421875 C 4.71875 -6.734375 3.898438 -7.039062 3.265625 -7.34375 C 2.640625 -7.65625 2.097656 -8.109375 1.640625 -8.703125 C 1.191406 -9.304688 0.96875 -10.09375 0.96875 -11.0625 C 0.96875 -12.5 1.488281 -13.625 2.53125 -14.4375 C 3.570312 -15.25 4.925781 -15.65625 6.59375 -15.65625 C 8.300781 -15.65625 9.675781 -15.25 10.71875 -14.4375 C 11.757812 -13.625 12.316406 -12.492188 12.390625 -11.046875 L 8.3125 -11.046875 C 8.28125 -11.546875 8.097656 -11.9375 7.765625 -12.21875 C 7.429688 -12.507812 7 -12.65625 6.46875 -12.65625 C 6.007812 -12.65625 5.640625 -12.53125 5.359375 -12.28125 C 5.085938 -12.039062 4.953125 -11.691406 4.953125 -11.234375 C 4.953125 -10.742188 5.1875 -10.359375 5.65625 -10.078125 C 6.125 -9.796875 6.859375 -9.492188 7.859375 -9.171875 C 8.847656 -8.835938 9.65625 -8.515625 10.28125 -8.203125 C 10.90625 -7.898438 11.441406 -7.453125 11.890625 -6.859375 C 12.347656 -6.273438 12.578125 -5.519531 12.578125 -4.59375 C 12.578125 -3.71875 12.351562 -2.921875 11.90625 -2.203125 C 11.457031 -1.484375 10.804688 -0.910156 9.953125 -0.484375 C 9.109375 -0.0546875 8.109375 0.15625 6.953125 0.15625 Z M 6.953125 0.15625 "/></g></g></g><g fill="#ffc55a" fill-opacity="1"><g transform="translate(314.204484, 256.135639)"><g><path d="M 12.46875 -15.4375 L 12.46875 -12.4375 L 8.375 -12.4375 L 8.375 0 L 4.625 0 L 4.625 -12.4375 L 0.53125 -12.4375 L 0.53125 -15.4375 Z M 12.46875 -15.4375 "/></g></g></g><g fill="#ffc55a" fill-opacity="1"><g transform="translate(327.204171, 256.135639)"><g><path d="M 5.125 -12.4375 L 5.125 -9.3125 L 10.15625 -9.3125 L 10.15625 -6.40625 L 5.125 -6.40625 L 5.125 -3.015625 L 10.828125 -3.015625 L 10.828125 0 L 1.359375 0 L 1.359375 -15.4375 L 10.828125 -15.4375 L 10.828125 -12.4375 Z M 5.125 -12.4375 "/></g></g></g><g fill="#ffc55a" fill-opacity="1"><g transform="translate(339.104034, 256.135639)"><g><path d="M 18.859375 -15.4375 L 18.859375 0 L 15.09375 0 L 15.09375 -9.265625 L 11.640625 0 L 8.609375 0 L 5.125 -9.28125 L 5.125 0 L 1.359375 0 L 1.359375 -15.4375 L 5.8125 -15.4375 L 10.140625 -4.75 L 14.4375 -15.4375 Z M 18.859375 -15.4375 "/></g></g></g></svg>