<svg xmlns="http://www.w3.org/2000/svg" xmlns:xlink="http://www.w3.org/1999/xlink" width="373" zoomAndPan="magnify" viewBox="0 0 279.75 77.999999" height="104" preserveAspectRatio="xMidYMid meet" version="1.0"><defs><g/><clipPath id="90a5bb04a9"><path d="M 3.414062 3.117188 L 75.175781 3.117188 L 75.175781 74.882812 L 3.414062 74.882812 Z M 3.414062 3.117188 " clip-rule="nonzero"/></clipPath><clipPath id="187de49398"><path d="M 39.296875 3.117188 C 19.480469 3.117188 3.414062 19.183594 3.414062 39 C 3.414062 58.816406 19.480469 74.882812 39.296875 74.882812 C 59.113281 74.882812 75.175781 58.816406 75.175781 39 C 75.175781 19.183594 59.113281 3.117188 39.296875 3.117188 Z M 39.296875 3.117188 " clip-rule="nonzero"/></clipPath><clipPath id="5dbf30b10b"><path d="M 16.96875 16.671875 L 61.625 16.671875 L 61.625 61.328125 L 16.96875 61.328125 Z M 16.96875 16.671875 " clip-rule="nonzero"/></clipPath><clipPath id="8a8a73d712"><path d="M 39.296875 16.671875 C 26.964844 16.671875 16.96875 26.667969 16.96875 39 C 16.96875 51.332031 26.964844 61.328125 39.296875 61.328125 C 51.628906 61.328125 61.625 51.332031 61.625 39 C 61.625 26.667969 51.628906 16.671875 39.296875 16.671875 Z M 39.296875 16.671875 " clip-rule="nonzero"/></clipPath><clipPath id="509073eba2"><path d="M 0 37.28125 L 78.59375 37.28125 L 78.59375 48.25 L 0 48.25 Z M 0 37.28125 " clip-rule="nonzero"/></clipPath><clipPath id="482a577daf"><path d="M 27 20.464844 L 51 20.464844 L 51 56.433594 L 27 56.433594 Z M 27 20.464844 " clip-rule="nonzero"/></clipPath><clipPath id="f28269a5ad"><path d="M 31 37 L 52.808594 37 L 52.808594 56 L 31 56 Z M 31 37 " clip-rule="nonzero"/></clipPath></defs><g clip-path="url(#90a5bb04a9)"><g clip-path="url(#187de49398)"><path fill="#af1840" d="M 3.414062 3.117188 L 75.175781 3.117188 L 75.175781 74.882812 L 3.414062 74.882812 Z M 3.414062 3.117188 " fill-opacity="1" fill-rule="nonzero"/></g></g><g clip-path="url(#5dbf30b10b)"><g clip-path="url(#8a8a73d712)"><path fill="#eee2b5" d="M 16.96875 16.671875 L 61.625 16.671875 L 61.625 61.328125 L 16.96875 61.328125 Z M 16.96875 16.671875 " fill-opacity="1" fill-rule="nonzero"/></g></g><g clip-path="url(#509073eba2)"><path fill="#eee2b5" d="M 0 37.28125 L 78.585938 37.28125 L 78.585938 48.25 L 0 48.25 Z M 0 37.28125 " fill-opacity="1" fill-rule="nonzero"/></g><g fill="#ffffff" fill-opacity="1"><g transform="translate(12.47104, 54.011542)"><g><path d="M 1.328125 1.9375 L 2.078125 0.4375 L 1.953125 0.234375 L 0.734375 1.0625 L 0.1875 0.28125 L 3.40625 -1.921875 L 4.3125 -0.609375 C 4.488281 -0.347656 4.59375 -0.0976562 4.625 0.140625 C 4.65625 0.378906 4.625 0.59375 4.53125 0.78125 C 4.4375 0.976562 4.296875 1.140625 4.109375 1.265625 C 3.890625 1.421875 3.65625 1.492188 3.40625 1.484375 C 3.15625 1.484375 2.921875 1.390625 2.703125 1.203125 L 1.921875 2.8125 Z M 2.5 -0.140625 L 2.828125 0.359375 C 2.921875 0.492188 3.03125 0.570312 3.15625 0.59375 C 3.28125 0.613281 3.40625 0.582031 3.53125 0.5 C 3.65625 0.414062 3.722656 0.3125 3.734375 0.1875 C 3.753906 0.0703125 3.71875 -0.0507812 3.625 -0.1875 L 3.296875 -0.6875 Z M 2.5 -0.140625 "/></g></g></g><g fill="#ffffff" fill-opacity="1"><g transform="translate(14.646755, 57.139489)"><g><path d="M 3.21875 -1.0625 L 2.625 -0.5625 L 3.453125 0.390625 L 2.90625 0.875 L 2.078125 -0.078125 L 1.421875 0.484375 L 2.359375 1.578125 L 1.78125 2.078125 L 0.21875 0.265625 L 3.171875 -2.28125 L 4.734375 -0.46875 L 4.15625 0.03125 Z M 3.21875 -1.0625 "/></g></g></g><g fill="#ffffff" fill-opacity="1"><g transform="translate(16.728126, 59.555834)"><g><path d="M 1.265625 1.203125 C 1.054688 1.015625 0.898438 0.8125 0.796875 0.59375 C 0.691406 0.382812 0.648438 0.164062 0.671875 -0.0625 C 0.703125 -0.289062 0.800781 -0.503906 0.96875 -0.703125 L 1.703125 0 C 1.617188 0.101562 1.582031 0.210938 1.59375 0.328125 C 1.601562 0.453125 1.65625 0.5625 1.75 0.65625 C 1.851562 0.75 1.957031 0.800781 2.0625 0.8125 C 2.164062 0.820312 2.257812 0.785156 2.34375 0.703125 C 2.40625 0.628906 2.429688 0.546875 2.421875 0.453125 C 2.421875 0.367188 2.398438 0.273438 2.359375 0.171875 C 2.328125 0.078125 2.265625 -0.046875 2.171875 -0.203125 C 2.035156 -0.429688 1.9375 -0.625 1.875 -0.78125 C 1.8125 -0.945312 1.789062 -1.125 1.8125 -1.3125 C 1.832031 -1.507812 1.925781 -1.695312 2.09375 -1.875 C 2.34375 -2.132812 2.628906 -2.25 2.953125 -2.21875 C 3.285156 -2.195312 3.609375 -2.039062 3.921875 -1.75 C 4.234375 -1.457031 4.414062 -1.144531 4.46875 -0.8125 C 4.519531 -0.476562 4.425781 -0.175781 4.1875 0.09375 L 3.453125 -0.609375 C 3.523438 -0.710938 3.550781 -0.816406 3.53125 -0.921875 C 3.519531 -1.035156 3.472656 -1.132812 3.390625 -1.21875 C 3.304688 -1.300781 3.210938 -1.34375 3.109375 -1.34375 C 3.015625 -1.34375 2.925781 -1.300781 2.84375 -1.21875 C 2.757812 -1.125 2.734375 -1.007812 2.765625 -0.875 C 2.804688 -0.75 2.894531 -0.566406 3.03125 -0.328125 C 3.15625 -0.0976562 3.25 0.0976562 3.3125 0.265625 C 3.375 0.429688 3.394531 0.601562 3.375 0.78125 C 3.363281 0.96875 3.28125 1.148438 3.125 1.328125 C 2.96875 1.484375 2.785156 1.585938 2.578125 1.640625 C 2.367188 1.703125 2.148438 1.695312 1.921875 1.625 C 1.703125 1.550781 1.484375 1.410156 1.265625 1.203125 Z M 1.265625 1.203125 "/></g></g></g><g fill="#ffffff" fill-opacity="1"><g transform="translate(19.372506, 61.997727)"><g><path d="M 2.921875 -1.734375 L 2.453125 -1.109375 L 3.46875 -0.359375 L 3.015625 0.234375 L 2 -0.515625 L 1.484375 0.171875 L 2.640625 1.03125 L 2.1875 1.640625 L 0.28125 0.203125 L 2.625 -2.921875 L 4.53125 -1.484375 L 4.078125 -0.875 Z M 2.921875 -1.734375 "/></g></g></g><g fill="#ffffff" fill-opacity="1"><g transform="translate(21.924426, 63.92131)"><g><path d="M 2.015625 1.1875 L 2.0625 -0.484375 L 1.875 -0.609375 L 1.125 0.65625 L 0.296875 0.171875 L 2.28125 -3.1875 L 3.65625 -2.375 C 3.925781 -2.21875 4.125 -2.035156 4.25 -1.828125 C 4.375 -1.628906 4.4375 -1.421875 4.4375 -1.203125 C 4.4375 -0.984375 4.378906 -0.773438 4.265625 -0.578125 C 4.128906 -0.359375 3.945312 -0.195312 3.71875 -0.09375 C 3.488281 0 3.234375 0.015625 2.953125 -0.046875 L 2.9375 1.734375 Z M 2.21875 -1.1875 L 2.71875 -0.890625 C 2.863281 -0.796875 2.992188 -0.765625 3.109375 -0.796875 C 3.234375 -0.835938 3.335938 -0.925781 3.421875 -1.0625 C 3.492188 -1.1875 3.507812 -1.300781 3.46875 -1.40625 C 3.4375 -1.519531 3.347656 -1.625 3.203125 -1.71875 L 2.703125 -2.015625 Z M 2.21875 -1.1875 "/></g></g></g><g fill="#ffffff" fill-opacity="1"><g transform="translate(25.236235, 65.870938)"><g><path d="M 5.21875 -2.015625 L 2.421875 1.03125 L 1.328125 0.5625 L 1.578125 -3.578125 L 2.515625 -3.171875 L 2.25 -0.078125 L 4.296875 -2.421875 Z M 5.21875 -2.015625 "/></g></g></g><g fill="#ffffff" fill-opacity="1"><g transform="translate(29.187792, 67.541558)"><g><path d="M 2.875 0.078125 L 1.453125 -0.3125 L 1.046875 0.28125 L 0.09375 0.03125 L 2.484375 -3.375 L 3.546875 -3.078125 L 3.875 1.0625 L 2.90625 0.796875 Z M 2.8125 -0.703125 L 2.71875 -2.234375 L 1.875 -0.96875 Z M 2.8125 -0.703125 "/></g></g></g><g fill="#ffffff" fill-opacity="1"><g transform="translate(33.350466, 68.638689)"><g><path d="M 3.6875 -3.40625 L 3.578125 -2.65625 L 2.5625 -2.8125 L 2.109375 0.296875 L 1.15625 0.171875 L 1.609375 -2.9375 L 0.59375 -3.09375 L 0.703125 -3.84375 Z M 3.6875 -3.40625 "/></g></g></g><g fill="#ffffff" fill-opacity="1"><g transform="translate(36.743504, 69.085661)"><g><path d="M 1.53125 -3.828125 L 1.296875 0.078125 L 0.34375 0.015625 L 0.578125 -3.890625 Z M 1.53125 -3.828125 "/></g></g></g><g fill="#ffffff" fill-opacity="1"><g transform="translate(38.548736, 69.254452)"><g><path d="M 2.1875 -0.0625 C 1.820312 -0.0390625 1.484375 -0.109375 1.171875 -0.265625 C 0.859375 -0.421875 0.601562 -0.644531 0.40625 -0.9375 C 0.21875 -1.238281 0.117188 -1.582031 0.109375 -1.96875 C 0.0859375 -2.34375 0.160156 -2.6875 0.328125 -3 C 0.492188 -3.320312 0.726562 -3.570312 1.03125 -3.75 C 1.332031 -3.925781 1.664062 -4.023438 2.03125 -4.046875 C 2.40625 -4.054688 2.742188 -3.984375 3.046875 -3.828125 C 3.359375 -3.679688 3.609375 -3.457031 3.796875 -3.15625 C 3.984375 -2.851562 4.085938 -2.515625 4.109375 -2.140625 C 4.117188 -1.753906 4.039062 -1.40625 3.875 -1.09375 C 3.71875 -0.78125 3.488281 -0.53125 3.1875 -0.34375 C 2.894531 -0.164062 2.5625 -0.0703125 2.1875 -0.0625 Z M 2.15625 -0.921875 C 2.46875 -0.929688 2.710938 -1.039062 2.890625 -1.25 C 3.066406 -1.46875 3.148438 -1.75 3.140625 -2.09375 C 3.117188 -2.4375 3.007812 -2.707031 2.8125 -2.90625 C 2.625 -3.101562 2.375 -3.195312 2.0625 -3.1875 C 1.75 -3.175781 1.5 -3.0625 1.3125 -2.84375 C 1.132812 -2.632812 1.054688 -2.359375 1.078125 -2.015625 C 1.085938 -1.671875 1.191406 -1.398438 1.390625 -1.203125 C 1.585938 -1.003906 1.84375 -0.910156 2.15625 -0.921875 Z M 2.15625 -0.921875 "/></g></g></g><g fill="#ffffff" fill-opacity="1"><g transform="translate(43.156623, 69.041593)"><g><path d="M 3.78125 -0.703125 L 2.84375 -0.53125 L 0.84375 -2.59375 L 1.28125 -0.234375 L 0.34375 -0.0625 L -0.375 -3.90625 L 0.5625 -4.078125 L 2.578125 -1.984375 L 2.125 -4.375 L 3.0625 -4.546875 Z M 3.78125 -0.703125 "/></g></g></g><g fill="#ffffff" fill-opacity="1"><g transform="translate(47.397695, 68.175028)"><g/></g></g><g fill="#ffffff" fill-opacity="1"><g transform="translate(48.667674, 67.857498)"><g><path d="M 1.65625 -0.578125 C 1.394531 -0.472656 1.140625 -0.421875 0.890625 -0.421875 C 0.648438 -0.429688 0.4375 -0.5 0.25 -0.625 C 0.0625 -0.757812 -0.0820312 -0.941406 -0.1875 -1.171875 L 0.765625 -1.53125 C 0.828125 -1.394531 0.910156 -1.304688 1.015625 -1.265625 C 1.128906 -1.222656 1.25 -1.222656 1.375 -1.265625 C 1.5 -1.316406 1.585938 -1.382812 1.640625 -1.46875 C 1.703125 -1.5625 1.710938 -1.664062 1.671875 -1.78125 C 1.640625 -1.863281 1.582031 -1.921875 1.5 -1.953125 C 1.414062 -1.992188 1.320312 -2.019531 1.21875 -2.03125 C 1.113281 -2.039062 0.972656 -2.039062 0.796875 -2.03125 C 0.535156 -2 0.316406 -1.992188 0.140625 -2.015625 C -0.0234375 -2.035156 -0.191406 -2.097656 -0.359375 -2.203125 C -0.523438 -2.316406 -0.648438 -2.488281 -0.734375 -2.71875 C -0.859375 -3.0625 -0.832031 -3.375 -0.65625 -3.65625 C -0.476562 -3.9375 -0.191406 -4.148438 0.203125 -4.296875 C 0.609375 -4.441406 0.96875 -4.460938 1.28125 -4.359375 C 1.601562 -4.265625 1.832031 -4.046875 1.96875 -3.703125 L 1.015625 -3.34375 C 0.960938 -3.457031 0.878906 -3.53125 0.765625 -3.5625 C 0.660156 -3.601562 0.550781 -3.601562 0.4375 -3.5625 C 0.320312 -3.519531 0.242188 -3.457031 0.203125 -3.375 C 0.160156 -3.300781 0.15625 -3.210938 0.1875 -3.109375 C 0.226562 -2.992188 0.316406 -2.914062 0.453125 -2.875 C 0.597656 -2.84375 0.800781 -2.835938 1.0625 -2.859375 C 1.332031 -2.859375 1.554688 -2.847656 1.734375 -2.828125 C 1.910156 -2.816406 2.078125 -2.757812 2.234375 -2.65625 C 2.398438 -2.5625 2.523438 -2.398438 2.609375 -2.171875 C 2.679688 -1.972656 2.691406 -1.769531 2.640625 -1.5625 C 2.597656 -1.351562 2.492188 -1.160156 2.328125 -0.984375 C 2.160156 -0.816406 1.9375 -0.679688 1.65625 -0.578125 Z M 1.65625 -0.578125 "/></g></g></g><g fill="#ffffff" fill-opacity="1"><g transform="translate(52.066877, 66.608109)"><g><path d="M 1.5 -5.15625 L 1.5 -2.21875 L 2.09375 -1.0625 L 1.234375 -0.625 L 0.640625 -1.78125 L -1.75 -3.5 L -0.78125 -4 L 0.640625 -2.875 L 0.5625 -4.671875 Z M 1.5 -5.15625 "/></g></g></g><g fill="#ffffff" fill-opacity="1"><g transform="translate(55.560032, 64.803252)"><g><path d="M 1.46875 -0.9375 C 1.238281 -0.78125 1.003906 -0.675781 0.765625 -0.625 C 0.535156 -0.570312 0.3125 -0.585938 0.09375 -0.671875 C -0.125 -0.753906 -0.3125 -0.894531 -0.46875 -1.09375 L 0.375 -1.671875 C 0.46875 -1.554688 0.570312 -1.488281 0.6875 -1.46875 C 0.800781 -1.457031 0.914062 -1.488281 1.03125 -1.5625 C 1.144531 -1.632812 1.21875 -1.722656 1.25 -1.828125 C 1.28125 -1.929688 1.265625 -2.03125 1.203125 -2.125 C 1.148438 -2.207031 1.078125 -2.253906 0.984375 -2.265625 C 0.890625 -2.285156 0.789062 -2.285156 0.6875 -2.265625 C 0.59375 -2.242188 0.460938 -2.207031 0.296875 -2.15625 C 0.0351562 -2.070312 -0.175781 -2.019531 -0.34375 -2 C -0.507812 -1.976562 -0.6875 -2 -0.875 -2.0625 C -1.0625 -2.125 -1.222656 -2.257812 -1.359375 -2.46875 C -1.554688 -2.769531 -1.601562 -3.078125 -1.5 -3.390625 C -1.394531 -3.703125 -1.164062 -3.976562 -0.8125 -4.21875 C -0.457031 -4.457031 -0.113281 -4.566406 0.21875 -4.546875 C 0.550781 -4.523438 0.820312 -4.367188 1.03125 -4.078125 L 0.1875 -3.5 C 0.113281 -3.601562 0.0195312 -3.65625 -0.09375 -3.65625 C -0.207031 -3.664062 -0.316406 -3.640625 -0.421875 -3.578125 C -0.515625 -3.503906 -0.578125 -3.421875 -0.609375 -3.328125 C -0.640625 -3.242188 -0.617188 -3.15625 -0.546875 -3.0625 C -0.484375 -2.957031 -0.378906 -2.90625 -0.234375 -2.90625 C -0.0859375 -2.90625 0.101562 -2.945312 0.34375 -3.03125 C 0.601562 -3.09375 0.820312 -3.132812 1 -3.15625 C 1.175781 -3.1875 1.351562 -3.175781 1.53125 -3.125 C 1.707031 -3.070312 1.863281 -2.941406 2 -2.734375 C 2.113281 -2.554688 2.175781 -2.359375 2.1875 -2.140625 C 2.195312 -1.921875 2.140625 -1.707031 2.015625 -1.5 C 1.898438 -1.300781 1.71875 -1.113281 1.46875 -0.9375 Z M 1.46875 -0.9375 "/></g></g></g><g fill="#ffffff" fill-opacity="1"><g transform="translate(58.546973, 62.7796)"><g><path d="M -0.125 -5.03125 L 0.375 -4.4375 L -0.40625 -3.765625 L 1.625 -1.375 L 0.890625 -0.765625 L -1.140625 -3.15625 L -1.921875 -2.484375 L -2.421875 -3.078125 Z M -0.125 -5.03125 "/></g></g></g><g fill="#ffffff" fill-opacity="1"><g transform="translate(61.175648, 60.526404)"><g><path d="M -1.390625 -3.109375 L -0.8125 -2.5625 L 0.0625 -3.484375 L 0.59375 -2.984375 L -0.28125 -2.0625 L 0.34375 -1.46875 L 1.34375 -2.515625 L 1.890625 -1.984375 L 0.234375 -0.25 L -2.59375 -2.9375 L -0.9375 -4.671875 L -0.390625 -4.15625 Z M -1.390625 -3.109375 "/></g></g></g><g fill="#ffffff" fill-opacity="1"><g transform="translate(63.452373, 58.216324)"><g><path d="M -0.390625 -6.140625 L 2.78125 -3.859375 L 2.234375 -3.09375 L 0.328125 -4.46875 L 1.71875 -2.375 L 1.265625 -1.765625 L -1.140625 -2.421875 L 0.765625 -1.046875 L 0.203125 -0.28125 L -2.96875 -2.5625 L -2.3125 -3.46875 L 0.53125 -2.78125 L -1.03125 -5.25 Z M -0.390625 -6.140625 "/></g></g></g><g fill="#ffffff" fill-opacity="1"><g transform="translate(12.311994, 35.330175)"><g><path d="M -1.46875 -2.640625 C -1.40625 -2.835938 -1.285156 -2.984375 -1.109375 -3.078125 C -0.929688 -3.171875 -0.75 -3.207031 -0.5625 -3.1875 C -0.269531 -3.144531 -0.0507812 -3.015625 0.09375 -2.796875 C 0.238281 -2.578125 0.289062 -2.285156 0.25 -1.921875 L 0.046875 -0.3125 L -3.421875 -0.75 L -3.234375 -2.3125 C -3.179688 -2.664062 -3.0625 -2.925781 -2.875 -3.09375 C -2.695312 -3.269531 -2.472656 -3.34375 -2.203125 -3.3125 C -1.992188 -3.289062 -1.828125 -3.21875 -1.703125 -3.09375 C -1.578125 -2.976562 -1.5 -2.828125 -1.46875 -2.640625 Z M -1.921875 -1.40625 L -1.84375 -1.96875 C -1.820312 -2.101562 -1.835938 -2.210938 -1.890625 -2.296875 C -1.941406 -2.378906 -2.03125 -2.429688 -2.15625 -2.453125 C -2.269531 -2.460938 -2.363281 -2.429688 -2.4375 -2.359375 C -2.507812 -2.296875 -2.554688 -2.195312 -2.578125 -2.0625 L -2.65625 -1.5 Z M -0.453125 -1.875 C -0.441406 -2.007812 -0.460938 -2.117188 -0.515625 -2.203125 C -0.566406 -2.285156 -0.648438 -2.335938 -0.765625 -2.359375 C -0.890625 -2.367188 -0.988281 -2.335938 -1.0625 -2.265625 C -1.144531 -2.203125 -1.195312 -2.097656 -1.21875 -1.953125 L -1.296875 -1.328125 L -0.546875 -1.234375 Z M -0.453125 -1.875 "/></g></g></g><g fill="#ffffff" fill-opacity="1"><g transform="translate(12.695769, 32.181729)"><g><path d="M 0 -2.5625 L -0.3125 -1.3125 L 0.234375 -0.9375 L 0.015625 -0.078125 L -3.0625 -2.15625 L -2.8125 -3.109375 L 0.890625 -3.484375 L 0.671875 -2.625 Z M -0.671875 -2.5 L -2.03125 -2.40625 L -0.890625 -1.671875 Z M -0.671875 -2.5 "/></g></g></g><g fill="#ffffff" fill-opacity="1"><g transform="translate(13.564651, 28.741037)"><g><path d="M 1.28125 -3.1875 L 0.96875 -2.40625 L -1.5625 -1.875 L 0.4375 -1.078125 L 0.109375 -0.296875 L -3.140625 -1.59375 L -2.8125 -2.375 L -0.265625 -2.90625 L -2.28125 -3.703125 L -1.96875 -4.484375 Z M 1.28125 -3.1875 "/></g></g></g><g fill="#ffffff" fill-opacity="1"><g transform="translate(14.895221, 25.374542)"><g><path d="M 1.890625 -2.140625 L 1.171875 -2.046875 C 1.117188 -1.921875 1.0625 -1.804688 1 -1.703125 C 0.832031 -1.410156 0.613281 -1.179688 0.34375 -1.015625 C 0.0820312 -0.847656 -0.207031 -0.765625 -0.53125 -0.765625 C -0.851562 -0.765625 -1.160156 -0.851562 -1.453125 -1.03125 C -1.742188 -1.195312 -1.96875 -1.414062 -2.125 -1.6875 C -2.289062 -1.957031 -2.367188 -2.25 -2.359375 -2.5625 C -2.359375 -2.875 -2.273438 -3.175781 -2.109375 -3.46875 C -1.953125 -3.75 -1.738281 -3.972656 -1.46875 -4.140625 C -1.195312 -4.304688 -0.90625 -4.390625 -0.59375 -4.390625 C -0.28125 -4.390625 0.0195312 -4.304688 0.3125 -4.140625 C 0.570312 -3.984375 0.78125 -3.789062 0.9375 -3.5625 C 1.101562 -3.34375 1.203125 -3.09375 1.234375 -2.8125 L 2.40625 -3.03125 Z M -1.015625 -1.765625 C -0.742188 -1.609375 -0.488281 -1.5625 -0.25 -1.625 C -0.0078125 -1.6875 0.175781 -1.84375 0.3125 -2.09375 C 0.445312 -2.320312 0.476562 -2.554688 0.40625 -2.796875 C 0.332031 -3.035156 0.160156 -3.234375 -0.109375 -3.390625 C -0.378906 -3.535156 -0.632812 -3.578125 -0.875 -3.515625 C -1.125 -3.460938 -1.316406 -3.320312 -1.453125 -3.09375 C -1.585938 -2.84375 -1.613281 -2.597656 -1.53125 -2.359375 C -1.457031 -2.117188 -1.285156 -1.921875 -1.015625 -1.765625 Z M -1.015625 -1.765625 "/></g></g></g><g fill="#ffffff" fill-opacity="1"><g transform="translate(16.775997, 22.069049)"><g><path d="M -2.109375 -3.015625 L -0.4375 -1.75 C -0.269531 -1.625 -0.109375 -1.566406 0.046875 -1.578125 C 0.203125 -1.597656 0.34375 -1.6875 0.46875 -1.84375 C 0.582031 -2.007812 0.625 -2.164062 0.59375 -2.3125 C 0.570312 -2.46875 0.476562 -2.609375 0.3125 -2.734375 L -1.359375 -4 L -0.859375 -4.671875 L 0.8125 -3.40625 C 1.0625 -3.21875 1.234375 -3.003906 1.328125 -2.765625 C 1.421875 -2.535156 1.441406 -2.300781 1.390625 -2.0625 C 1.347656 -1.820312 1.242188 -1.59375 1.078125 -1.375 C 0.910156 -1.15625 0.71875 -0.988281 0.5 -0.875 C 0.28125 -0.757812 0.046875 -0.71875 -0.203125 -0.75 C -0.453125 -0.78125 -0.703125 -0.890625 -0.953125 -1.078125 L -2.625 -2.34375 Z M -2.109375 -3.015625 "/></g></g></g><g fill="#ffffff" fill-opacity="1"><g transform="translate(18.849847, 19.353814)"><g><path d="M -1.25 -2.78125 L -0.734375 -2.296875 L 0.046875 -3.125 L 0.515625 -2.671875 L -0.265625 -1.84375 L 0.296875 -1.3125 L 1.1875 -2.25 L 1.6875 -1.78125 L 0.21875 -0.234375 L -2.328125 -2.640625 L -0.859375 -4.1875 L -0.359375 -3.71875 Z M -1.25 -2.78125 "/></g></g></g><g fill="#ffffff" fill-opacity="1"><g transform="translate(20.625865, 17.44579)"><g><path d="M 1.59375 -1.359375 L 0.171875 -1.90625 L 0.015625 -1.765625 L 0.875 -0.75 L 0.234375 -0.203125 L -2.046875 -2.859375 L -0.96875 -3.78125 C -0.75 -3.96875 -0.53125 -4.085938 -0.3125 -4.140625 C -0.101562 -4.191406 0.0859375 -4.179688 0.265625 -4.109375 C 0.441406 -4.046875 0.597656 -3.9375 0.734375 -3.78125 C 0.890625 -3.601562 0.976562 -3.398438 1 -3.171875 C 1.019531 -2.953125 0.953125 -2.738281 0.796875 -2.53125 L 2.328125 -2 Z M -0.375 -2.203125 L 0.03125 -2.546875 C 0.144531 -2.648438 0.207031 -2.757812 0.21875 -2.875 C 0.226562 -2.988281 0.191406 -3.097656 0.109375 -3.203125 C 0.015625 -3.304688 -0.0820312 -3.359375 -0.1875 -3.359375 C -0.300781 -3.367188 -0.414062 -3.320312 -0.53125 -3.21875 L -0.9375 -2.875 Z M -0.375 -2.203125 "/></g></g></g><g fill="#ffffff" fill-opacity="1"><g transform="translate(22.985961, 15.385935)"><g><path d="M 1.65625 -1.046875 C 1.382812 -0.867188 1.085938 -0.769531 0.765625 -0.75 C 0.453125 -0.726562 0.15625 -0.785156 -0.125 -0.921875 C -0.40625 -1.066406 -0.640625 -1.28125 -0.828125 -1.5625 C -1.015625 -1.84375 -1.117188 -2.140625 -1.140625 -2.453125 C -1.160156 -2.773438 -1.09375 -3.078125 -0.9375 -3.359375 C -0.789062 -3.640625 -0.582031 -3.867188 -0.3125 -4.046875 C -0.0390625 -4.222656 0.25 -4.320312 0.5625 -4.34375 C 0.875 -4.363281 1.171875 -4.300781 1.453125 -4.15625 C 1.734375 -4.019531 1.96875 -3.8125 2.15625 -3.53125 C 2.34375 -3.25 2.445312 -2.945312 2.46875 -2.625 C 2.488281 -2.3125 2.425781 -2.015625 2.28125 -1.734375 C 2.132812 -1.453125 1.925781 -1.222656 1.65625 -1.046875 Z M 1.234375 -1.703125 C 1.460938 -1.859375 1.597656 -2.054688 1.640625 -2.296875 C 1.679688 -2.546875 1.617188 -2.800781 1.453125 -3.0625 C 1.285156 -3.320312 1.078125 -3.484375 0.828125 -3.546875 C 0.578125 -3.609375 0.335938 -3.5625 0.109375 -3.40625 C -0.117188 -3.25 -0.253906 -3.046875 -0.296875 -2.796875 C -0.347656 -2.546875 -0.285156 -2.289062 -0.109375 -2.03125 C 0.0546875 -1.769531 0.265625 -1.609375 0.515625 -1.546875 C 0.765625 -1.492188 1.003906 -1.546875 1.234375 -1.703125 Z M 1.234375 -1.703125 "/></g></g></g><g fill="#ffffff" fill-opacity="1"><g transform="translate(26.151985, 13.30152)"><g><path d="M 1.5 -4.609375 L 3.015625 -1.453125 L 2.234375 -1.078125 L 1.609375 -2.375 L 0.421875 -1.796875 L 1.046875 -0.5 L 0.28125 -0.140625 L -1.234375 -3.296875 L -0.46875 -3.65625 L 0.125 -2.421875 L 1.3125 -3 L 0.71875 -4.234375 Z M 1.5 -4.609375 "/></g></g></g><g fill="#ffffff" fill-opacity="1"><g transform="translate(29.321256, 11.764846)"><g><path d="M 2.15625 -1.375 L 0.921875 -0.96875 L 0.921875 -0.296875 L 0.078125 -0.03125 L 0.1875 -3.75 L 1.109375 -4.0625 L 3.40625 -1.125 L 2.5625 -0.84375 Z M 1.75 -1.9375 L 0.921875 -3.015625 L 0.921875 -1.65625 Z M 1.75 -1.9375 "/></g></g></g><g fill="#ffffff" fill-opacity="1"><g transform="translate(32.687598, 10.638496)"><g><path d="M 3.375 -0.640625 L 2.546875 -0.484375 L 0.734375 -2.34375 L 1.140625 -0.21875 L 0.3125 -0.0625 L -0.34375 -3.5 L 0.484375 -3.65625 L 2.296875 -1.78125 L 1.890625 -3.921875 L 2.71875 -4.078125 Z M 3.375 -0.640625 "/></g></g></g><g fill="#ffffff" fill-opacity="1"><g transform="translate(37.300468, 9.839911)"><g><path d="M 3.265625 -3.5625 L 3.34375 -0.0625 L 2.484375 -0.046875 L 2.453125 -1.484375 L 1.125 -1.453125 L 1.15625 -0.015625 L 0.3125 0 L 0.234375 -3.5 L 1.078125 -3.515625 L 1.109375 -2.140625 L 2.4375 -2.171875 L 2.40625 -3.546875 Z M 3.265625 -3.5625 "/></g></g></g><g fill="#ffffff" fill-opacity="1"><g transform="translate(40.843272, 9.78913)"><g><path d="M 1.421875 -2.6875 L 1.34375 -1.984375 L 2.46875 -1.890625 L 2.421875 -1.25 L 1.296875 -1.34375 L 1.21875 -0.578125 L 2.5 -0.46875 L 2.4375 0.21875 L 0.3125 0.03125 L 0.640625 -3.453125 L 2.765625 -3.265625 L 2.703125 -2.578125 Z M 1.421875 -2.6875 "/></g></g></g><g fill="#ffffff" fill-opacity="1"><g transform="translate(43.432873, 9.994203)"><g><path d="M 2.5625 -0.109375 L 1.28125 -0.375 L 0.953125 0.203125 L 0.078125 0.015625 L 2.015625 -3.15625 L 2.984375 -2.953125 L 3.515625 0.734375 L 2.640625 0.546875 Z M 2.484375 -0.796875 L 2.3125 -2.140625 L 1.640625 -0.96875 Z M 2.484375 -0.796875 "/></g></g></g><g fill="#ffffff" fill-opacity="1"><g transform="translate(46.93178, 10.749769)"><g><path d="M 1.296875 -0.265625 L 2.375 0.078125 L 2.171875 0.703125 L 0.296875 0.09375 L 1.375 -3.234375 L 2.171875 -2.96875 Z M 1.296875 -0.265625 "/></g></g></g><g fill="#ffffff" fill-opacity="1"><g transform="translate(49.1283, 11.438327)"><g><path d="M 3.96875 -2.109375 L 3.703125 -1.46875 L 2.859375 -1.828125 L 1.75 0.75 L 0.96875 0.40625 L 2.078125 -2.171875 L 1.21875 -2.53125 L 1.484375 -3.171875 Z M 3.96875 -2.109375 "/></g></g></g><g fill="#ffffff" fill-opacity="1"><g transform="translate(51.74948, 12.535889)"><g><path d="M 4.640625 -1.359375 L 2.890625 1.671875 L 2.15625 1.234375 L 2.875 -0.015625 L 1.71875 -0.671875 L 1 0.578125 L 0.265625 0.15625 L 2.015625 -2.875 L 2.75 -2.453125 L 2.0625 -1.265625 L 3.21875 -0.609375 L 3.90625 -1.796875 Z M 4.640625 -1.359375 "/></g></g></g><g fill="#ffffff" fill-opacity="1"><g transform="translate(54.82801, 14.365958)"><g/></g></g><g fill="#ffffff" fill-opacity="1"><g transform="translate(55.680071, 14.908226)"><g><path d="M 1.21875 1.015625 C 1.007812 0.859375 0.851562 0.679688 0.75 0.484375 C 0.644531 0.285156 0.59375 0.0859375 0.59375 -0.109375 C 0.601562 -0.304688 0.675781 -0.5 0.8125 -0.6875 L 1.515625 -0.109375 C 1.460938 -0.00390625 1.441406 0.0976562 1.453125 0.203125 C 1.460938 0.304688 1.515625 0.394531 1.609375 0.46875 C 1.703125 0.550781 1.796875 0.59375 1.890625 0.59375 C 1.984375 0.59375 2.066406 0.550781 2.140625 0.46875 C 2.191406 0.40625 2.210938 0.332031 2.203125 0.25 C 2.203125 0.164062 2.175781 0.0820312 2.125 0 C 2.082031 -0.0703125 2.015625 -0.175781 1.921875 -0.3125 C 1.785156 -0.519531 1.679688 -0.691406 1.609375 -0.828125 C 1.546875 -0.972656 1.515625 -1.128906 1.515625 -1.296875 C 1.523438 -1.460938 1.601562 -1.628906 1.75 -1.796875 C 1.957031 -2.054688 2.207031 -2.1875 2.5 -2.1875 C 2.800781 -2.1875 3.101562 -2.066406 3.40625 -1.828125 C 3.695312 -1.578125 3.875 -1.304688 3.9375 -1.015625 C 4.007812 -0.722656 3.953125 -0.441406 3.765625 -0.171875 L 3.046875 -0.75 C 3.097656 -0.851562 3.113281 -0.953125 3.09375 -1.046875 C 3.082031 -1.140625 3.03125 -1.222656 2.9375 -1.296875 C 2.851562 -1.359375 2.769531 -1.390625 2.6875 -1.390625 C 2.613281 -1.398438 2.539062 -1.363281 2.46875 -1.28125 C 2.394531 -1.1875 2.378906 -1.082031 2.421875 -0.96875 C 2.472656 -0.851562 2.566406 -0.691406 2.703125 -0.484375 C 2.828125 -0.296875 2.921875 -0.128906 2.984375 0.015625 C 3.046875 0.160156 3.078125 0.3125 3.078125 0.46875 C 3.078125 0.632812 3.007812 0.800781 2.875 0.96875 C 2.75 1.125 2.59375 1.234375 2.40625 1.296875 C 2.226562 1.367188 2.035156 1.378906 1.828125 1.328125 C 1.617188 1.285156 1.414062 1.179688 1.21875 1.015625 Z M 1.21875 1.015625 "/></g></g></g><g fill="#ffffff" fill-opacity="1"><g transform="translate(57.994547, 16.784154)"><g><path d="M 2.8125 -1.1875 L 2.3125 -0.6875 L 3.109375 0.125 L 2.640625 0.59375 L 1.84375 -0.21875 L 1.3125 0.328125 L 2.21875 1.25 L 1.734375 1.734375 L 0.21875 0.21875 L 2.6875 -2.265625 L 4.203125 -0.75 L 3.71875 -0.265625 Z M 2.8125 -1.1875 "/></g></g></g><g fill="#ffffff" fill-opacity="1"><g transform="translate(59.859189, 18.605662)"><g><path d="M 1.328125 1.625 L 1.890625 0.203125 L 1.765625 0.046875 L 0.734375 0.890625 L 0.203125 0.234375 L 2.921875 -1.984375 L 3.8125 -0.875 C 3.988281 -0.65625 4.097656 -0.4375 4.140625 -0.21875 C 4.191406 -0.0078125 4.179688 0.179688 4.109375 0.359375 C 4.046875 0.546875 3.9375 0.703125 3.78125 0.828125 C 3.59375 0.972656 3.382812 1.050781 3.15625 1.0625 C 2.925781 1.070312 2.707031 1.007812 2.5 0.875 L 1.9375 2.375 Z M 2.21875 -0.328125 L 2.546875 0.09375 C 2.648438 0.207031 2.753906 0.269531 2.859375 0.28125 C 2.972656 0.300781 3.082031 0.269531 3.1875 0.1875 C 3.289062 0.09375 3.347656 -0.00390625 3.359375 -0.109375 C 3.378906 -0.222656 3.335938 -0.335938 3.234375 -0.453125 L 2.90625 -0.875 Z M 2.21875 -0.328125 "/></g></g></g><g fill="#ffffff" fill-opacity="1"><g transform="translate(61.858091, 21.025269)"><g><path d="M 4.875 1.171875 L 1.265625 2 L 0.6875 1.078125 L 2.984375 -1.828125 L 3.46875 -1.0625 L 1.703125 1.078125 L 4.390625 0.390625 Z M 4.875 1.171875 "/></g></g></g><g fill="#ffffff" fill-opacity="1"><g transform="translate(63.723152, 24.064826)"><g><path d="M 3.640625 -0.5625 L 0.53125 1.03125 L 0.140625 0.28125 L 3.25 -1.3125 Z M 3.640625 -0.5625 "/></g></g></g><g fill="#ffffff" fill-opacity="1"><g transform="translate(64.409779, 25.283491)"><g><path d="M 1.6875 -0.484375 C 2.007812 -0.617188 2.320312 -0.664062 2.625 -0.625 C 2.925781 -0.59375 3.195312 -0.476562 3.4375 -0.28125 C 3.6875 -0.0820312 3.867188 0.164062 3.984375 0.46875 C 4.140625 0.851562 4.171875 1.222656 4.078125 1.578125 C 3.984375 1.941406 3.785156 2.238281 3.484375 2.46875 L 3.125 1.59375 C 3.238281 1.476562 3.304688 1.347656 3.328125 1.203125 C 3.347656 1.054688 3.328125 0.90625 3.265625 0.75 C 3.171875 0.507812 3.007812 0.34375 2.78125 0.25 C 2.550781 0.164062 2.289062 0.1875 2 0.3125 C 1.71875 0.414062 1.523438 0.578125 1.421875 0.796875 C 1.316406 1.015625 1.3125 1.242188 1.40625 1.484375 C 1.46875 1.640625 1.554688 1.765625 1.671875 1.859375 C 1.796875 1.953125 1.9375 2.003906 2.09375 2.015625 L 2.453125 2.890625 C 2.046875 2.929688 1.6875 2.851562 1.375 2.65625 C 1.0625 2.46875 0.828125 2.179688 0.671875 1.796875 C 0.554688 1.492188 0.515625 1.1875 0.546875 0.875 C 0.585938 0.5625 0.707031 0.285156 0.90625 0.046875 C 1.101562 -0.179688 1.363281 -0.359375 1.6875 -0.484375 Z M 1.6875 -0.484375 "/></g></g></g><g fill="#ffffff" fill-opacity="1"><g transform="translate(65.751919, 28.725259)"><g><path d="M 3.015625 0.375 L 2.328125 0.5625 L 2.625 1.671875 L 2 1.84375 L 1.703125 0.734375 L 0.953125 0.9375 L 1.296875 2.203125 L 0.640625 2.375 L 0.078125 0.296875 L 3.453125 -0.609375 L 4.015625 1.46875 L 3.359375 1.640625 Z M 3.015625 0.375 "/></g></g></g><g fill="#ffffff" fill-opacity="1"><g transform="translate(66.448099, 31.240326)"><g><path d="M 0.21875 1.5625 C 0.175781 1.300781 0.179688 1.066406 0.234375 0.859375 C 0.285156 0.648438 0.378906 0.472656 0.515625 0.328125 C 0.648438 0.179688 0.832031 0.0820312 1.0625 0.03125 L 1.203125 0.921875 C 1.085938 0.960938 1 1.023438 0.9375 1.109375 C 0.875 1.191406 0.851562 1.296875 0.875 1.421875 C 0.894531 1.546875 0.941406 1.632812 1.015625 1.6875 C 1.085938 1.75 1.175781 1.773438 1.28125 1.765625 C 1.363281 1.753906 1.425781 1.71875 1.46875 1.65625 C 1.519531 1.59375 1.554688 1.515625 1.578125 1.421875 C 1.609375 1.335938 1.628906 1.210938 1.640625 1.046875 C 1.679688 0.804688 1.722656 0.613281 1.765625 0.46875 C 1.804688 0.320312 1.882812 0.1875 2 0.0625 C 2.113281 -0.0625 2.28125 -0.144531 2.5 -0.1875 C 2.820312 -0.238281 3.09375 -0.164062 3.3125 0.03125 C 3.539062 0.226562 3.679688 0.519531 3.734375 0.90625 C 3.796875 1.28125 3.753906 1.597656 3.609375 1.859375 C 3.472656 2.128906 3.242188 2.300781 2.921875 2.375 L 2.78125 1.453125 C 2.882812 1.421875 2.960938 1.363281 3.015625 1.28125 C 3.066406 1.195312 3.082031 1.097656 3.0625 0.984375 C 3.050781 0.878906 3.015625 0.800781 2.953125 0.75 C 2.890625 0.695312 2.804688 0.679688 2.703125 0.703125 C 2.585938 0.710938 2.503906 0.773438 2.453125 0.890625 C 2.410156 1.003906 2.367188 1.1875 2.328125 1.4375 C 2.296875 1.664062 2.253906 1.851562 2.203125 2 C 2.160156 2.15625 2.082031 2.289062 1.96875 2.40625 C 1.851562 2.53125 1.691406 2.609375 1.484375 2.640625 C 1.285156 2.671875 1.097656 2.648438 0.921875 2.578125 C 0.742188 2.503906 0.59375 2.378906 0.46875 2.203125 C 0.34375 2.023438 0.257812 1.8125 0.21875 1.5625 Z M 0.21875 1.5625 "/></g></g></g><g fill="#ffffff" fill-opacity="1"><g transform="translate(66.899885, 34.224428)"><g/></g></g><g fill="#af1840" fill-opacity="1"><g transform="translate(65.239295, 44.271101)"><g><path d="M 0.15625 -0.546875 C 0.25 -0.617188 0.289062 -0.648438 0.28125 -0.640625 C 0.539062 -0.859375 0.742188 -1.035156 0.890625 -1.171875 C 1.035156 -1.304688 1.160156 -1.445312 1.265625 -1.59375 C 1.367188 -1.75 1.421875 -1.898438 1.421875 -2.046875 C 1.421875 -2.148438 1.394531 -2.234375 1.34375 -2.296875 C 1.300781 -2.359375 1.226562 -2.390625 1.125 -2.390625 C 1.019531 -2.390625 0.9375 -2.347656 0.875 -2.265625 C 0.820312 -2.191406 0.796875 -2.085938 0.796875 -1.953125 L 0.140625 -1.953125 C 0.148438 -2.179688 0.195312 -2.367188 0.28125 -2.515625 C 0.375 -2.671875 0.492188 -2.78125 0.640625 -2.84375 C 0.796875 -2.914062 0.96875 -2.953125 1.15625 -2.953125 C 1.46875 -2.953125 1.703125 -2.867188 1.859375 -2.703125 C 2.023438 -2.546875 2.109375 -2.34375 2.109375 -2.09375 C 2.109375 -1.800781 2.007812 -1.535156 1.8125 -1.296875 C 1.625 -1.054688 1.378906 -0.820312 1.078125 -0.59375 L 2.140625 -0.59375 L 2.140625 -0.046875 L 0.15625 -0.046875 Z M 0.15625 -0.546875 "/></g></g></g><g fill="#af1840" fill-opacity="1"><g transform="translate(67.978503, 44.271101)"><g><path d="M 0.171875 -1.484375 C 0.171875 -1.941406 0.257812 -2.300781 0.4375 -2.5625 C 0.613281 -2.820312 0.898438 -2.953125 1.296875 -2.953125 C 1.679688 -2.953125 1.960938 -2.820312 2.140625 -2.5625 C 2.316406 -2.300781 2.40625 -1.941406 2.40625 -1.484375 C 2.40625 -1.023438 2.316406 -0.664062 2.140625 -0.40625 C 1.960938 -0.144531 1.679688 -0.015625 1.296875 -0.015625 C 0.898438 -0.015625 0.613281 -0.144531 0.4375 -0.40625 C 0.257812 -0.664062 0.171875 -1.023438 0.171875 -1.484375 Z M 1.75 -1.484375 C 1.75 -1.753906 1.71875 -1.960938 1.65625 -2.109375 C 1.59375 -2.253906 1.472656 -2.328125 1.296875 -2.328125 C 1.109375 -2.328125 0.984375 -2.253906 0.921875 -2.109375 C 0.867188 -1.960938 0.84375 -1.753906 0.84375 -1.484375 C 0.84375 -1.304688 0.851562 -1.15625 0.875 -1.03125 C 0.894531 -0.914062 0.9375 -0.820312 1 -0.75 C 1.070312 -0.675781 1.171875 -0.640625 1.296875 -0.640625 C 1.421875 -0.640625 1.515625 -0.675781 1.578125 -0.75 C 1.640625 -0.820312 1.679688 -0.914062 1.703125 -1.03125 C 1.734375 -1.15625 1.75 -1.304688 1.75 -1.484375 Z M 1.75 -1.484375 "/></g></g></g><g fill="#af1840" fill-opacity="1"><g transform="translate(71.039253, 44.271101)"><g><path d="M 0.15625 -0.546875 C 0.25 -0.617188 0.289062 -0.648438 0.28125 -0.640625 C 0.539062 -0.859375 0.742188 -1.035156 0.890625 -1.171875 C 1.035156 -1.304688 1.160156 -1.445312 1.265625 -1.59375 C 1.367188 -1.75 1.421875 -1.898438 1.421875 -2.046875 C 1.421875 -2.148438 1.394531 -2.234375 1.34375 -2.296875 C 1.300781 -2.359375 1.226562 -2.390625 1.125 -2.390625 C 1.019531 -2.390625 0.9375 -2.347656 0.875 -2.265625 C 0.820312 -2.191406 0.796875 -2.085938 0.796875 -1.953125 L 0.140625 -1.953125 C 0.148438 -2.179688 0.195312 -2.367188 0.28125 -2.515625 C 0.375 -2.671875 0.492188 -2.78125 0.640625 -2.84375 C 0.796875 -2.914062 0.96875 -2.953125 1.15625 -2.953125 C 1.46875 -2.953125 1.703125 -2.867188 1.859375 -2.703125 C 2.023438 -2.546875 2.109375 -2.34375 2.109375 -2.09375 C 2.109375 -1.800781 2.007812 -1.535156 1.8125 -1.296875 C 1.625 -1.054688 1.378906 -0.820312 1.078125 -0.59375 L 2.140625 -0.59375 L 2.140625 -0.046875 L 0.15625 -0.046875 Z M 0.15625 -0.546875 "/></g></g></g><g fill="#af1840" fill-opacity="1"><g transform="translate(73.778462, 44.271101)"><g><path d="M 0.1875 -0.515625 L 0.1875 -1.0625 L 1.453125 -2.859375 L 2.203125 -2.859375 L 2.203125 -1.109375 L 2.53125 -1.109375 L 2.53125 -0.515625 L 2.203125 -0.515625 L 2.203125 0 L 1.53125 0 L 1.53125 -0.515625 Z M 1.578125 -2.109375 L 0.90625 -1.109375 L 1.578125 -1.109375 Z M 1.578125 -2.109375 "/></g></g></g><g fill="#af1840" fill-opacity="1"><g transform="translate(5.215372, 43.226457)"><g><path d="M 0.921875 -2.25 L 0.921875 -1.671875 L 1.828125 -1.671875 L 1.828125 -1.15625 L 0.921875 -1.15625 L 0.921875 -0.546875 L 1.953125 -0.546875 L 1.953125 0 L 0.25 0 L 0.25 -2.78125 L 1.953125 -2.78125 L 1.953125 -2.25 Z M 0.921875 -2.25 "/></g></g></g><g fill="#af1840" fill-opacity="1"><g transform="translate(7.835492, 43.226457)"><g><path d="M 1.25 0.03125 C 1.050781 0.03125 0.867188 0 0.703125 -0.0625 C 0.546875 -0.132812 0.414062 -0.234375 0.3125 -0.359375 C 0.21875 -0.492188 0.171875 -0.648438 0.171875 -0.828125 L 0.890625 -0.828125 C 0.898438 -0.722656 0.9375 -0.644531 1 -0.59375 C 1.0625 -0.539062 1.140625 -0.515625 1.234375 -0.515625 C 1.335938 -0.515625 1.414062 -0.535156 1.46875 -0.578125 C 1.53125 -0.628906 1.5625 -0.695312 1.5625 -0.78125 C 1.5625 -0.84375 1.535156 -0.894531 1.484375 -0.9375 C 1.441406 -0.988281 1.382812 -1.03125 1.3125 -1.0625 C 1.25 -1.09375 1.15625 -1.125 1.03125 -1.15625 C 0.851562 -1.21875 0.707031 -1.273438 0.59375 -1.328125 C 0.476562 -1.378906 0.378906 -1.457031 0.296875 -1.5625 C 0.210938 -1.675781 0.171875 -1.820312 0.171875 -2 C 0.171875 -2.257812 0.265625 -2.460938 0.453125 -2.609375 C 0.640625 -2.753906 0.882812 -2.828125 1.1875 -2.828125 C 1.5 -2.828125 1.75 -2.753906 1.9375 -2.609375 C 2.125 -2.460938 2.222656 -2.257812 2.234375 -2 L 1.5 -2 C 1.5 -2.082031 1.46875 -2.148438 1.40625 -2.203125 C 1.34375 -2.253906 1.265625 -2.28125 1.171875 -2.28125 C 1.085938 -2.28125 1.019531 -2.257812 0.96875 -2.21875 C 0.914062 -2.175781 0.890625 -2.113281 0.890625 -2.03125 C 0.890625 -1.9375 0.929688 -1.863281 1.015625 -1.8125 C 1.097656 -1.769531 1.234375 -1.71875 1.421875 -1.65625 C 1.597656 -1.59375 1.742188 -1.53125 1.859375 -1.46875 C 1.972656 -1.414062 2.066406 -1.335938 2.140625 -1.234375 C 2.222656 -1.128906 2.265625 -0.992188 2.265625 -0.828125 C 2.265625 -0.671875 2.222656 -0.523438 2.140625 -0.390625 C 2.066406 -0.265625 1.953125 -0.160156 1.796875 -0.078125 C 1.640625 -0.00390625 1.457031 0.03125 1.25 0.03125 Z M 1.25 0.03125 "/></g></g></g><g fill="#af1840" fill-opacity="1"><g transform="translate(10.749366, 43.226457)"><g><path d="M 2.25 -2.78125 L 2.25 -2.25 L 1.515625 -2.25 L 1.515625 0 L 0.828125 0 L 0.828125 -2.25 L 0.09375 -2.25 L 0.09375 -2.78125 Z M 2.25 -2.78125 "/></g></g></g><g clip-path="url(#482a577daf)"><path fill="#0a3666" d="M 39.28125 55.71875 C 40.070312 55.996094 40.878906 56.191406 41.675781 56.3125 C 39.941406 56.445312 38.15625 56.226562 36.40625 55.625 C 29.523438 53.246094 25.777344 45.699219 28.15625 38.804688 C 28.519531 37.753906 28.898438 36.910156 29.550781 35.859375 C 34.296875 27.21875 30.066406 20.476562 30.066406 20.476562 C 30.066406 20.476562 35.542969 24.421875 33.664062 31.984375 C 36.9375 29.925781 41.082031 29.308594 45.019531 30.671875 C 47.058594 31.375 48.816406 32.527344 50.214844 33.988281 C 49.316406 33.40625 48.328125 32.929688 47.269531 32.558594 C 40.484375 30.214844 33.199219 33.5 30.988281 39.902344 C 28.789062 46.292969 32.496094 53.375 39.28125 55.71875 Z M 39.28125 55.71875 " fill-opacity="1" fill-rule="nonzero"/></g><path fill="#0a3666" d="M 40.84375 24.613281 C 40.984375 24.902344 41.0625 25.207031 41.082031 25.527344 C 41.101562 25.847656 41.058594 26.160156 40.957031 26.464844 C 40.851562 26.769531 40.691406 27.039062 40.476562 27.28125 C 40.265625 27.519531 40.015625 27.710938 39.726562 27.851562 C 39.4375 27.992188 39.132812 28.074219 38.808594 28.09375 C 38.488281 28.113281 38.175781 28.070312 37.875 27.964844 C 37.570312 27.859375 37.296875 27.699219 37.058594 27.488281 C 36.816406 27.273438 36.625 27.023438 36.484375 26.734375 C 36.34375 26.445312 36.265625 26.140625 36.246094 25.820312 C 36.226562 25.5 36.269531 25.1875 36.375 24.882812 C 36.480469 24.578125 36.636719 24.304688 36.851562 24.066406 C 37.0625 23.824219 37.316406 23.632812 37.605469 23.492188 C 37.894531 23.351562 38.199219 23.273438 38.519531 23.253906 C 38.839844 23.234375 39.152344 23.277344 39.457031 23.382812 C 39.757812 23.488281 40.03125 23.644531 40.273438 23.859375 C 40.511719 24.074219 40.703125 24.324219 40.84375 24.613281 Z M 40.84375 24.613281 " fill-opacity="1" fill-rule="nonzero"/><g clip-path="url(#f28269a5ad)"><path fill="#253e17" d="M 51.261719 48.898438 C 48.0625 53.101562 45.898438 52.496094 43.894531 52.027344 C 43.894531 52.027344 46.617188 51.792969 47.609375 50.03125 C 47.996094 49.347656 47.203125 48.78125 46.378906 49.617188 C 45.550781 50.453125 43.375 49.871094 42.089844 49.746094 C 40.804688 49.625 39.644531 49.390625 38.707031 51.480469 C 33.753906 48.824219 31.328125 43.296875 33.121094 38.101562 C 33.148438 38.023438 33.179688 37.933594 33.207031 37.855469 C 32.722656 38.585938 32.324219 39.386719 32.023438 40.25 C 30.015625 46.070312 33.425781 52.546875 39.636719 54.695312 C 41.863281 55.464844 44.042969 55.496094 46.167969 54.921875 C 49.214844 54.09375 51.53125 51.539062 52.8125 48.476562 C 52.253906 48.261719 51.617188 48.425781 51.261719 48.898438 Z M 51.261719 48.898438 " fill-opacity="1" fill-rule="nonzero"/></g><g fill="#af1840" fill-opacity="1"><g transform="translate(36.432045, 46.697875)"><g><path d="M 7.390625 -5.125 C 7.992188 -4.976562 8.460938 -4.6875 8.796875 -4.25 C 9.128906 -3.8125 9.296875 -3.304688 9.296875 -2.734375 C 9.296875 -1.859375 9.003906 -1.179688 8.421875 -0.703125 C 7.847656 -0.234375 7.019531 0 5.9375 0 L 0.703125 0 L 0.703125 -9.984375 L 5.796875 -9.984375 C 6.816406 -9.984375 7.617188 -9.757812 8.203125 -9.3125 C 8.785156 -8.875 9.078125 -8.234375 9.078125 -7.390625 C 9.078125 -6.804688 8.921875 -6.3125 8.609375 -5.90625 C 8.304688 -5.507812 7.898438 -5.25 7.390625 -5.125 Z M 3.84375 -6.09375 L 5.046875 -6.09375 C 5.328125 -6.09375 5.535156 -6.148438 5.671875 -6.265625 C 5.816406 -6.378906 5.890625 -6.550781 5.890625 -6.78125 C 5.890625 -7.03125 5.816406 -7.210938 5.671875 -7.328125 C 5.535156 -7.441406 5.328125 -7.5 5.046875 -7.5 L 3.84375 -7.5 Z M 5.265625 -2.515625 C 5.546875 -2.515625 5.753906 -2.566406 5.890625 -2.671875 C 6.023438 -2.785156 6.09375 -2.960938 6.09375 -3.203125 C 6.09375 -3.679688 5.816406 -3.921875 5.265625 -3.921875 L 3.84375 -3.921875 L 3.84375 -2.515625 Z M 5.265625 -2.515625 "/></g></g></g><g fill="#000000" fill-opacity="1"><g transform="translate(79.368461, 23.844318)"><g><path d="M 7.96875 -5.890625 C 8.632812 -5.742188 9.164062 -5.410156 9.5625 -4.890625 C 9.96875 -4.378906 10.171875 -3.789062 10.171875 -3.125 C 10.171875 -2.164062 9.832031 -1.40625 9.15625 -0.84375 C 8.488281 -0.28125 7.554688 0 6.359375 0 L 1.015625 0 L 1.015625 -11.484375 L 6.1875 -11.484375 C 7.351562 -11.484375 8.265625 -11.210938 8.921875 -10.671875 C 9.578125 -10.140625 9.90625 -9.414062 9.90625 -8.5 C 9.90625 -7.832031 9.726562 -7.273438 9.375 -6.828125 C 9.019531 -6.378906 8.550781 -6.066406 7.96875 -5.890625 Z M 3.8125 -6.84375 L 5.640625 -6.84375 C 6.097656 -6.84375 6.445312 -6.941406 6.6875 -7.140625 C 6.9375 -7.335938 7.0625 -7.632812 7.0625 -8.03125 C 7.0625 -8.425781 6.9375 -8.726562 6.6875 -8.9375 C 6.445312 -9.144531 6.097656 -9.25 5.640625 -9.25 L 3.8125 -9.25 Z M 5.875 -2.25 C 6.34375 -2.25 6.703125 -2.351562 6.953125 -2.5625 C 7.210938 -2.78125 7.34375 -3.09375 7.34375 -3.5 C 7.34375 -3.90625 7.207031 -4.222656 6.9375 -4.453125 C 6.675781 -4.679688 6.3125 -4.796875 5.84375 -4.796875 L 3.8125 -4.796875 L 3.8125 -2.25 Z M 5.875 -2.25 "/></g></g></g><g fill="#000000" fill-opacity="1"><g transform="translate(90.147403, 23.844318)"><g><path d="M 8.15625 -2.03125 L 3.875 -2.03125 L 3.1875 0 L 0.265625 0 L 4.421875 -11.484375 L 7.65625 -11.484375 L 11.8125 0 L 8.84375 0 Z M 7.4375 -4.1875 L 6.015625 -8.390625 L 4.609375 -4.1875 Z M 7.4375 -4.1875 "/></g></g></g><g fill="#000000" fill-opacity="1"><g transform="translate(102.202158, 23.844318)"><g><path d="M 11.28125 0 L 8.484375 0 L 3.8125 -7.078125 L 3.8125 0 L 1.015625 0 L 1.015625 -11.484375 L 3.8125 -11.484375 L 8.484375 -4.375 L 8.484375 -11.484375 L 11.28125 -11.484375 Z M 11.28125 0 "/></g></g></g><g fill="#000000" fill-opacity="1"><g transform="translate(114.502262, 23.844318)"><g><path d="M 9.1875 1.96875 L 7.71875 -0.015625 C 7.28125 0.0664062 6.859375 0.109375 6.453125 0.109375 C 5.367188 0.109375 4.375 -0.140625 3.46875 -0.640625 C 2.570312 -1.140625 1.859375 -1.835938 1.328125 -2.734375 C 0.804688 -3.640625 0.546875 -4.65625 0.546875 -5.78125 C 0.546875 -6.894531 0.804688 -7.898438 1.328125 -8.796875 C 1.859375 -9.691406 2.570312 -10.390625 3.46875 -10.890625 C 4.375 -11.390625 5.367188 -11.640625 6.453125 -11.640625 C 7.523438 -11.640625 8.507812 -11.390625 9.40625 -10.890625 C 10.3125 -10.390625 11.019531 -9.691406 11.53125 -8.796875 C 12.050781 -7.898438 12.3125 -6.894531 12.3125 -5.78125 C 12.3125 -4.789062 12.113281 -3.890625 11.71875 -3.078125 C 11.320312 -2.265625 10.769531 -1.59375 10.0625 -1.0625 L 12.578125 1.96875 Z M 3.40625 -5.78125 C 3.40625 -4.757812 3.679688 -3.945312 4.234375 -3.34375 C 4.785156 -2.738281 5.523438 -2.4375 6.453125 -2.4375 C 7.359375 -2.4375 8.085938 -2.738281 8.640625 -3.34375 C 9.191406 -3.957031 9.46875 -4.769531 9.46875 -5.78125 C 9.46875 -6.789062 9.191406 -7.597656 8.640625 -8.203125 C 8.085938 -8.804688 7.359375 -9.109375 6.453125 -9.109375 C 5.523438 -9.109375 4.785156 -8.804688 4.234375 -8.203125 C 3.679688 -7.609375 3.40625 -6.800781 3.40625 -5.78125 Z M 3.40625 -5.78125 "/></g></g></g><g fill="#000000" fill-opacity="1"><g transform="translate(127.391198, 23.844318)"><g><path d="M 3.765625 -11.484375 L 3.765625 -4.609375 C 3.765625 -3.921875 3.929688 -3.390625 4.265625 -3.015625 C 4.609375 -2.648438 5.109375 -2.46875 5.765625 -2.46875 C 6.410156 -2.46875 6.90625 -2.648438 7.25 -3.015625 C 7.601562 -3.390625 7.78125 -3.921875 7.78125 -4.609375 L 7.78125 -11.484375 L 10.578125 -11.484375 L 10.578125 -4.625 C 10.578125 -3.601562 10.359375 -2.738281 9.921875 -2.03125 C 9.492188 -1.320312 8.910156 -0.785156 8.171875 -0.421875 C 7.429688 -0.0664062 6.609375 0.109375 5.703125 0.109375 C 4.804688 0.109375 4 -0.0664062 3.28125 -0.421875 C 2.5625 -0.773438 1.992188 -1.304688 1.578125 -2.015625 C 1.171875 -2.734375 0.96875 -3.601562 0.96875 -4.625 L 0.96875 -11.484375 Z M 3.765625 -11.484375 "/></g></g></g><g fill="#000000" fill-opacity="1"><g transform="translate(138.922545, 23.844318)"><g><path d="M 3.8125 -9.25 L 3.8125 -6.921875 L 7.5625 -6.921875 L 7.5625 -4.765625 L 3.8125 -4.765625 L 3.8125 -2.234375 L 8.046875 -2.234375 L 8.046875 0 L 1.015625 0 L 1.015625 -11.484375 L 8.046875 -11.484375 L 8.046875 -9.25 Z M 3.8125 -9.25 "/></g></g></g><g fill="#000000" fill-opacity="1"><g transform="translate(147.771414, 23.844318)"><g><path d="M 6.875 0 L 4.484375 -4.328125 L 3.8125 -4.328125 L 3.8125 0 L 1.015625 0 L 1.015625 -11.484375 L 5.703125 -11.484375 C 6.609375 -11.484375 7.378906 -11.320312 8.015625 -11 C 8.660156 -10.6875 9.140625 -10.253906 9.453125 -9.703125 C 9.773438 -9.160156 9.9375 -8.550781 9.9375 -7.875 C 9.9375 -7.101562 9.71875 -6.414062 9.28125 -5.8125 C 8.851562 -5.21875 8.21875 -4.796875 7.375 -4.546875 L 10.03125 0 Z M 3.8125 -6.3125 L 5.546875 -6.3125 C 6.054688 -6.3125 6.4375 -6.4375 6.6875 -6.6875 C 6.945312 -6.9375 7.078125 -7.289062 7.078125 -7.75 C 7.078125 -8.1875 6.945312 -8.53125 6.6875 -8.78125 C 6.4375 -9.03125 6.054688 -9.15625 5.546875 -9.15625 L 3.8125 -9.15625 Z M 3.8125 -6.3125 "/></g></g></g><g fill="#000000" fill-opacity="1"><g transform="translate(158.435857, 23.844318)"><g><path d="M 6.453125 0.109375 C 5.367188 0.109375 4.375 -0.140625 3.46875 -0.640625 C 2.570312 -1.140625 1.859375 -1.835938 1.328125 -2.734375 C 0.804688 -3.640625 0.546875 -4.65625 0.546875 -5.78125 C 0.546875 -6.894531 0.804688 -7.898438 1.328125 -8.796875 C 1.859375 -9.691406 2.570312 -10.390625 3.46875 -10.890625 C 4.375 -11.390625 5.367188 -11.640625 6.453125 -11.640625 C 7.523438 -11.640625 8.507812 -11.390625 9.40625 -10.890625 C 10.3125 -10.390625 11.019531 -9.691406 11.53125 -8.796875 C 12.050781 -7.898438 12.3125 -6.894531 12.3125 -5.78125 C 12.3125 -4.65625 12.050781 -3.640625 11.53125 -2.734375 C 11.007812 -1.835938 10.300781 -1.140625 9.40625 -0.640625 C 8.507812 -0.140625 7.523438 0.109375 6.453125 0.109375 Z M 6.453125 -2.4375 C 7.359375 -2.4375 8.085938 -2.738281 8.640625 -3.34375 C 9.191406 -3.957031 9.46875 -4.769531 9.46875 -5.78125 C 9.46875 -6.789062 9.191406 -7.597656 8.640625 -8.203125 C 8.085938 -8.804688 7.359375 -9.109375 6.453125 -9.109375 C 5.523438 -9.109375 4.785156 -8.804688 4.234375 -8.203125 C 3.679688 -7.609375 3.40625 -6.800781 3.40625 -5.78125 C 3.40625 -4.757812 3.679688 -3.945312 4.234375 -3.34375 C 4.785156 -2.738281 5.523438 -2.4375 6.453125 -2.4375 Z M 6.453125 -2.4375 "/></g></g></g><g fill="#000000" fill-opacity="1"><g transform="translate(171.292081, 23.844318)"><g><path d="M 10.953125 -11.484375 L 10.953125 0 L 8.15625 0 L 8.15625 -4.734375 L 3.8125 -4.734375 L 3.8125 0 L 1.015625 0 L 1.015625 -11.484375 L 3.8125 -11.484375 L 3.8125 -6.984375 L 8.15625 -6.984375 L 8.15625 -11.484375 Z M 10.953125 -11.484375 "/></g></g></g><g fill="#000000" fill-opacity="1"><g transform="translate(183.248688, 23.844318)"><g><path d="M 8.15625 -2.03125 L 3.875 -2.03125 L 3.1875 0 L 0.265625 0 L 4.421875 -11.484375 L 7.65625 -11.484375 L 11.8125 0 L 8.84375 0 Z M 7.4375 -4.1875 L 6.015625 -8.390625 L 4.609375 -4.1875 Z M 7.4375 -4.1875 "/></g></g></g><g fill="#000000" fill-opacity="1"><g transform="translate(195.303444, 23.844318)"><g><path d="M 11.28125 0 L 8.484375 0 L 3.8125 -7.078125 L 3.8125 0 L 1.015625 0 L 1.015625 -11.484375 L 3.8125 -11.484375 L 8.484375 -4.375 L 8.484375 -11.484375 L 11.28125 -11.484375 Z M 11.28125 0 "/></g></g></g><g fill="#000000" fill-opacity="1"><g transform="translate(207.603547, 23.844318)"><g/></g></g><g fill="#000000" fill-opacity="1"><g transform="translate(211.071132, 23.844318)"><g><path d="M 10.953125 -11.484375 L 10.953125 0 L 8.15625 0 L 8.15625 -4.734375 L 3.8125 -4.734375 L 3.8125 0 L 1.015625 0 L 1.015625 -11.484375 L 3.8125 -11.484375 L 3.8125 -6.984375 L 8.15625 -6.984375 L 8.15625 -11.484375 Z M 10.953125 -11.484375 "/></g></g></g><g fill="#000000" fill-opacity="1"><g transform="translate(223.02774, 23.844318)"><g><path d="M 3.8125 -9.25 L 3.8125 -6.921875 L 7.5625 -6.921875 L 7.5625 -4.765625 L 3.8125 -4.765625 L 3.8125 -2.234375 L 8.046875 -2.234375 L 8.046875 0 L 1.015625 0 L 1.015625 -11.484375 L 8.046875 -11.484375 L 8.046875 -9.25 Z M 3.8125 -9.25 "/></g></g></g><g fill="#000000" fill-opacity="1"><g transform="translate(231.876609, 23.844318)"><g><path d="M 8.15625 -2.03125 L 3.875 -2.03125 L 3.1875 0 L 0.265625 0 L 4.421875 -11.484375 L 7.65625 -11.484375 L 11.8125 0 L 8.84375 0 Z M 7.4375 -4.1875 L 6.015625 -8.390625 L 4.609375 -4.1875 Z M 7.4375 -4.1875 "/></g></g></g><g fill="#000000" fill-opacity="1"><g transform="translate(243.931364, 23.844318)"><g><path d="M 3.8125 -2.15625 L 7.46875 -2.15625 L 7.46875 0 L 1.015625 0 L 1.015625 -11.484375 L 3.8125 -11.484375 Z M 3.8125 -2.15625 "/></g></g></g><g fill="#000000" fill-opacity="1"><g transform="translate(251.733416, 23.844318)"><g><path d="M 9.28125 -11.484375 L 9.28125 -9.25 L 6.234375 -9.25 L 6.234375 0 L 3.4375 0 L 3.4375 -9.25 L 0.390625 -9.25 L 0.390625 -11.484375 Z M 9.28125 -11.484375 "/></g></g></g><g fill="#000000" fill-opacity="1"><g transform="translate(261.400116, 23.844318)"><g><path d="M 10.953125 -11.484375 L 10.953125 0 L 8.15625 0 L 8.15625 -4.734375 L 3.8125 -4.734375 L 3.8125 0 L 1.015625 0 L 1.015625 -11.484375 L 3.8125 -11.484375 L 3.8125 -6.984375 L 8.15625 -6.984375 L 8.15625 -11.484375 Z M 10.953125 -11.484375 "/></g></g></g><g fill="#000000" fill-opacity="1"><g transform="translate(79.368461, 39.580255)"><g><path d="M 5.171875 0.109375 C 4.328125 0.109375 3.570312 -0.0234375 2.90625 -0.296875 C 2.238281 -0.566406 1.707031 -0.96875 1.3125 -1.5 C 0.914062 -2.039062 0.707031 -2.6875 0.6875 -3.4375 L 3.671875 -3.4375 C 3.710938 -3.007812 3.859375 -2.679688 4.109375 -2.453125 C 4.359375 -2.234375 4.6875 -2.125 5.09375 -2.125 C 5.5 -2.125 5.820312 -2.21875 6.0625 -2.40625 C 6.300781 -2.601562 6.421875 -2.867188 6.421875 -3.203125 C 6.421875 -3.484375 6.328125 -3.71875 6.140625 -3.90625 C 5.953125 -4.09375 5.71875 -4.242188 5.4375 -4.359375 C 5.15625 -4.484375 4.757812 -4.625 4.25 -4.78125 C 3.507812 -5.007812 2.90625 -5.238281 2.4375 -5.46875 C 1.96875 -5.695312 1.5625 -6.035156 1.21875 -6.484375 C 0.882812 -6.929688 0.71875 -7.515625 0.71875 -8.234375 C 0.71875 -9.296875 1.101562 -10.128906 1.875 -10.734375 C 2.65625 -11.335938 3.664062 -11.640625 4.90625 -11.640625 C 6.175781 -11.640625 7.195312 -11.335938 7.96875 -10.734375 C 8.738281 -10.128906 9.148438 -9.289062 9.203125 -8.21875 L 6.1875 -8.21875 C 6.164062 -8.582031 6.03125 -8.867188 5.78125 -9.078125 C 5.53125 -9.296875 5.207031 -9.40625 4.8125 -9.40625 C 4.46875 -9.40625 4.191406 -9.3125 3.984375 -9.125 C 3.785156 -8.945312 3.6875 -8.691406 3.6875 -8.359375 C 3.6875 -7.984375 3.859375 -7.691406 4.203125 -7.484375 C 4.554688 -7.285156 5.101562 -7.066406 5.84375 -6.828125 C 6.582031 -6.578125 7.179688 -6.335938 7.640625 -6.109375 C 8.109375 -5.878906 8.507812 -5.546875 8.84375 -5.109375 C 9.1875 -4.671875 9.359375 -4.109375 9.359375 -3.421875 C 9.359375 -2.765625 9.191406 -2.164062 8.859375 -1.625 C 8.523438 -1.09375 8.039062 -0.671875 7.40625 -0.359375 C 6.78125 -0.046875 6.035156 0.109375 5.171875 0.109375 Z M 5.171875 0.109375 "/></g></g></g><g fill="#000000" fill-opacity="1"><g transform="translate(89.42772, 39.580255)"><g><path d="M 9.28125 -11.484375 L 9.28125 -9.25 L 6.234375 -9.25 L 6.234375 0 L 3.4375 0 L 3.4375 -9.25 L 0.390625 -9.25 L 0.390625 -11.484375 Z M 9.28125 -11.484375 "/></g></g></g><g fill="#000000" fill-opacity="1"><g transform="translate(99.09442, 39.580255)"><g><path d="M 8.15625 -2.03125 L 3.875 -2.03125 L 3.1875 0 L 0.265625 0 L 4.421875 -11.484375 L 7.65625 -11.484375 L 11.8125 0 L 8.84375 0 Z M 7.4375 -4.1875 L 6.015625 -8.390625 L 4.609375 -4.1875 Z M 7.4375 -4.1875 "/></g></g></g><g fill="#000000" fill-opacity="1"><g transform="translate(111.149176, 39.580255)"><g><path d="M 9.28125 -11.484375 L 9.28125 -9.25 L 6.234375 -9.25 L 6.234375 0 L 3.4375 0 L 3.4375 -9.25 L 0.390625 -9.25 L 0.390625 -11.484375 Z M 9.28125 -11.484375 "/></g></g></g><g fill="#000000" fill-opacity="1"><g transform="translate(120.815875, 39.580255)"><g><path d="M 3.8125 -11.484375 L 3.8125 0 L 1.015625 0 L 1.015625 -11.484375 Z M 3.8125 -11.484375 "/></g></g></g><g fill="#000000" fill-opacity="1"><g transform="translate(125.64105, 39.580255)"><g><path d="M 6.453125 0.109375 C 5.367188 0.109375 4.375 -0.140625 3.46875 -0.640625 C 2.570312 -1.140625 1.859375 -1.835938 1.328125 -2.734375 C 0.804688 -3.640625 0.546875 -4.65625 0.546875 -5.78125 C 0.546875 -6.894531 0.804688 -7.898438 1.328125 -8.796875 C 1.859375 -9.691406 2.570312 -10.390625 3.46875 -10.890625 C 4.375 -11.390625 5.367188 -11.640625 6.453125 -11.640625 C 7.523438 -11.640625 8.507812 -11.390625 9.40625 -10.890625 C 10.3125 -10.390625 11.019531 -9.691406 11.53125 -8.796875 C 12.050781 -7.898438 12.3125 -6.894531 12.3125 -5.78125 C 12.3125 -4.65625 12.050781 -3.640625 11.53125 -2.734375 C 11.007812 -1.835938 10.300781 -1.140625 9.40625 -0.640625 C 8.507812 -0.140625 7.523438 0.109375 6.453125 0.109375 Z M 6.453125 -2.4375 C 7.359375 -2.4375 8.085938 -2.738281 8.640625 -3.34375 C 9.191406 -3.957031 9.46875 -4.769531 9.46875 -5.78125 C 9.46875 -6.789062 9.191406 -7.597656 8.640625 -8.203125 C 8.085938 -8.804688 7.359375 -9.109375 6.453125 -9.109375 C 5.523438 -9.109375 4.785156 -8.804688 4.234375 -8.203125 C 3.679688 -7.609375 3.40625 -6.800781 3.40625 -5.78125 C 3.40625 -4.757812 3.679688 -3.945312 4.234375 -3.34375 C 4.785156 -2.738281 5.523438 -2.4375 6.453125 -2.4375 Z M 6.453125 -2.4375 "/></g></g></g><g fill="#000000" fill-opacity="1"><g transform="translate(138.497274, 39.580255)"><g><path d="M 11.28125 0 L 8.484375 0 L 3.8125 -7.078125 L 3.8125 0 L 1.015625 0 L 1.015625 -11.484375 L 3.8125 -11.484375 L 8.484375 -4.375 L 8.484375 -11.484375 L 11.28125 -11.484375 Z M 11.28125 0 "/></g></g></g><g fill="#000000" fill-opacity="1"><g transform="translate(79.972103, 51.628156)"><g><path d="M 1.078125 0 L 1.078125 -8.3125 L 4.625 -8.3125 C 5.132812 -8.3125 5.566406 -8.226562 5.921875 -8.0625 C 6.273438 -7.90625 6.539062 -7.675781 6.71875 -7.375 C 6.90625 -7.082031 7 -6.734375 7 -6.328125 C 7 -5.960938 6.910156 -5.640625 6.734375 -5.359375 C 6.554688 -5.078125 6.300781 -4.847656 5.96875 -4.671875 L 5.96875 -4.5625 C 6.488281 -4.425781 6.890625 -4.175781 7.171875 -3.8125 C 7.460938 -3.457031 7.609375 -3.015625 7.609375 -2.484375 C 7.609375 -1.691406 7.367188 -1.078125 6.890625 -0.640625 C 6.410156 -0.210938 5.695312 0 4.75 0 Z M 4.28125 -5 C 5.050781 -5 5.4375 -5.34375 5.4375 -6.03125 C 5.4375 -6.382812 5.335938 -6.644531 5.140625 -6.8125 C 4.953125 -6.988281 4.664062 -7.078125 4.28125 -7.078125 L 2.71875 -7.078125 L 2.71875 -5 Z M 4.59375 -1.296875 C 5.5 -1.296875 5.953125 -1.707031 5.953125 -2.53125 C 5.953125 -3.363281 5.5 -3.78125 4.59375 -3.78125 L 2.71875 -3.78125 L 2.71875 -1.296875 Z M 4.59375 -1.296875 "/></g></g></g><g fill="#000000" fill-opacity="1"><g transform="translate(88.102102, 51.628156)"><g><path d="M 1.078125 0 L 1.078125 -8.3125 L 4.421875 -8.3125 C 5.273438 -8.3125 5.921875 -8.113281 6.359375 -7.71875 C 6.796875 -7.320312 7.015625 -6.773438 7.015625 -6.078125 C 7.015625 -5.566406 6.882812 -5.148438 6.625 -4.828125 C 6.375 -4.515625 5.992188 -4.269531 5.484375 -4.09375 L 5.484375 -3.984375 C 5.753906 -3.867188 5.96875 -3.695312 6.125 -3.46875 C 6.28125 -3.25 6.429688 -2.921875 6.578125 -2.484375 L 7.40625 0 L 5.71875 0 L 4.90625 -2.484375 C 4.820312 -2.734375 4.726562 -2.925781 4.625 -3.0625 C 4.519531 -3.207031 4.382812 -3.3125 4.21875 -3.375 C 4.0625 -3.4375 3.859375 -3.46875 3.609375 -3.46875 L 2.71875 -3.46875 L 2.71875 0 Z M 4.21875 -4.765625 C 5.007812 -4.765625 5.40625 -5.132812 5.40625 -5.875 C 5.40625 -6.632812 5.007812 -7.015625 4.21875 -7.015625 L 2.71875 -7.015625 L 2.71875 -4.765625 Z M 4.21875 -4.765625 "/></g></g></g><g fill="#000000" fill-opacity="1"><g transform="translate(95.873934, 51.628156)"><g><path d="M 4.03125 0.125 C 3.34375 0.125 2.742188 -0.03125 2.234375 -0.34375 C 1.734375 -0.664062 1.34375 -1.144531 1.0625 -1.78125 C 0.789062 -2.425781 0.65625 -3.21875 0.65625 -4.15625 C 0.65625 -5.101562 0.816406 -5.894531 1.140625 -6.53125 C 1.472656 -7.164062 1.929688 -7.640625 2.515625 -7.953125 C 3.109375 -8.265625 3.789062 -8.421875 4.5625 -8.421875 C 5.351562 -8.421875 6.03125 -8.273438 6.59375 -7.984375 C 7.15625 -7.691406 7.550781 -7.253906 7.78125 -6.671875 L 6.578125 -5.9375 L 6.4375 -5.953125 C 6.257812 -6.316406 6.015625 -6.582031 5.703125 -6.75 C 5.398438 -6.925781 5.019531 -7.015625 4.5625 -7.015625 C 3.84375 -7.015625 3.289062 -6.785156 2.90625 -6.328125 C 2.53125 -5.878906 2.34375 -5.15625 2.34375 -4.15625 C 2.34375 -3.15625 2.519531 -2.425781 2.875 -1.96875 C 3.226562 -1.507812 3.753906 -1.28125 4.453125 -1.28125 C 5.046875 -1.28125 5.484375 -1.414062 5.765625 -1.6875 C 6.054688 -1.957031 6.203125 -2.359375 6.203125 -2.890625 L 6.203125 -3.25 L 4.234375 -3.25 L 4.234375 -4.59375 L 7.828125 -4.59375 L 7.828125 0 L 6.265625 0 L 6.265625 -1.109375 L 6.140625 -1.125 C 5.972656 -0.726562 5.710938 -0.421875 5.359375 -0.203125 C 5.015625 0.015625 4.570312 0.125 4.03125 0.125 Z M 4.03125 0.125 "/></g></g></g><g fill="#000000" fill-opacity="1"><g transform="translate(104.544045, 51.628156)"><g><path d="M 4.546875 0 L 2.90625 0 L 2.90625 -3.265625 L 0.046875 -8.3125 L 1.796875 -8.3125 L 3.703125 -5.046875 L 3.84375 -5.046875 L 5.703125 -8.3125 L 7.421875 -8.3125 L 4.546875 -3.265625 Z M 4.546875 0 "/></g></g></g><g fill="#000000" fill-opacity="1"><g transform="translate(112.00887, 51.628156)"><g><path d="M 1.609375 0.046875 C 1.398438 0.046875 1.21875 0.0078125 1.0625 -0.0625 C 0.914062 -0.144531 0.800781 -0.257812 0.71875 -0.40625 C 0.632812 -0.550781 0.59375 -0.710938 0.59375 -0.890625 C 0.59375 -1.078125 0.632812 -1.242188 0.71875 -1.390625 C 0.800781 -1.535156 0.914062 -1.648438 1.0625 -1.734375 C 1.21875 -1.816406 1.398438 -1.859375 1.609375 -1.859375 C 1.804688 -1.859375 1.984375 -1.816406 2.140625 -1.734375 C 2.296875 -1.648438 2.410156 -1.535156 2.484375 -1.390625 C 2.566406 -1.242188 2.609375 -1.082031 2.609375 -0.90625 C 2.609375 -0.625 2.515625 -0.394531 2.328125 -0.21875 C 2.148438 -0.0390625 1.910156 0.046875 1.609375 0.046875 Z M 1.609375 0.046875 "/></g></g></g><g fill="#000000" fill-opacity="1"><g transform="translate(115.221079, 51.628156)"><g/></g></g><g fill="#000000" fill-opacity="1"><g transform="translate(117.967093, 51.628156)"><g><path d="M 3.96875 0.125 C 3.34375 0.125 2.785156 -0.0195312 2.296875 -0.3125 C 1.804688 -0.601562 1.414062 -1.0625 1.125 -1.6875 C 0.84375 -2.3125 0.703125 -3.109375 0.703125 -4.078125 C 0.703125 -5.054688 0.851562 -5.867188 1.15625 -6.515625 C 1.457031 -7.171875 1.867188 -7.648438 2.390625 -7.953125 C 2.921875 -8.265625 3.523438 -8.421875 4.203125 -8.421875 C 4.765625 -8.421875 5.25 -8.335938 5.65625 -8.171875 C 6.0625 -8.015625 6.378906 -7.78125 6.609375 -7.46875 L 5.796875 -6.421875 L 5.65625 -6.421875 C 5.3125 -6.835938 4.828125 -7.046875 4.203125 -7.046875 C 3.015625 -7.046875 2.410156 -6.179688 2.390625 -4.453125 L 2.5 -4.40625 C 2.695312 -4.757812 2.953125 -5.03125 3.265625 -5.21875 C 3.585938 -5.40625 3.988281 -5.5 4.46875 -5.5 C 4.976562 -5.5 5.421875 -5.390625 5.796875 -5.171875 C 6.171875 -4.960938 6.457031 -4.65625 6.65625 -4.25 C 6.863281 -3.84375 6.96875 -3.359375 6.96875 -2.796875 C 6.96875 -2.191406 6.847656 -1.671875 6.609375 -1.234375 C 6.367188 -0.796875 6.019531 -0.457031 5.5625 -0.21875 C 5.113281 0.0078125 4.582031 0.125 3.96875 0.125 Z M 3.9375 -1.28125 C 4.363281 -1.28125 4.695312 -1.40625 4.9375 -1.65625 C 5.1875 -1.914062 5.3125 -2.269531 5.3125 -2.71875 C 5.3125 -3.175781 5.1875 -3.53125 4.9375 -3.78125 C 4.695312 -4.03125 4.363281 -4.15625 3.9375 -4.15625 C 3.65625 -4.15625 3.410156 -4.097656 3.203125 -3.984375 C 2.992188 -3.867188 2.832031 -3.703125 2.71875 -3.484375 C 2.601562 -3.265625 2.546875 -3.007812 2.546875 -2.71875 C 2.546875 -2.28125 2.671875 -1.929688 2.921875 -1.671875 C 3.171875 -1.410156 3.507812 -1.28125 3.9375 -1.28125 Z M 3.9375 -1.28125 "/></g></g></g><g fill="#000000" fill-opacity="1"><g transform="translate(125.51719, 51.628156)"><g><path d="M 3.96875 0.125 C 3.34375 0.125 2.785156 -0.0195312 2.296875 -0.3125 C 1.804688 -0.601562 1.414062 -1.0625 1.125 -1.6875 C 0.84375 -2.3125 0.703125 -3.109375 0.703125 -4.078125 C 0.703125 -5.054688 0.851562 -5.867188 1.15625 -6.515625 C 1.457031 -7.171875 1.867188 -7.648438 2.390625 -7.953125 C 2.921875 -8.265625 3.523438 -8.421875 4.203125 -8.421875 C 4.765625 -8.421875 5.25 -8.335938 5.65625 -8.171875 C 6.0625 -8.015625 6.378906 -7.78125 6.609375 -7.46875 L 5.796875 -6.421875 L 5.65625 -6.421875 C 5.3125 -6.835938 4.828125 -7.046875 4.203125 -7.046875 C 3.015625 -7.046875 2.410156 -6.179688 2.390625 -4.453125 L 2.5 -4.40625 C 2.695312 -4.757812 2.953125 -5.03125 3.265625 -5.21875 C 3.585938 -5.40625 3.988281 -5.5 4.46875 -5.5 C 4.976562 -5.5 5.421875 -5.390625 5.796875 -5.171875 C 6.171875 -4.960938 6.457031 -4.65625 6.65625 -4.25 C 6.863281 -3.84375 6.96875 -3.359375 6.96875 -2.796875 C 6.96875 -2.191406 6.847656 -1.671875 6.609375 -1.234375 C 6.367188 -0.796875 6.019531 -0.457031 5.5625 -0.21875 C 5.113281 0.0078125 4.582031 0.125 3.96875 0.125 Z M 3.9375 -1.28125 C 4.363281 -1.28125 4.695312 -1.40625 4.9375 -1.65625 C 5.1875 -1.914062 5.3125 -2.269531 5.3125 -2.71875 C 5.3125 -3.175781 5.1875 -3.53125 4.9375 -3.78125 C 4.695312 -4.03125 4.363281 -4.15625 3.9375 -4.15625 C 3.65625 -4.15625 3.410156 -4.097656 3.203125 -3.984375 C 2.992188 -3.867188 2.832031 -3.703125 2.71875 -3.484375 C 2.601562 -3.265625 2.546875 -3.007812 2.546875 -2.71875 C 2.546875 -2.28125 2.671875 -1.929688 2.921875 -1.671875 C 3.171875 -1.410156 3.507812 -1.28125 3.9375 -1.28125 Z M 3.9375 -1.28125 "/></g></g></g><g fill="#000000" fill-opacity="1"><g transform="translate(133.067288, 51.628156)"><g><path d="M 0.234375 1.671875 C 0.566406 1.460938 0.863281 1.210938 1.125 0.921875 C 1.382812 0.640625 1.523438 0.347656 1.546875 0.046875 C 1.253906 0.046875 1.019531 -0.0390625 0.84375 -0.21875 C 0.675781 -0.394531 0.59375 -0.625 0.59375 -0.90625 C 0.59375 -1.082031 0.632812 -1.242188 0.71875 -1.390625 C 0.800781 -1.535156 0.914062 -1.648438 1.0625 -1.734375 C 1.21875 -1.816406 1.394531 -1.859375 1.59375 -1.859375 C 1.90625 -1.859375 2.15625 -1.753906 2.34375 -1.546875 C 2.539062 -1.335938 2.640625 -1.035156 2.640625 -0.640625 C 2.640625 0.0351562 2.46875 0.625 2.125 1.125 C 1.78125 1.625 1.320312 2.046875 0.75 2.390625 Z M 0.234375 1.671875 "/></g></g></g><g fill="#000000" fill-opacity="1"><g transform="translate(136.302238, 51.628156)"><g/></g></g><g fill="#000000" fill-opacity="1"><g transform="translate(139.048252, 51.628156)"><g><path d="M 1.078125 0 L 1.078125 -8.3125 L 4.625 -8.3125 C 5.132812 -8.3125 5.566406 -8.226562 5.921875 -8.0625 C 6.273438 -7.90625 6.539062 -7.675781 6.71875 -7.375 C 6.90625 -7.082031 7 -6.734375 7 -6.328125 C 7 -5.960938 6.910156 -5.640625 6.734375 -5.359375 C 6.554688 -5.078125 6.300781 -4.847656 5.96875 -4.671875 L 5.96875 -4.5625 C 6.488281 -4.425781 6.890625 -4.175781 7.171875 -3.8125 C 7.460938 -3.457031 7.609375 -3.015625 7.609375 -2.484375 C 7.609375 -1.691406 7.367188 -1.078125 6.890625 -0.640625 C 6.410156 -0.210938 5.695312 0 4.75 0 Z M 4.28125 -5 C 5.050781 -5 5.4375 -5.34375 5.4375 -6.03125 C 5.4375 -6.382812 5.335938 -6.644531 5.140625 -6.8125 C 4.953125 -6.988281 4.664062 -7.078125 4.28125 -7.078125 L 2.71875 -7.078125 L 2.71875 -5 Z M 4.59375 -1.296875 C 5.5 -1.296875 5.953125 -1.707031 5.953125 -2.53125 C 5.953125 -3.363281 5.5 -3.78125 4.59375 -3.78125 L 2.71875 -3.78125 L 2.71875 -1.296875 Z M 4.59375 -1.296875 "/></g></g></g><g fill="#000000" fill-opacity="1"><g transform="translate(147.178252, 51.628156)"><g><path d="M 7.96875 0 L 6.25 0 L 5.625 -1.921875 L 2.4375 -1.921875 L 1.8125 0 L 0.125 0 L 3 -8.3125 L 5.109375 -8.3125 Z M 3.953125 -6.578125 L 2.875 -3.296875 L 5.171875 -3.296875 L 4.09375 -6.578125 Z M 3.953125 -6.578125 "/></g></g></g><g fill="#000000" fill-opacity="1"><g transform="translate(155.279831, 51.628156)"><g><path d="M 2.671875 0 L 1.078125 0 L 1.078125 -8.3125 L 2.96875 -8.3125 L 6.296875 -2.953125 L 6.453125 -2.984375 L 6.453125 -8.3125 L 8.03125 -8.3125 L 8.03125 0 L 6.34375 0 L 2.8125 -5.71875 L 2.671875 -5.6875 Z M 2.671875 0 "/></g></g></g><g fill="#000000" fill-opacity="1"><g transform="translate(164.393397, 51.628156)"><g><path d="M 6.609375 2.0625 C 5.867188 2.0625 5.257812 1.882812 4.78125 1.53125 C 4.300781 1.1875 3.976562 0.695312 3.8125 0.0625 C 3.175781 -0.0195312 2.617188 -0.226562 2.140625 -0.5625 C 1.671875 -0.90625 1.304688 -1.375 1.046875 -1.96875 C 0.785156 -2.570312 0.65625 -3.300781 0.65625 -4.15625 C 0.65625 -5.101562 0.816406 -5.894531 1.140625 -6.53125 C 1.472656 -7.175781 1.929688 -7.648438 2.515625 -7.953125 C 3.097656 -8.265625 3.769531 -8.421875 4.53125 -8.421875 C 5.289062 -8.421875 5.957031 -8.265625 6.53125 -7.953125 C 7.113281 -7.648438 7.566406 -7.175781 7.890625 -6.53125 C 8.222656 -5.894531 8.390625 -5.101562 8.390625 -4.15625 C 8.390625 -2.914062 8.125 -1.960938 7.59375 -1.296875 C 7.0625 -0.628906 6.316406 -0.210938 5.359375 -0.046875 L 5.328125 0.0625 C 5.441406 0.257812 5.613281 0.410156 5.84375 0.515625 C 6.082031 0.628906 6.359375 0.6875 6.671875 0.6875 C 6.921875 0.6875 7.144531 0.65625 7.34375 0.59375 L 7.453125 0.609375 L 7.6875 1.890625 C 7.570312 1.941406 7.410156 1.984375 7.203125 2.015625 C 6.992188 2.046875 6.796875 2.0625 6.609375 2.0625 Z M 4.53125 -1.3125 C 5.238281 -1.3125 5.773438 -1.535156 6.140625 -1.984375 C 6.515625 -2.441406 6.703125 -3.164062 6.703125 -4.15625 C 6.703125 -5.144531 6.515625 -5.867188 6.140625 -6.328125 C 5.773438 -6.785156 5.238281 -7.015625 4.53125 -7.015625 C 3.820312 -7.015625 3.28125 -6.785156 2.90625 -6.328125 C 2.53125 -5.867188 2.34375 -5.144531 2.34375 -4.15625 C 2.34375 -3.164062 2.53125 -2.441406 2.90625 -1.984375 C 3.28125 -1.535156 3.820312 -1.3125 4.53125 -1.3125 Z M 4.53125 -1.3125 "/></g></g></g><g fill="#000000" fill-opacity="1"><g transform="translate(173.45011, 51.628156)"><g><path d="M 4.40625 0.125 C 3.257812 0.125 2.410156 -0.144531 1.859375 -0.6875 C 1.304688 -1.238281 1.03125 -2.046875 1.03125 -3.109375 L 1.03125 -8.3125 L 2.640625 -8.3125 L 2.640625 -3.125 C 2.640625 -2.519531 2.785156 -2.066406 3.078125 -1.765625 C 3.367188 -1.460938 3.8125 -1.3125 4.40625 -1.3125 C 5.582031 -1.3125 6.171875 -1.914062 6.171875 -3.125 L 6.171875 -8.3125 L 7.78125 -8.3125 L 7.78125 -3.109375 C 7.78125 -2.046875 7.503906 -1.238281 6.953125 -0.6875 C 6.398438 -0.144531 5.550781 0.125 4.40625 0.125 Z M 4.40625 0.125 "/></g></g></g><g fill="#000000" fill-opacity="1"><g transform="translate(182.262347, 51.628156)"><g><path d="M 2.71875 -3.65625 L 2.71875 -1.375 L 6.6875 -1.375 L 6.6875 0 L 1.078125 0 L 1.078125 -8.3125 L 6.59375 -8.3125 L 6.59375 -6.9375 L 2.71875 -6.9375 L 2.71875 -4.984375 L 6.109375 -4.984375 L 6.109375 -3.65625 Z M 2.71875 -3.65625 "/></g></g></g><g fill="#000000" fill-opacity="1"><g transform="translate(189.408794, 51.628156)"><g><path d="M 1.078125 0 L 1.078125 -8.3125 L 4.421875 -8.3125 C 5.273438 -8.3125 5.921875 -8.113281 6.359375 -7.71875 C 6.796875 -7.320312 7.015625 -6.773438 7.015625 -6.078125 C 7.015625 -5.566406 6.882812 -5.148438 6.625 -4.828125 C 6.375 -4.515625 5.992188 -4.269531 5.484375 -4.09375 L 5.484375 -3.984375 C 5.753906 -3.867188 5.96875 -3.695312 6.125 -3.46875 C 6.28125 -3.25 6.429688 -2.921875 6.578125 -2.484375 L 7.40625 0 L 5.71875 0 L 4.90625 -2.484375 C 4.820312 -2.734375 4.726562 -2.925781 4.625 -3.0625 C 4.519531 -3.207031 4.382812 -3.3125 4.21875 -3.375 C 4.0625 -3.4375 3.859375 -3.46875 3.609375 -3.46875 L 2.71875 -3.46875 L 2.71875 0 Z M 4.21875 -4.765625 C 5.007812 -4.765625 5.40625 -5.132812 5.40625 -5.875 C 5.40625 -6.632812 5.007812 -7.015625 4.21875 -7.015625 L 2.71875 -7.015625 L 2.71875 -4.765625 Z M 4.21875 -4.765625 "/></g></g></g><g fill="#000000" fill-opacity="1"><g transform="translate(197.180625, 51.628156)"><g><path d="M 4.53125 0.125 C 3.769531 0.125 3.097656 -0.03125 2.515625 -0.34375 C 1.929688 -0.65625 1.472656 -1.128906 1.140625 -1.765625 C 0.816406 -2.410156 0.65625 -3.207031 0.65625 -4.15625 C 0.65625 -5.101562 0.816406 -5.894531 1.140625 -6.53125 C 1.472656 -7.175781 1.929688 -7.648438 2.515625 -7.953125 C 3.097656 -8.265625 3.769531 -8.421875 4.53125 -8.421875 C 5.289062 -8.421875 5.957031 -8.265625 6.53125 -7.953125 C 7.113281 -7.648438 7.566406 -7.175781 7.890625 -6.53125 C 8.222656 -5.894531 8.390625 -5.101562 8.390625 -4.15625 C 8.390625 -3.207031 8.222656 -2.410156 7.890625 -1.765625 C 7.566406 -1.128906 7.113281 -0.65625 6.53125 -0.34375 C 5.957031 -0.03125 5.289062 0.125 4.53125 0.125 Z M 4.53125 -1.3125 C 5.238281 -1.3125 5.773438 -1.535156 6.140625 -1.984375 C 6.515625 -2.441406 6.703125 -3.164062 6.703125 -4.15625 C 6.703125 -5.144531 6.515625 -5.867188 6.140625 -6.328125 C 5.773438 -6.785156 5.238281 -7.015625 4.53125 -7.015625 C 3.820312 -7.015625 3.28125 -6.785156 2.90625 -6.328125 C 2.53125 -5.867188 2.34375 -5.144531 2.34375 -4.15625 C 2.34375 -3.164062 2.53125 -2.441406 2.90625 -1.984375 C 3.28125 -1.535156 3.820312 -1.3125 4.53125 -1.3125 Z M 4.53125 -1.3125 "/></g></g></g><g fill="#000000" fill-opacity="1"><g transform="translate(206.237338, 51.628156)"><g><path d="M 6.453125 -5.1875 L 6.453125 -8.3125 L 8.078125 -8.3125 L 8.078125 0 L 6.453125 0 L 6.453125 -3.78125 L 2.71875 -3.78125 L 2.71875 0 L 1.078125 0 L 1.078125 -8.3125 L 2.71875 -8.3125 L 2.71875 -5.1875 Z M 6.453125 -5.1875 "/></g></g></g><g fill="#000000" fill-opacity="1"><g transform="translate(215.407757, 51.628156)"><g><path d="M 7.96875 0 L 6.25 0 L 5.625 -1.921875 L 2.4375 -1.921875 L 1.8125 0 L 0.125 0 L 3 -8.3125 L 5.109375 -8.3125 Z M 3.953125 -6.578125 L 2.875 -3.296875 L 5.171875 -3.296875 L 4.09375 -6.578125 Z M 3.953125 -6.578125 "/></g></g></g><g fill="#000000" fill-opacity="1"><g transform="translate(223.509337, 51.628156)"><g><path d="M 2.671875 0 L 1.078125 0 L 1.078125 -8.3125 L 2.96875 -8.3125 L 6.296875 -2.953125 L 6.453125 -2.984375 L 6.453125 -8.3125 L 8.03125 -8.3125 L 8.03125 0 L 6.34375 0 L 2.8125 -5.71875 L 2.671875 -5.6875 Z M 2.671875 0 "/></g></g></g><g fill="#000000" fill-opacity="1"><g transform="translate(79.972103, 65.605844)"><g><path d="M 3.265625 -9.96875 L 3.265625 -1.65625 L 7.75 -1.65625 L 7.75 0 L 1.296875 0 L 1.296875 -9.96875 Z M 3.265625 -9.96875 "/></g></g></g><g fill="#000000" fill-opacity="1"><g transform="translate(88.045063, 65.605844)"><g><path d="M 3.265625 -4.375 L 3.265625 -1.65625 L 8.03125 -1.65625 L 8.03125 0 L 1.296875 0 L 1.296875 -9.96875 L 7.921875 -9.96875 L 7.921875 -8.328125 L 3.265625 -8.328125 L 3.265625 -5.984375 L 7.328125 -5.984375 L 7.328125 -4.375 Z M 3.265625 -4.375 "/></g></g></g><g fill="#000000" fill-opacity="1"><g transform="translate(96.615771, 65.605844)"><g><path d="M 4.84375 0.140625 C 4.007812 0.140625 3.285156 -0.046875 2.671875 -0.421875 C 2.066406 -0.804688 1.597656 -1.378906 1.265625 -2.140625 C 0.941406 -2.910156 0.78125 -3.859375 0.78125 -4.984375 C 0.78125 -6.117188 0.976562 -7.066406 1.375 -7.828125 C 1.769531 -8.597656 2.316406 -9.171875 3.015625 -9.546875 C 3.722656 -9.921875 4.539062 -10.109375 5.46875 -10.109375 C 6.425781 -10.109375 7.238281 -9.929688 7.90625 -9.578125 C 8.582031 -9.222656 9.054688 -8.695312 9.328125 -8 L 7.890625 -7.125 L 7.71875 -7.140625 C 7.519531 -7.578125 7.234375 -7.898438 6.859375 -8.109375 C 6.484375 -8.316406 6.019531 -8.421875 5.46875 -8.421875 C 4.613281 -8.421875 3.957031 -8.144531 3.5 -7.59375 C 3.039062 -7.050781 2.8125 -6.179688 2.8125 -4.984375 C 2.8125 -3.773438 3.023438 -2.898438 3.453125 -2.359375 C 3.878906 -1.816406 4.507812 -1.546875 5.34375 -1.546875 C 6.0625 -1.546875 6.585938 -1.707031 6.921875 -2.03125 C 7.265625 -2.351562 7.4375 -2.832031 7.4375 -3.46875 L 7.4375 -3.90625 L 5.078125 -3.90625 L 5.078125 -5.5 L 9.40625 -5.5 L 9.40625 0 L 7.515625 0 L 7.515625 -1.34375 L 7.375 -1.359375 C 7.164062 -0.878906 6.851562 -0.507812 6.4375 -0.25 C 6.019531 0.0078125 5.488281 0.140625 4.84375 0.140625 Z M 4.84375 0.140625 "/></g></g></g><g fill="#000000" fill-opacity="1"><g transform="translate(107.013804, 65.605844)"><g><path d="M 9.5625 0 L 7.5 0 L 6.75 -2.296875 L 2.921875 -2.296875 L 2.171875 0 L 0.15625 0 L 3.59375 -9.96875 L 6.125 -9.96875 Z M 4.734375 -7.890625 L 3.453125 -3.953125 L 6.203125 -3.953125 L 4.90625 -7.890625 Z M 4.734375 -7.890625 "/></g></g></g><g fill="#000000" fill-opacity="1"><g transform="translate(116.73, 65.605844)"><g><path d="M 7.734375 0 L 0.40625 0 L 0.40625 -1.734375 L 5.40625 -8.171875 L 5.359375 -8.328125 L 0.609375 -8.328125 L 0.609375 -9.96875 L 7.6875 -9.96875 L 7.6875 -8.234375 L 2.6875 -1.796875 L 2.734375 -1.65625 L 7.734375 -1.65625 Z M 7.734375 0 "/></g></g></g><g fill="#000000" fill-opacity="1"><g transform="translate(124.871144, 65.605844)"><g><path d="M 5.15625 -9.96875 C 5.863281 -9.96875 6.46875 -9.835938 6.96875 -9.578125 C 7.476562 -9.316406 7.863281 -8.953125 8.125 -8.484375 C 8.382812 -8.015625 8.515625 -7.46875 8.515625 -6.84375 C 8.515625 -6.21875 8.382812 -5.671875 8.125 -5.203125 C 7.863281 -4.734375 7.476562 -4.367188 6.96875 -4.109375 C 6.46875 -3.847656 5.863281 -3.71875 5.15625 -3.71875 L 3.265625 -3.71875 L 3.265625 0 L 1.296875 0 L 1.296875 -9.96875 Z M 4.890625 -5.28125 C 5.984375 -5.28125 6.53125 -5.800781 6.53125 -6.84375 C 6.53125 -7.882812 5.984375 -8.40625 4.890625 -8.40625 L 3.265625 -8.40625 L 3.265625 -5.28125 Z M 4.890625 -5.28125 "/></g></g></g><g fill="#000000" fill-opacity="1"><g transform="translate(133.980497, 65.605844)"><g><path d="M 3.265625 0 L 1.296875 0 L 1.296875 -9.96875 L 3.265625 -9.96875 Z M 3.265625 0 "/></g></g></g><g fill="#000000" fill-opacity="1"><g transform="translate(138.54881, 65.605844)"><g/></g></g><g fill="#000000" fill-opacity="1"><g transform="translate(141.842094, 65.605844)"><g><path d="M 5.453125 0.140625 C 4.535156 0.140625 3.722656 -0.046875 3.015625 -0.421875 C 2.316406 -0.804688 1.769531 -1.378906 1.375 -2.140625 C 0.976562 -2.910156 0.78125 -3.859375 0.78125 -4.984375 C 0.78125 -6.109375 0.976562 -7.050781 1.375 -7.8125 C 1.769531 -8.582031 2.316406 -9.15625 3.015625 -9.53125 C 3.722656 -9.914062 4.535156 -10.109375 5.453125 -10.109375 C 6.410156 -10.109375 7.222656 -9.921875 7.890625 -9.546875 C 8.566406 -9.171875 9.046875 -8.601562 9.328125 -7.84375 L 7.890625 -6.953125 L 7.71875 -6.96875 C 7.507812 -7.476562 7.21875 -7.847656 6.84375 -8.078125 C 6.476562 -8.304688 6.015625 -8.421875 5.453125 -8.421875 C 4.617188 -8.421875 3.96875 -8.144531 3.5 -7.59375 C 3.039062 -7.039062 2.8125 -6.171875 2.8125 -4.984375 C 2.8125 -3.796875 3.039062 -2.925781 3.5 -2.375 C 3.96875 -1.832031 4.617188 -1.5625 5.453125 -1.5625 C 6.742188 -1.5625 7.535156 -2.191406 7.828125 -3.453125 L 8 -3.453125 L 9.453125 -2.6875 C 9.179688 -1.75 8.710938 -1.039062 8.046875 -0.5625 C 7.390625 -0.09375 6.523438 0.140625 5.453125 0.140625 Z M 5.453125 0.140625 "/></g></g></g><g fill="#000000" fill-opacity="1"><g transform="translate(151.619648, 65.605844)"><g><path d="M 3.265625 0 L 1.296875 0 L 1.296875 -9.96875 L 3.265625 -9.96875 Z M 3.265625 0 "/></g></g></g><g fill="#000000" fill-opacity="1"><g transform="translate(156.187962, 65.605844)"><g><path d="M 8 -9.96875 L 8 -8.3125 L 5.109375 -8.3125 L 5.109375 0 L 3.15625 0 L 3.15625 -8.3125 L 0.265625 -8.3125 L 0.265625 -9.96875 Z M 8 -9.96875 "/></g></g></g><g fill="#000000" fill-opacity="1"><g transform="translate(164.451836, 65.605844)"><g><path d="M 5.46875 0 L 3.5 0 L 3.5 -3.921875 L 0.046875 -9.96875 L 2.15625 -9.96875 L 4.4375 -6.046875 L 4.609375 -6.046875 L 6.84375 -9.96875 L 8.90625 -9.96875 L 5.46875 -3.921875 Z M 5.46875 0 "/></g></g></g></svg>