<svg xmlns="http://www.w3.org/2000/svg" xmlns:xlink="http://www.w3.org/1999/xlink" width="436" zoomAndPan="magnify" viewBox="0 0 327 228.749995" height="305" preserveAspectRatio="xMidYMid meet" version="1.0"><defs><clipPath id="0d6fcc2b76"><path d="M 0.179688 0 L 326.820312 0 L 326.820312 228.5 L 0.179688 228.5 Z M 0.179688 0 " clip-rule="nonzero"/></clipPath><clipPath id="c399d77d2a"><path d="M 30 21 L 299 21 L 299 228.5 L 30 228.5 Z M 30 21 " clip-rule="nonzero"/></clipPath></defs><g clip-path="url(#0d6fcc2b76)"><path fill="#ffffff" d="M 0.179688 0 L 326.820312 0 L 326.820312 228.5 L 0.179688 228.5 Z M 0.179688 0 " fill-opacity="1" fill-rule="nonzero"/><path fill="#5d9efe" d="M 0.179688 0 L 326.820312 0 L 326.820312 228.5 L 0.179688 228.5 Z M 0.179688 0 " fill-opacity="1" fill-rule="nonzero"/></g><g clip-path="url(#c399d77d2a)"><path fill="#d5d9f7" d="M 163.742188 228.527344 C 91.175781 231.484375 55.042969 208.109375 38.050781 180.078125 C 24.679688 158.023438 26.722656 111.753906 55.34375 86.769531 C 88.546875 57.773438 103.359375 62.460938 130.375 38.410156 C 164.988281 7.597656 218.386719 22.351562 235.574219 49.558594 C 251.199219 74.300781 257.148438 83.300781 272.113281 98.15625 C 294.484375 120.390625 302.625 145.78125 296.960938 163.640625 C 285.046875 201.167969 256.636719 224.742188 163.742188 228.527344 Z M 163.742188 228.527344 " fill-opacity="1" fill-rule="nonzero"/></g><path fill="#546dcd" d="M 146.722656 6.214844 L 270.761719 6.214844 L 270.761719 186.265625 L 146.722656 186.265625 Z M 146.722656 6.214844 " fill-opacity="1" fill-rule="nonzero"/><path fill="#ffffff" d="M 267.378906 9.597656 L 267.378906 139.800781 C 266.042969 144.230469 264.164062 152.585938 258.769531 159.554688 C 243.101562 179.730469 223.597656 177.867188 223.597656 177.867188 L 150.085938 177.867188 L 150.085938 9.597656 Z M 267.378906 9.597656 " fill-opacity="1" fill-rule="nonzero"/><path fill="#09122d" d="M 223.597656 178.242188 C 223.523438 178.242188 223.433594 178.214844 223.359375 178.152344 C 223.195312 178.019531 223.179688 177.792969 223.296875 177.628906 C 223.34375 177.566406 227.535156 172.25 228.152344 163.613281 C 228.765625 154.882812 228.167969 149.175781 228.152344 149.113281 C 228.136719 148.996094 228.179688 148.875 228.273438 148.800781 C 228.363281 148.722656 228.480469 148.679688 228.601562 148.707031 C 228.738281 148.738281 241.945312 151.21875 252.925781 145.402344 C 264.328125 139.378906 267.003906 132.917969 267.019531 132.859375 C 267.09375 132.664062 267.320312 132.574219 267.5 132.648438 C 267.695312 132.722656 267.785156 132.949219 267.710938 133.128906 C 267.605469 133.402344 264.902344 139.90625 253.273438 146.066406 C 247.398438 149.175781 240.96875 149.925781 236.59375 150 C 232.914062 150.074219 230.042969 149.683594 228.933594 149.519531 C 229.066406 151.097656 229.414062 156.324219 228.886719 163.65625 C 228.257812 172.535156 224.050781 177.867188 223.871094 178.078125 C 223.824219 178.199219 223.703125 178.242188 223.597656 178.242188 Z M 223.597656 178.242188 " fill-opacity="1" fill-rule="nonzero"/><path fill="#546dcd" d="M 172.140625 56.84375 C 164.914062 56.84375 159.027344 50.953125 159.027344 43.726562 C 159.027344 36.503906 164.914062 30.613281 172.140625 30.613281 C 179.367188 30.613281 185.257812 36.503906 185.257812 43.726562 C 185.257812 50.953125 179.367188 56.84375 172.140625 56.84375 Z M 172.140625 31.347656 C 165.320312 31.347656 159.777344 36.894531 159.777344 43.714844 C 159.777344 50.535156 165.320312 56.078125 172.140625 56.078125 C 178.960938 56.078125 184.507812 50.535156 184.507812 43.714844 C 184.507812 36.894531 178.960938 31.347656 172.140625 31.347656 Z M 172.140625 31.347656 " fill-opacity="1" fill-rule="nonzero"/><path fill="#546dcd" d="M 201.199219 37.628906 L 251.574219 37.628906 C 252.429688 37.628906 253.121094 38.320312 253.121094 39.175781 C 253.121094 40.03125 252.429688 40.722656 251.574219 40.722656 L 201.199219 40.722656 C 200.34375 40.722656 199.652344 40.03125 199.652344 39.175781 C 199.664062 38.320312 200.355469 37.628906 201.199219 37.628906 Z M 201.199219 37.628906 " fill-opacity="1" fill-rule="nonzero"/><path fill="#546dcd" d="M 200.582031 42.828125 L 243.417969 42.828125 C 243.925781 42.828125 244.347656 43.246094 244.347656 43.757812 C 244.347656 44.269531 243.925781 44.691406 243.417969 44.691406 L 200.582031 44.691406 C 200.070312 44.691406 199.652344 44.269531 199.652344 43.757812 C 199.664062 43.234375 200.070312 42.828125 200.582031 42.828125 Z M 200.582031 42.828125 " fill-opacity="1" fill-rule="nonzero"/><path fill="#546dcd" d="M 200.582031 46.792969 L 243.417969 46.792969 C 243.925781 46.792969 244.347656 47.214844 244.347656 47.722656 C 244.347656 48.234375 243.925781 48.65625 243.417969 48.65625 L 200.582031 48.65625 C 200.070312 48.65625 199.652344 48.234375 199.652344 47.722656 C 199.664062 47.214844 200.070312 46.792969 200.582031 46.792969 Z M 200.582031 46.792969 " fill-opacity="1" fill-rule="nonzero"/><path fill="#09122d" d="M 171.644531 50.683594 C 171.089844 50.683594 170.535156 50.472656 170.097656 50.066406 L 163.15625 43.5625 C 162.253906 42.707031 162.210938 41.28125 163.050781 40.378906 C 163.910156 39.476562 165.335938 39.433594 166.238281 40.273438 L 171.644531 45.351562 L 185.226562 32.941406 C 186.144531 32.101562 187.570312 32.160156 188.414062 33.09375 C 189.253906 34.007812 189.195312 35.4375 188.261719 36.277344 L 173.148438 50.097656 C 172.742188 50.488281 172.203125 50.683594 171.644531 50.683594 Z M 171.644531 50.683594 " fill-opacity="1" fill-rule="nonzero"/><path fill="#546dcd" d="M 172.140625 101.476562 C 164.914062 101.476562 159.027344 95.585938 159.027344 88.363281 C 159.027344 81.136719 164.914062 75.246094 172.140625 75.246094 C 179.367188 75.246094 185.257812 81.136719 185.257812 88.363281 C 185.257812 95.585938 179.367188 101.476562 172.140625 101.476562 Z M 172.140625 75.996094 C 165.320312 75.996094 159.777344 81.542969 159.777344 88.363281 C 159.777344 95.183594 165.320312 100.726562 172.140625 100.726562 C 178.960938 100.726562 184.507812 95.183594 184.507812 88.363281 C 184.507812 81.542969 178.960938 75.996094 172.140625 75.996094 Z M 172.140625 75.996094 " fill-opacity="1" fill-rule="nonzero"/><path fill="#546dcd" d="M 201.199219 82.277344 L 251.574219 82.277344 C 252.429688 82.277344 253.121094 82.96875 253.121094 83.824219 C 253.121094 84.679688 252.429688 85.371094 251.574219 85.371094 L 201.199219 85.371094 C 200.34375 85.371094 199.652344 84.679688 199.652344 83.824219 C 199.664062 82.96875 200.355469 82.277344 201.199219 82.277344 Z M 201.199219 82.277344 " fill-opacity="1" fill-rule="nonzero"/><path fill="#546dcd" d="M 200.582031 87.460938 L 243.417969 87.460938 C 243.925781 87.460938 244.347656 87.878906 244.347656 88.390625 C 244.347656 88.902344 243.925781 89.324219 243.417969 89.324219 L 200.582031 89.324219 C 200.070312 89.324219 199.652344 88.902344 199.652344 88.390625 C 199.664062 87.878906 200.070312 87.460938 200.582031 87.460938 Z M 200.582031 87.460938 " fill-opacity="1" fill-rule="nonzero"/><path fill="#546dcd" d="M 200.582031 91.441406 L 243.417969 91.441406 C 243.925781 91.441406 244.347656 91.863281 244.347656 92.371094 C 244.347656 92.882812 243.925781 93.304688 243.417969 93.304688 L 200.582031 93.304688 C 200.070312 93.304688 199.652344 92.882812 199.652344 92.371094 C 199.664062 91.847656 200.070312 91.441406 200.582031 91.441406 Z M 200.582031 91.441406 " fill-opacity="1" fill-rule="nonzero"/><path fill="#09122d" d="M 171.644531 95.316406 C 171.089844 95.316406 170.535156 95.105469 170.097656 94.703125 L 163.15625 88.195312 C 162.253906 87.339844 162.210938 85.914062 163.050781 85.011719 C 163.910156 84.109375 165.335938 84.066406 166.238281 84.90625 L 171.644531 89.984375 L 185.226562 77.574219 C 186.144531 76.734375 187.570312 76.792969 188.414062 77.726562 C 189.253906 78.640625 189.195312 80.070312 188.261719 80.910156 L 173.148438 94.730469 C 172.742188 95.121094 172.203125 95.316406 171.644531 95.316406 Z M 171.644531 95.316406 " fill-opacity="1" fill-rule="nonzero"/><path fill="#546dcd" d="M 172.140625 146.125 C 164.914062 146.125 159.027344 140.234375 159.027344 133.011719 C 159.027344 125.785156 164.914062 119.894531 172.140625 119.894531 C 179.367188 119.894531 185.257812 125.785156 185.257812 133.011719 C 185.257812 140.234375 179.367188 146.125 172.140625 146.125 Z M 172.140625 120.632812 C 165.320312 120.632812 159.777344 126.175781 159.777344 132.996094 C 159.777344 139.816406 165.320312 145.359375 172.140625 145.359375 C 178.960938 145.359375 184.507812 139.816406 184.507812 132.996094 C 184.507812 126.175781 178.960938 120.632812 172.140625 120.632812 Z M 172.140625 120.632812 " fill-opacity="1" fill-rule="nonzero"/><path fill="#546dcd" d="M 201.199219 126.910156 L 251.574219 126.910156 C 252.429688 126.910156 253.121094 127.601562 253.121094 128.457031 C 253.121094 129.3125 252.429688 130.003906 251.574219 130.003906 L 201.199219 130.003906 C 200.34375 130.003906 199.652344 129.3125 199.652344 128.457031 C 199.664062 127.601562 200.355469 126.910156 201.199219 126.910156 Z M 201.199219 126.910156 " fill-opacity="1" fill-rule="nonzero"/><path fill="#546dcd" d="M 200.582031 132.109375 L 243.417969 132.109375 C 243.925781 132.109375 244.347656 132.527344 244.347656 133.039062 C 244.347656 133.550781 243.925781 133.972656 243.417969 133.972656 L 200.582031 133.972656 C 200.070312 133.972656 199.652344 133.550781 199.652344 133.039062 C 199.664062 132.527344 200.070312 132.109375 200.582031 132.109375 Z M 200.582031 132.109375 " fill-opacity="1" fill-rule="nonzero"/><path fill="#546dcd" d="M 200.582031 136.074219 L 243.417969 136.074219 C 243.925781 136.074219 244.347656 136.496094 244.347656 137.007812 C 244.347656 137.515625 243.925781 137.9375 243.417969 137.9375 L 200.582031 137.9375 C 200.070312 137.9375 199.652344 137.515625 199.652344 137.007812 C 199.664062 136.496094 200.070312 136.074219 200.582031 136.074219 Z M 200.582031 136.074219 " fill-opacity="1" fill-rule="nonzero"/><path fill="#09122d" d="M 171.644531 139.964844 C 171.089844 139.964844 170.535156 139.753906 170.097656 139.351562 L 163.15625 132.84375 C 162.253906 131.988281 162.210938 130.5625 163.050781 129.660156 C 163.910156 128.757812 165.335938 128.714844 166.238281 129.554688 L 171.644531 134.632812 L 185.226562 122.222656 C 186.144531 121.382812 187.570312 121.441406 188.414062 122.375 C 189.253906 123.289062 189.195312 124.71875 188.261719 125.558594 L 173.148438 139.378906 C 172.742188 139.769531 172.203125 139.964844 171.644531 139.964844 Z M 171.644531 139.964844 " fill-opacity="1" fill-rule="nonzero"/><path fill="#ffffff" d="M 190.652344 0.386719 L 226.828125 0.386719 C 228.632812 0.386719 230.089844 1.84375 230.089844 3.648438 L 230.089844 12.691406 C 230.089844 16.191406 227.25 19.046875 223.734375 19.046875 L 193.714844 19.046875 C 190.214844 19.046875 187.359375 16.207031 187.359375 12.691406 L 187.359375 3.648438 C 187.375 1.859375 188.847656 0.386719 190.652344 0.386719 Z M 190.652344 0.386719 " fill-opacity="1" fill-rule="nonzero"/><path fill="#09122d" d="M 223.75 19.421875 L 193.730469 19.421875 C 190.019531 19.421875 187 16.402344 187 12.691406 L 187 3.648438 C 187 1.632812 188.636719 0.0117188 190.636719 0.0117188 L 226.8125 0.0117188 C 228.828125 0.0117188 230.449219 1.648438 230.449219 3.648438 L 230.449219 12.691406 C 230.464844 16.402344 227.445312 19.421875 223.75 19.421875 Z M 190.652344 0.761719 C 189.058594 0.761719 187.765625 2.054688 187.765625 3.648438 L 187.765625 12.691406 C 187.765625 15.980469 190.441406 18.671875 193.746094 18.671875 L 223.765625 18.671875 C 227.054688 18.671875 229.742188 15.996094 229.742188 12.691406 L 229.742188 3.648438 C 229.742188 2.054688 228.453125 0.761719 226.859375 0.761719 Z M 190.652344 0.761719 " fill-opacity="1" fill-rule="nonzero"/><path fill="#ffffff" d="M 120.277344 159.527344 C 120.277344 159.527344 117.320312 122.359375 123.375 126.820312 C 129.429688 131.28125 134.371094 141.4375 135.242188 143.886719 C 136.113281 146.335938 134.972656 149.007812 134.972656 149.007812 Z M 120.277344 159.527344 " fill-opacity="1" fill-rule="nonzero"/><path fill="#ffffff" d="M 45.308594 135.804688 C 45.308594 135.804688 48.628906 126.429688 61.023438 120.585938 C 73.417969 114.742188 89.433594 114.890625 90.019531 114.816406 C 90.605469 114.742188 110.648438 120.660156 115.90625 122.824219 C 121.164062 124.988281 124.0625 125.707031 127.550781 132.558594 C 131.050781 139.410156 120.457031 153.425781 120.457031 153.425781 L 120.457031 184.386719 L 120.625 185.425781 L 41.117188 185.425781 Z M 45.308594 135.804688 " fill-opacity="1" fill-rule="nonzero"/><path fill="#ffffff" d="M 34.777344 160.53125 L 33.046875 159.660156 C 33.046875 159.660156 41.265625 133.550781 53.164062 124.972656 C 65.066406 116.394531 64.3125 132.875 62.734375 140.835938 C 61.160156 148.800781 57.777344 165.503906 54.171875 169.964844 C 50.566406 174.429688 34.777344 160.53125 34.777344 160.53125 Z M 34.777344 160.53125 " fill-opacity="1" fill-rule="nonzero"/><path fill="#546dcd" d="M 120.472656 178.84375 C 120.277344 178.84375 120.113281 178.695312 120.097656 178.5 C 119.421875 169.847656 120.773438 144.125 120.773438 143.871094 C 120.789062 143.660156 120.953125 143.511719 121.164062 143.511719 C 121.375 143.527344 121.523438 143.691406 121.523438 143.902344 C 121.511719 144.15625 120.171875 169.832031 120.835938 178.4375 C 120.847656 178.648438 120.699219 178.828125 120.488281 178.84375 C 120.488281 178.84375 120.472656 178.84375 120.472656 178.84375 Z M 120.472656 178.84375 " fill-opacity="1" fill-rule="nonzero"/><path fill="#546dcd" d="M 208.589844 165.085938 C 208.589844 165.085938 204.835938 127.4375 205.8125 124.402344 C 206.789062 121.367188 216.703125 115.3125 232.027344 112.835938 C 247.351562 110.339844 264.765625 110.519531 272.5625 122.3125 C 280.359375 134.105469 271.269531 169.183594 270.070312 173.617188 C 268.867188 178.050781 267.152344 185.847656 267.152344 185.847656 L 210.84375 185.847656 Z M 208.589844 165.085938 " fill-opacity="1" fill-rule="nonzero"/><path fill="#ffffff" d="M 227.25 164.902344 C 226.722656 164.902344 226.167969 164.84375 225.628906 164.679688 C 223.839844 164.152344 222.457031 162.710938 221.511719 160.425781 C 218.414062 152.976562 218.339844 140.402344 218.339844 140.3125 C 218.371094 140.054688 218.582031 139.875 218.835938 139.90625 C 219.078125 139.933594 219.257812 140.144531 219.242188 140.386719 C 219.242188 140.597656 219.363281 152.929688 222.335938 160.097656 C 223.179688 162.125 224.367188 163.386719 225.882812 163.835938 C 228.4375 164.601562 231.140625 162.816406 231.171875 162.800781 C 231.382812 162.664062 231.652344 162.710938 231.800781 162.921875 C 231.9375 163.132812 231.890625 163.402344 231.683594 163.550781 C 231.5625 163.582031 229.59375 164.902344 227.25 164.902344 Z M 227.25 164.902344 " fill-opacity="1" fill-rule="nonzero"/><path fill="#ffffff" d="M 223.269531 165.789062 C 222.1875 165.789062 221.421875 165.503906 221.40625 165.503906 C 221.179688 165.414062 221.058594 165.160156 221.148438 164.917969 C 221.242188 164.695312 221.496094 164.574219 221.734375 164.664062 C 221.917969 164.722656 226.0625 166.226562 228.375 161.027344 C 230.824219 155.53125 229.382812 141.257812 229.367188 141.105469 C 229.339844 140.867188 229.519531 140.640625 229.773438 140.613281 C 230.015625 140.582031 230.238281 140.761719 230.269531 141.015625 C 230.328125 141.617188 231.757812 155.679688 229.203125 161.386719 C 227.550781 165.070312 224.996094 165.789062 223.269531 165.789062 Z M 223.269531 165.789062 " fill-opacity="1" fill-rule="nonzero"/><path fill="#d5d9f7" d="M 249.457031 154.070312 L 247.816406 153.847656 C 247.847656 153.679688 250.117188 136.839844 249.800781 125.003906 C 249.769531 124.132812 249.757812 123.289062 249.742188 122.507812 C 249.515625 112.414062 249.457031 109.363281 240.578125 107.53125 C 236.550781 106.703125 232.972656 107.367188 230.238281 109.453125 C 226.90625 112.007812 224.875 116.542969 224.515625 122.253906 C 223.898438 132.09375 224.457031 134.210938 224.484375 134.285156 L 224.484375 134.273438 L 222.921875 134.796875 C 222.847656 134.585938 222.246094 132.410156 222.878906 122.148438 C 223.269531 115.957031 225.523438 110.984375 229.25 108.132812 C 232.375 105.742188 236.414062 104.976562 240.921875 105.910156 C 251.09375 108.011719 251.183594 112.25 251.410156 122.464844 C 251.425781 123.261719 251.4375 124.085938 251.46875 124.957031 C 251.769531 136.929688 249.484375 153.90625 249.457031 154.070312 Z M 249.457031 154.070312 " fill-opacity="1" fill-rule="nonzero"/><path fill="#09122d" d="M 218.746094 143.046875 C 218.324219 143.046875 217.964844 142.714844 217.921875 142.292969 C 217.90625 142.128906 217.589844 138.164062 219.691406 135.652344 C 220.667969 134.496094 221.992188 133.835938 223.613281 133.699219 C 225.433594 133.550781 226.949219 134.015625 228.136719 135.113281 C 230.644531 137.425781 230.675781 141.679688 230.675781 141.859375 C 230.675781 142.308594 230.300781 142.683594 229.847656 142.683594 C 229.398438 142.683594 229.023438 142.308594 229.023438 141.859375 C 229.023438 141.828125 228.992188 138.132812 227.007812 136.328125 C 226.167969 135.5625 225.101562 135.234375 223.75 135.351562 C 221.796875 135.519531 220.550781 136.628906 219.917969 138.75 C 219.421875 140.445312 219.558594 142.144531 219.558594 142.160156 C 219.601562 142.609375 219.257812 143.015625 218.804688 143.046875 C 218.792969 143.046875 218.777344 143.046875 218.746094 143.046875 Z M 218.746094 143.046875 " fill-opacity="1" fill-rule="nonzero"/><path fill="#09122d" d="M 222.277344 163.429688 C 219.949219 161.28125 217.648438 162.546875 218.429688 164.304688 C 219.210938 166.058594 221.917969 166.542969 223.101562 165.894531 C 224.289062 165.25 222.757812 163.867188 222.277344 163.429688 Z M 222.277344 163.429688 " fill-opacity="1" fill-rule="nonzero"/><path fill="#09122d" d="M 230.058594 162.351562 C 232.386719 160.203125 234.6875 161.464844 233.90625 163.222656 C 233.125 164.980469 230.421875 165.460938 229.234375 164.8125 C 228.046875 164.167969 229.578125 162.785156 230.058594 162.351562 Z M 230.058594 162.351562 " fill-opacity="1" fill-rule="nonzero"/><path fill="#ffffff" d="M 252.371094 157.285156 C 252.371094 157.582031 252.347656 157.871094 252.296875 158.160156 C 252.25 158.449219 252.175781 158.730469 252.082031 159 C 251.984375 159.273438 251.867188 159.53125 251.730469 159.773438 C 251.589844 160.019531 251.433594 160.246094 251.257812 160.453125 C 251.082031 160.660156 250.886719 160.847656 250.679688 161.007812 C 250.472656 161.171875 250.253906 161.3125 250.023438 161.421875 C 249.792969 161.535156 249.554688 161.621094 249.3125 161.679688 C 249.066406 161.734375 248.820312 161.765625 248.570312 161.765625 C 248.320312 161.765625 248.074219 161.734375 247.828125 161.679688 C 247.582031 161.621094 247.34375 161.535156 247.113281 161.421875 C 246.882812 161.3125 246.664062 161.171875 246.457031 161.007812 C 246.25 160.847656 246.058594 160.660156 245.882812 160.453125 C 245.703125 160.246094 245.546875 160.019531 245.410156 159.773438 C 245.269531 159.53125 245.152344 159.273438 245.058594 159 C 244.960938 158.730469 244.890625 158.449219 244.839844 158.160156 C 244.792969 157.871094 244.769531 157.582031 244.769531 157.285156 C 244.769531 156.992188 244.792969 156.703125 244.839844 156.414062 C 244.890625 156.125 244.960938 155.84375 245.058594 155.574219 C 245.152344 155.300781 245.269531 155.042969 245.410156 154.800781 C 245.546875 154.554688 245.703125 154.328125 245.882812 154.121094 C 246.058594 153.914062 246.25 153.726562 246.457031 153.566406 C 246.664062 153.402344 246.882812 153.261719 247.113281 153.152344 C 247.34375 153.039062 247.582031 152.953125 247.828125 152.894531 C 248.074219 152.839844 248.320312 152.808594 248.570312 152.808594 C 248.820312 152.808594 249.066406 152.839844 249.3125 152.894531 C 249.554688 152.953125 249.792969 153.039062 250.023438 153.152344 C 250.253906 153.261719 250.472656 153.402344 250.679688 153.566406 C 250.886719 153.726562 251.082031 153.914062 251.257812 154.121094 C 251.433594 154.328125 251.589844 154.554688 251.730469 154.800781 C 251.867188 155.042969 251.984375 155.300781 252.082031 155.574219 C 252.175781 155.84375 252.25 156.125 252.296875 156.414062 C 252.347656 156.703125 252.371094 156.992188 252.371094 157.285156 Z M 252.371094 157.285156 " fill-opacity="1" fill-rule="nonzero"/><path fill="#09122d" d="M 286.386719 186.535156 L 41.117188 186.535156 C 40.90625 186.535156 40.742188 186.371094 40.742188 186.160156 C 40.742188 185.949219 40.90625 185.785156 41.117188 185.785156 L 286.386719 185.785156 C 286.59375 185.785156 286.761719 185.949219 286.761719 186.160156 C 286.761719 186.371094 286.59375 186.535156 286.386719 186.535156 Z M 286.386719 186.535156 " fill-opacity="1" fill-rule="nonzero"/><path fill="#09122d" d="M 128.015625 167.816406 C 128.015625 167.816406 123.359375 178.484375 132.988281 184.386719 C 142.621094 190.292969 191.734375 187.199219 191.734375 187.199219 L 191.734375 189.660156 C 191.734375 189.660156 156.621094 191.613281 139.164062 188.96875 C 124.140625 186.703125 123.402344 174.683594 125.222656 168.359375 C 127.054688 162.050781 128.015625 167.816406 128.015625 167.816406 Z M 128.015625 167.816406 " fill-opacity="1" fill-rule="nonzero"/><path fill="#f798b3" d="M 86.128906 109.332031 C 86.128906 109.332031 86.097656 110.957031 85.046875 112.910156 C 83.996094 114.863281 83.890625 115.71875 83.890625 115.71875 C 83.890625 115.71875 86.324219 127.542969 95.457031 125.632812 C 103.585938 123.9375 103.585938 121.125 103.585938 121.125 L 103.585938 118.632812 C 103.585938 118.632812 103.496094 118.046875 104.414062 117.714844 C 105.328125 117.386719 107.371094 115.988281 112.121094 110.054688 C 116.867188 104.121094 123.148438 87.957031 121.40625 86.332031 C 119.664062 84.710938 106.261719 80.054688 106.261719 80.054688 C 106.261719 80.054688 83.003906 95.84375 82.972656 95.976562 C 82.945312 96.113281 80.496094 97.195312 80.601562 99.148438 C 80.703125 101.101562 82.945312 103.28125 82.945312 103.28125 Z M 86.128906 109.332031 " fill-opacity="1" fill-rule="nonzero"/><path fill="#f798b3" d="M 215.9375 89.9375 C 215.9375 89.9375 215.019531 93.726562 218.6875 102.167969 C 222.351562 110.609375 226.589844 113.421875 226.589844 113.421875 C 226.589844 113.421875 227.492188 113.316406 227.339844 114.53125 C 227.191406 115.75 227.21875 117.746094 227.867188 118.828125 C 228.511719 119.910156 232.402344 127.855469 234.523438 128.292969 C 236.640625 128.726562 246.480469 114.5 246.480469 113.480469 C 246.480469 112.457031 245.265625 110.324219 244.949219 107.277344 C 244.632812 104.226562 244.4375 102.316406 244.4375 102.316406 C 244.4375 102.316406 244.421875 101.703125 245.007812 101.671875 C 245.59375 101.640625 248.328125 99.191406 248.496094 96.277344 C 248.660156 93.363281 246.375 91.304688 246.707031 91.847656 C 247.035156 92.386719 241.554688 82.441406 241.554688 82.441406 L 215.847656 84.757812 Z M 215.9375 89.9375 " fill-opacity="1" fill-rule="nonzero"/><path fill="#09122d" d="M 82.703125 103.054688 C 82.703125 103.054688 83.140625 104.722656 83.890625 107.304688 C 84.640625 109.890625 85.527344 111.453125 85.527344 111.453125 L 86.953125 106.222656 C 86.953125 106.222656 86.324219 105.292969 85.976562 105.171875 C 85.632812 105.050781 82.703125 103.054688 82.703125 103.054688 Z M 82.703125 103.054688 " fill-opacity="1" fill-rule="nonzero"/><path fill="#09122d" d="M 238.714844 85.402344 C 238.714844 85.402344 234.3125 87.414062 226.09375 87.492188 C 217.875 87.566406 217.542969 86.980469 217.542969 86.980469 C 217.542969 86.980469 217.257812 89.609375 217.289062 92.75 C 217.320312 95.886719 217.800781 99.386719 217.800781 99.386719 C 217.800781 99.386719 213.683594 96.144531 212.828125 90.945312 C 211.96875 85.746094 212.617188 82.863281 212.617188 82.863281 C 212.617188 82.863281 209.523438 79.257812 208.800781 74.136719 C 208.078125 69.011719 210.03125 68.082031 213.050781 68.9375 C 216.070312 69.792969 218.023438 66.847656 222.863281 64.039062 C 227.699219 61.230469 235.046875 61.230469 240.605469 64.835938 C 246.164062 68.441406 246.945312 73.277344 246.945312 73.277344 C 246.945312 73.277344 253.722656 71.761719 254.160156 80.488281 C 254.59375 89.21875 248.027344 93.90625 248.027344 93.90625 C 248.027344 93.90625 245.070312 93.90625 244.421875 96.714844 C 243.777344 99.523438 242.46875 100.9375 242.320312 98.503906 C 242.167969 96.070312 242.921875 94.070312 240.589844 91.261719 C 238.261719 88.453125 238.714844 85.402344 238.714844 85.402344 Z M 238.714844 85.402344 " fill-opacity="1" fill-rule="nonzero"/><path fill="#09122d" d="M 111.144531 87.625 C 111.144531 87.625 114.3125 84.109375 116.265625 89.652344 C 118.21875 95.195312 113.171875 107.832031 113.171875 107.832031 C 113.171875 107.832031 125.640625 108.042969 125.792969 97.527344 C 125.941406 87.007812 121.105469 76.238281 119.300781 75.082031 C 117.5 73.925781 114.042969 75.800781 113.171875 75.082031 C 112.300781 74.359375 109.925781 64.835938 102.789062 68.082031 C 95.652344 71.324219 89.296875 75.441406 84.761719 76.882812 C 80.222656 78.328125 78.78125 83.089844 79.351562 88.992188 C 79.921875 94.898438 81.230469 97.570312 81.230469 97.570312 C 81.230469 97.570312 84.117188 96.128906 86.429688 99.375 C 88.742188 102.617188 88.742188 107.230469 90.246094 102.332031 C 91.761719 97.433594 90.53125 95.332031 94.136719 95.632812 C 97.742188 95.933594 102.144531 91.425781 103.722656 87.609375 C 105.300781 83.792969 107.253906 83.375 109.054688 84.457031 C 110.859375 85.539062 111.144531 87.625 111.144531 87.625 Z M 111.144531 87.625 " fill-opacity="1" fill-rule="nonzero"/><path fill="#09122d" d="M 231.203125 115.554688 C 231.097656 115.554688 231.007812 115.554688 230.902344 115.554688 C 228.285156 115.433594 225.824219 113.824219 222.921875 110.339844 C 218.777344 105.367188 215.320312 94.492188 215.171875 94.023438 C 215.109375 93.828125 215.214844 93.621094 215.410156 93.558594 C 215.605469 93.5 215.816406 93.605469 215.875 93.800781 C 215.90625 93.90625 219.4375 105.007812 223.492188 109.859375 C 226.257812 113.164062 228.542969 114.695312 230.929688 114.800781 C 233.09375 114.90625 235.316406 113.78125 237.722656 111.375 C 243.671875 105.425781 243.671875 101.445312 243.671875 101.417969 C 243.671875 101.265625 243.746094 101.144531 243.882812 101.070312 C 244.015625 101.011719 244.167969 101.027344 244.273438 101.101562 C 244.273438 101.101562 244.527344 101.265625 244.949219 101.175781 C 245.460938 101.054688 246.269531 100.558594 247.261719 98.832031 C 249.125 95.574219 247.335938 93.605469 247.308594 93.574219 C 247.171875 93.425781 247.171875 93.183594 247.324219 93.046875 C 247.472656 92.914062 247.714844 92.914062 247.847656 93.0625 C 247.9375 93.152344 250.027344 95.46875 247.894531 99.207031 C 246.976562 100.816406 246.03125 101.71875 245.054688 101.914062 C 244.785156 101.972656 244.558594 101.957031 244.363281 101.925781 C 244.183594 103.25 243.222656 106.929688 238.234375 111.902344 C 235.8125 114.367188 233.5 115.554688 231.203125 115.554688 Z M 231.203125 115.554688 " fill-opacity="1" fill-rule="nonzero"/><path fill="#09122d" d="M 227.339844 118.289062 C 227.128906 118.289062 226.964844 118.121094 226.964844 117.910156 L 226.964844 113.945312 C 226.964844 113.734375 227.128906 113.570312 227.339844 113.570312 C 227.550781 113.570312 227.714844 113.734375 227.714844 113.945312 L 227.714844 117.910156 C 227.714844 118.121094 227.535156 118.289062 227.339844 118.289062 Z M 227.339844 118.289062 " fill-opacity="1" fill-rule="nonzero"/><path fill="#09122d" d="M 245.820312 112.234375 C 245.65625 112.234375 245.503906 112.113281 245.460938 111.949219 C 244.0625 106.449219 244.152344 101.613281 244.152344 101.550781 C 244.152344 101.339844 244.332031 101.175781 244.542969 101.191406 C 244.753906 101.191406 244.917969 101.371094 244.902344 101.582031 C 244.902344 101.625 244.8125 106.375 246.195312 111.765625 C 246.242188 111.960938 246.121094 112.171875 245.925781 112.21875 C 245.878906 112.234375 245.851562 112.234375 245.820312 112.234375 Z M 245.820312 112.234375 " fill-opacity="1" fill-rule="nonzero"/><path fill="#09122d" d="M 100.613281 119.339844 C 99.9375 119.339844 99.257812 119.203125 98.613281 118.902344 C 92.226562 116.019531 87.902344 107.335938 87.164062 105.789062 C 86.445312 105.757812 84.355469 105.414062 81.9375 102.796875 C 78.855469 99.492188 80.929688 97.332031 80.960938 97.300781 C 81.109375 97.148438 81.351562 97.148438 81.484375 97.300781 C 81.636719 97.449219 81.636719 97.675781 81.484375 97.824219 C 81.410156 97.902344 79.921875 99.523438 82.476562 102.289062 C 85.167969 105.171875 87.34375 105.035156 87.359375 105.035156 C 87.527344 105.023438 87.675781 105.113281 87.734375 105.261719 C 87.78125 105.367188 92.304688 115.222656 98.914062 118.210938 C 105.34375 121.125 114.734375 105.59375 114.824219 105.441406 C 114.929688 105.261719 115.15625 105.203125 115.335938 105.308594 C 115.515625 105.414062 115.574219 105.636719 115.46875 105.816406 C 115.109375 106.433594 107.3125 119.339844 100.613281 119.339844 Z M 100.613281 119.339844 " fill-opacity="1" fill-rule="nonzero"/><path fill="#09122d" d="M 83.890625 116.09375 C 83.828125 116.09375 83.785156 116.078125 83.726562 116.0625 C 83.542969 115.972656 83.453125 115.75 83.542969 115.566406 C 85.769531 110.910156 86.5625 105.425781 86.578125 105.367188 C 86.609375 105.15625 86.804688 105.023438 87 105.050781 C 87.210938 105.082031 87.34375 105.277344 87.316406 105.472656 C 87.300781 105.53125 86.488281 111.136719 84.21875 115.882812 C 84.160156 116.003906 84.023438 116.09375 83.890625 116.09375 Z M 83.890625 116.09375 " fill-opacity="1" fill-rule="nonzero"/><path fill="#09122d" d="M 103.585938 121.503906 C 103.375 121.503906 103.210938 121.335938 103.210938 121.125 L 103.210938 118.167969 C 103.210938 117.957031 103.375 117.792969 103.585938 117.792969 C 103.796875 117.792969 103.960938 117.957031 103.960938 118.167969 L 103.960938 121.125 C 103.960938 121.335938 103.796875 121.503906 103.585938 121.503906 Z M 103.585938 121.503906 " fill-opacity="1" fill-rule="nonzero"/><path fill="#f798b3" d="M 271.40625 162.648438 C 271.511719 162.859375 273.675781 169.410156 273.675781 169.410156 C 273.675781 169.410156 263.609375 171.84375 257.660156 172.984375 C 251.710938 174.128906 244.40625 174.773438 240.351562 174.546875 C 236.292969 174.324219 233.214844 172.445312 230.238281 173.195312 C 227.265625 173.949219 222.230469 175.902344 220.609375 176.652344 C 218.988281 177.402344 212.015625 183.246094 210.8125 184.011719 C 209.625 184.765625 210.4375 185.847656 216.851562 185.847656 L 223.597656 185.847656 C 224.726562 185.847656 226.769531 184.644531 228.496094 184.644531 C 230.421875 184.644531 232.898438 185.847656 234.507812 185.847656 L 283.890625 185.847656 C 283.890625 185.847656 296.960938 184.6875 295.730469 175.40625 C 294.511719 166.136719 292.257812 158.261719 292.257812 158.261719 C 292.257812 158.261719 288.910156 159.496094 282.207031 160.96875 C 275.507812 162.441406 271.40625 162.648438 271.40625 162.648438 Z M 271.40625 162.648438 " fill-opacity="1" fill-rule="nonzero"/><path fill="#09122d" d="M 211.398438 185.726562 C 211.292969 185.726562 211.175781 185.679688 211.097656 185.574219 C 210.964844 185.410156 210.992188 185.167969 211.160156 185.050781 C 211.488281 184.792969 219.347656 178.621094 222.832031 177.6875 C 223.027344 177.628906 223.238281 177.75 223.296875 177.957031 C 223.359375 178.152344 223.238281 178.363281 223.027344 178.425781 C 219.679688 179.3125 211.699219 185.589844 211.625 185.652344 C 211.566406 185.695312 211.488281 185.726562 211.398438 185.726562 Z M 211.398438 185.726562 " fill-opacity="1" fill-rule="nonzero"/><path fill="#546dcd" d="M 268.492188 162.921875 C 268.492188 162.921875 259.730469 140.714844 259.730469 130.15625 C 259.730469 119.59375 258.351562 113.601562 263.097656 115.175781 C 267.859375 116.753906 274.921875 120.136719 282.929688 134.496094 C 290.9375 148.859375 293.957031 157.390625 293.957031 157.390625 C 293.957031 157.390625 289.34375 160.261719 281.050781 161.386719 C 272.757812 162.515625 268.492188 162.921875 268.492188 162.921875 Z M 268.492188 162.921875 " fill-opacity="1" fill-rule="nonzero"/><path fill="#09122d" d="M 214.015625 186.132812 C 213.894531 186.132812 213.789062 186.085938 213.714844 185.980469 C 213.59375 185.816406 213.625 185.574219 213.789062 185.457031 C 214.027344 185.273438 219.753906 180.992188 224.726562 179.492188 C 224.921875 179.429688 225.132812 179.535156 225.191406 179.746094 C 225.25 179.957031 225.148438 180.152344 224.9375 180.210938 C 220.082031 181.683594 214.285156 186.027344 214.222656 186.070312 C 214.164062 186.101562 214.089844 186.132812 214.015625 186.132812 Z M 214.015625 186.132812 " fill-opacity="1" fill-rule="nonzero"/><path fill="#09122d" d="M 216.867188 186.222656 C 216.734375 186.222656 216.613281 186.144531 216.539062 186.027344 C 216.433594 185.847656 216.507812 185.621094 216.6875 185.515625 C 216.972656 185.363281 223.644531 181.746094 228.03125 181.097656 C 228.242188 181.070312 228.421875 181.203125 228.453125 181.414062 C 228.480469 181.625 228.347656 181.804688 228.136719 181.835938 C 223.882812 182.464844 217.109375 186.132812 217.046875 186.175781 C 216.988281 186.207031 216.929688 186.222656 216.867188 186.222656 Z M 216.867188 186.222656 " fill-opacity="1" fill-rule="nonzero"/><path fill="#09122d" d="M 240.15625 186.222656 C 235.753906 186.222656 234.265625 186.222656 230.480469 185.273438 C 226.933594 184.386719 223.945312 186.144531 223.914062 186.175781 C 223.734375 186.28125 223.507812 186.222656 223.402344 186.042969 C 223.296875 185.859375 223.359375 185.636719 223.523438 185.53125 C 223.660156 185.457031 226.800781 183.59375 230.660156 184.554688 C 234.371094 185.484375 235.828125 185.484375 240.15625 185.484375 C 240.367188 185.484375 240.53125 185.652344 240.53125 185.859375 C 240.53125 186.070312 240.367188 186.222656 240.15625 186.222656 Z M 240.15625 186.222656 " fill-opacity="1" fill-rule="nonzero"/><path fill="#f798b3" d="M 194.511719 162.742188 L 194.511719 165.957031 C 194.511719 165.957031 190.394531 165.773438 189.027344 164.347656 C 187.660156 162.921875 188.023438 163.207031 187.585938 160.757812 C 187.152344 158.308594 185.933594 155.816406 184.191406 152.359375 C 182.449219 148.902344 182.824219 145.539062 182.386719 144.21875 C 181.953125 142.894531 179.324219 141.152344 178.421875 144.683594 C 177.519531 148.214844 179.535156 151.535156 179.171875 152.464844 C 178.8125 153.394531 174.230469 153.875 173.507812 153.261719 C 172.789062 152.644531 171.886719 149.984375 171.554688 149.625 C 171.226562 149.265625 172.742188 148.257812 172.96875 146.921875 C 173.191406 145.585938 172.636719 143.390625 171.238281 144.9375 C 170.472656 145.792969 170.113281 146.230469 169.332031 147.238281 C 169.121094 147.507812 168.296875 146.890625 168.113281 147.148438 C 167.753906 147.65625 167.484375 149.65625 167.347656 150 C 166.867188 151.15625 169.078125 154.222656 169.4375 154.929688 C 169.796875 155.632812 168.429688 158.144531 169.585938 159.691406 C 170.746094 161.238281 172.503906 162.140625 172.472656 162.9375 C 172.441406 163.730469 172.578125 164.09375 173.988281 165.429688 C 175.402344 166.765625 175.402344 166.691406 176.769531 169.367188 C 178.136719 172.039062 182.539062 172.039062 185.273438 173.542969 C 188.007812 175.042969 200.988281 185.183594 203.585938 185.378906 C 206.1875 185.574219 210.484375 185.574219 210.363281 180.242188 C 210.226562 174.910156 208.710938 164.015625 208.710938 164.015625 Z M 194.511719 162.742188 " fill-opacity="1" fill-rule="nonzero"/><path fill="#09122d" d="M 202.730469 170.070312 C 202.65625 170.070312 202.59375 170.054688 202.519531 170.011719 C 202.476562 169.980469 197.441406 166.765625 194.453125 166.316406 C 194.242188 166.285156 194.105469 166.089844 194.136719 165.894531 C 194.167969 165.699219 194.363281 165.550781 194.558594 165.578125 C 197.710938 166.046875 202.714844 169.246094 202.925781 169.378906 C 203.105469 169.484375 203.152344 169.726562 203.046875 169.90625 C 202.972656 170.011719 202.851562 170.070312 202.730469 170.070312 Z M 202.730469 170.070312 " fill-opacity="1" fill-rule="nonzero"/><path fill="#546dcd" d="M 210.828125 119.863281 C 210.167969 120.269531 199.742188 125.707031 197.035156 138.359375 C 194.332031 151.023438 193.25 162.921875 193.25 162.921875 L 208.726562 164.003906 C 208.726562 164.003906 209.328125 145.449219 211.414062 134.496094 C 213.503906 123.546875 210.828125 119.863281 210.828125 119.863281 Z M 210.828125 119.863281 " fill-opacity="1" fill-rule="nonzero"/><path fill="#09122d" d="M 286.023438 170.929688 C 285.917969 170.929688 285.84375 170.898438 285.589844 170.777344 C 280.824219 168.765625 276.527344 169.109375 273.765625 169.757812 C 273.570312 169.800781 273.359375 169.679688 273.3125 169.472656 C 273.269531 169.277344 273.390625 169.066406 273.597656 169.019531 C 276.484375 168.34375 280.945312 167.984375 285.890625 170.085938 C 285.980469 170.132812 286.070312 170.160156 286.113281 170.175781 C 286.292969 170.207031 286.414062 170.355469 286.414062 170.550781 C 286.398438 170.761719 286.234375 170.929688 286.023438 170.929688 Z M 286.023438 170.175781 Z M 286.023438 170.175781 Z M 286.023438 170.175781 " fill-opacity="1" fill-rule="nonzero"/><path fill="#09122d" d="M 186.21875 170.070312 C 186.144531 170.070312 186.070312 170.054688 186.007812 170.011719 C 185.84375 169.890625 185.796875 169.664062 185.902344 169.484375 C 186.609375 168.449219 186.566406 166.226562 186.488281 165.445312 C 186.476562 165.355469 186.503906 165.25 186.566406 165.175781 C 187.632812 163.808594 187.359375 161.792969 187.359375 161.777344 C 187.332031 161.570312 187.480469 161.386719 187.675781 161.359375 C 187.886719 161.328125 188.066406 161.476562 188.097656 161.671875 C 188.113281 161.765625 188.398438 163.914062 187.242188 165.519531 C 187.285156 166.152344 187.40625 168.613281 186.519531 169.90625 C 186.460938 170.011719 186.339844 170.070312 186.21875 170.070312 Z M 186.21875 170.070312 " fill-opacity="1" fill-rule="nonzero"/><path fill="#09122d" d="M 172.96875 156.6875 C 172.773438 156.6875 172.605469 156.519531 172.59375 156.324219 C 172.53125 154.777344 172.1875 152.121094 171.539062 151.5625 C 171.527344 151.546875 171.511719 151.546875 171.511719 151.546875 C 171.195312 151.5625 170.382812 153.066406 169.828125 155.019531 C 169.769531 155.214844 169.558594 155.335938 169.363281 155.273438 C 169.167969 155.214844 169.046875 155.003906 169.105469 154.808594 C 169.363281 153.953125 170.25 151.144531 171.300781 150.84375 C 171.554688 150.765625 171.824219 150.828125 172.035156 151.007812 C 173.148438 151.953125 173.34375 155.859375 173.359375 156.3125 C 173.375 156.519531 173.207031 156.6875 172.996094 156.699219 C 172.984375 156.6875 172.96875 156.6875 172.96875 156.6875 Z M 172.96875 156.6875 " fill-opacity="1" fill-rule="nonzero"/><path fill="#09122d" d="M 177.941406 164.964844 C 177.851562 164.964844 177.761719 164.933594 177.699219 164.875 C 177.683594 164.875 176.933594 164.210938 176.332031 163.671875 C 175.851562 163.234375 175.65625 162.0625 175.402344 160.351562 C 175.328125 159.839844 175.265625 159.34375 175.191406 158.984375 C 174.964844 157.917969 174.246094 156.519531 173.6875 156.371094 C 173.628906 156.355469 173.480469 156.3125 173.238281 156.566406 C 172.503906 157.378906 172.578125 160.726562 172.816406 162.648438 C 172.847656 162.859375 172.699219 163.039062 172.488281 163.070312 C 172.277344 163.101562 172.097656 162.949219 172.066406 162.742188 C 172.007812 162.199219 171.464844 157.390625 172.683594 156.070312 C 173.132812 155.574219 173.582031 155.574219 173.882812 155.648438 C 174.980469 155.949219 175.730469 157.933594 175.925781 158.835938 C 176.003906 159.226562 176.078125 159.722656 176.152344 160.246094 C 176.304688 161.269531 176.511719 162.832031 176.84375 163.117188 C 177.429688 163.640625 178.179688 164.289062 178.179688 164.304688 C 178.332031 164.4375 178.363281 164.679688 178.226562 164.828125 C 178.152344 164.917969 178.046875 164.964844 177.941406 164.964844 Z M 177.941406 164.964844 " fill-opacity="1" fill-rule="nonzero"/><path fill="#09122d" d="M 167.648438 152.105469 C 167.46875 152.105469 167.304688 151.96875 167.273438 151.773438 C 167.257812 151.652344 167.230469 151.472656 167.183594 151.277344 C 166.941406 149.972656 166.507812 147.523438 167.890625 146.695312 C 168.21875 146.5 168.582031 146.457031 168.925781 146.574219 C 169.707031 146.816406 170.472656 147.792969 171.269531 149.550781 L 171.300781 149.625 C 171.511719 150.089844 171.917969 150.902344 171.929688 150.917969 C 172.019531 151.097656 171.945312 151.324219 171.765625 151.429688 C 171.585938 151.519531 171.359375 151.441406 171.253906 151.261719 C 171.238281 151.234375 170.835938 150.421875 170.625 149.957031 L 170.59375 149.878906 C 169.691406 147.882812 169.03125 147.417969 168.714844 147.3125 C 168.566406 147.265625 168.429688 147.28125 168.28125 147.371094 C 167.347656 147.929688 167.738281 150.121094 167.933594 151.1875 C 167.964844 151.398438 168.011719 151.578125 168.023438 151.714844 C 168.054688 151.925781 167.90625 152.105469 167.710938 152.132812 C 167.695312 152.105469 167.679688 152.105469 167.648438 152.105469 Z M 167.648438 152.105469 " fill-opacity="1" fill-rule="nonzero"/><path fill="#09122d" d="M 171.945312 151.546875 C 171.765625 151.546875 171.617188 151.429688 171.570312 151.234375 L 171.226562 149.339844 C 171.210938 149.21875 171.238281 149.097656 171.332031 149.007812 C 171.34375 148.996094 173.117188 147.160156 172.605469 145.6875 C 172.53125 145.492188 172.636719 145.285156 172.832031 145.207031 C 173.027344 145.132812 173.238281 145.238281 173.3125 145.433594 C 173.882812 147.085938 172.457031 148.875 171.992188 149.386719 L 172.308594 151.097656 C 172.335938 151.308594 172.203125 151.503906 172.007812 151.535156 C 171.992188 151.546875 171.960938 151.546875 171.945312 151.546875 Z M 171.945312 151.546875 " fill-opacity="1" fill-rule="nonzero"/><path fill="#f798b3" d="M 142.574219 164.589844 C 142.574219 164.589844 147.789062 166.375 156.082031 173.664062 C 164.375 180.949219 169.496094 183.726562 169.390625 183.683594 C 169.285156 183.636719 169.542969 182.628906 170.445312 182.527344 C 171.34375 182.421875 172.246094 183.246094 172.246094 183.246094 C 172.246094 183.246094 171.917969 181.730469 172.9375 180.976562 C 173.945312 180.226562 175.132812 181.054688 175.132812 181.054688 C 175.132812 181.054688 174.46875 178.632812 176.019531 177.898438 C 177.566406 177.164062 178.347656 178.46875 178.347656 178.46875 C 178.347656 178.46875 178.269531 176.605469 179.367188 176.140625 C 180.464844 175.675781 183.859375 179.519531 183.859375 179.519531 C 183.859375 179.519531 184.070312 176.652344 185.917969 177.523438 C 187.75 178.394531 187.480469 181.414062 187.8125 184.011719 C 188.140625 186.613281 187.917969 190.609375 188.023438 191.75 C 188.128906 192.890625 185.109375 193.371094 183.859375 194.242188 C 182.613281 195.113281 180.238281 196.46875 177.535156 196.03125 C 174.832031 195.59375 171.375 195.925781 166.386719 193.808594 C 161.398438 191.691406 139.945312 184.613281 135.496094 181.714844 C 131.050781 178.816406 127.054688 172.113281 127.054688 172.113281 C 127.054688 172.113281 130.238281 168.117188 134.417969 166.542969 C 138.5625 164.964844 142.574219 164.589844 142.574219 164.589844 Z M 142.574219 164.589844 " fill-opacity="1" fill-rule="nonzero"/><path fill="#09122d" d="M 168.113281 192.140625 C 168.101562 192.140625 168.101562 192.140625 168.085938 192.140625 C 167.875 192.125 167.722656 191.945312 167.738281 191.734375 C 167.800781 190.96875 168.386719 184.191406 168.6875 183.351562 C 168.761719 183.15625 168.972656 183.050781 169.167969 183.125 C 169.363281 183.203125 169.46875 183.410156 169.390625 183.605469 C 169.183594 184.164062 168.730469 188.925781 168.492188 191.78125 C 168.476562 191.988281 168.308594 192.140625 168.113281 192.140625 Z M 168.113281 192.140625 " fill-opacity="1" fill-rule="nonzero"/><path fill="#09122d" d="M 172.878906 190.039062 C 172.683594 190.039062 172.515625 189.886719 172.503906 189.707031 L 171.855469 183.292969 C 171.839844 183.082031 171.992188 182.902344 172.1875 182.886719 C 172.398438 182.871094 172.578125 183.019531 172.59375 183.214844 L 173.238281 189.632812 C 173.253906 189.84375 173.101562 190.023438 172.90625 190.039062 C 172.90625 190.039062 172.894531 190.039062 172.878906 190.039062 Z M 172.878906 190.039062 " fill-opacity="1" fill-rule="nonzero"/><path fill="#09122d" d="M 178.855469 188.925781 C 178.691406 188.925781 178.527344 188.804688 178.496094 188.625 C 177.761719 185.289062 174.847656 181.308594 174.816406 181.265625 C 174.695312 181.097656 174.726562 180.859375 174.890625 180.738281 C 175.054688 180.617188 175.296875 180.648438 175.417969 180.8125 C 175.535156 180.976562 178.464844 184.960938 179.234375 188.460938 C 179.277344 188.65625 179.144531 188.867188 178.949219 188.910156 C 178.917969 188.925781 178.886719 188.925781 178.855469 188.925781 Z M 178.855469 188.925781 " fill-opacity="1" fill-rule="nonzero"/><path fill="#09122d" d="M 183.410156 186.835938 C 183.230469 186.835938 183.0625 186.703125 183.035156 186.523438 C 182.523438 183.1875 178.105469 178.785156 178.0625 178.738281 C 177.910156 178.589844 177.910156 178.347656 178.0625 178.214844 C 178.210938 178.0625 178.453125 178.0625 178.585938 178.214844 C 178.78125 178.394531 183.230469 182.839844 183.785156 186.417969 C 183.816406 186.628906 183.679688 186.808594 183.46875 186.851562 C 183.441406 186.835938 183.425781 186.835938 183.410156 186.835938 Z M 183.410156 186.835938 " fill-opacity="1" fill-rule="nonzero"/><path fill="#09122d" d="M 187.78125 186.222656 C 187.585938 186.222656 187.421875 186.070312 187.40625 185.875 C 187.226562 183.652344 183.605469 179.820312 183.558594 179.777344 C 183.425781 179.625 183.425781 179.386719 183.574219 179.25 C 183.726562 179.117188 183.964844 179.117188 184.101562 179.265625 C 184.25 179.429688 187.945312 183.335938 188.140625 185.816406 C 188.15625 186.027344 188.007812 186.207031 187.796875 186.222656 C 187.796875 186.222656 187.796875 186.222656 187.78125 186.222656 Z M 187.78125 186.222656 " fill-opacity="1" fill-rule="nonzero"/><path fill="#f798b3" d="M 54.683594 169.621094 L 54.035156 172.535156 C 54.035156 172.535156 63.984375 173.828125 77.730469 176.757812 C 91.476562 179.6875 97.410156 179.566406 100.550781 178.710938 C 103.691406 177.855469 114.71875 173.078125 116.671875 174.429688 C 118.625 175.78125 125.65625 180.542969 125.222656 181.953125 C 124.785156 183.367188 123.386719 184.386719 123.386719 184.386719 C 123.386719 184.386719 123.597656 185.679688 122.789062 186.386719 C 121.976562 187.09375 121.164062 187.199219 121.164062 187.199219 C 121.164062 187.199219 121 188.550781 119.917969 189.152344 C 118.835938 189.75 117.8125 189.632812 117.8125 189.632812 C 117.8125 189.632812 117.710938 191.734375 116.191406 191.898438 C 114.675781 192.066406 108.558594 190.488281 103.046875 190.609375 C 97.53125 190.726562 41.28125 193.851562 34.144531 188.65625 C 27.007812 183.457031 34.792969 160.53125 34.792969 160.53125 C 34.792969 160.53125 38.90625 159.78125 45.066406 162.484375 C 51.226562 165.1875 54.683594 169.621094 54.683594 169.621094 Z M 54.683594 169.621094 " fill-opacity="1" fill-rule="nonzero"/><path fill="#09122d" d="M 123.375 184.765625 C 123.269531 184.765625 123.164062 184.71875 123.085938 184.628906 C 123.058594 184.597656 120.128906 181.097656 117.738281 180.03125 C 117.542969 179.941406 117.46875 179.730469 117.542969 179.535156 C 117.632812 179.339844 117.84375 179.265625 118.039062 179.339844 C 120.578125 180.484375 123.523438 183.996094 123.660156 184.148438 C 123.792969 184.3125 123.765625 184.539062 123.613281 184.675781 C 123.539062 184.734375 123.449219 184.765625 123.375 184.765625 Z M 123.375 184.765625 " fill-opacity="1" fill-rule="nonzero"/><path fill="#09122d" d="M 121.148438 187.574219 C 121.058594 187.574219 120.953125 187.542969 120.878906 187.46875 C 120.847656 187.4375 117.695312 184.3125 115.171875 183.773438 C 114.976562 183.726562 114.839844 183.53125 114.882812 183.320312 C 114.929688 183.125 115.125 182.992188 115.335938 183.035156 C 118.085938 183.621094 121.285156 186.808594 121.421875 186.941406 C 121.570312 187.09375 121.570312 187.332031 121.421875 187.46875 C 121.34375 187.527344 121.253906 187.574219 121.148438 187.574219 Z M 121.148438 187.574219 " fill-opacity="1" fill-rule="nonzero"/><path fill="#09122d" d="M 117.800781 190.007812 C 117.710938 190.007812 117.617188 189.976562 117.558594 189.917969 C 117.542969 189.902344 115.589844 188.234375 113.425781 187.558594 C 113.230469 187.5 113.113281 187.289062 113.1875 187.09375 C 113.246094 186.898438 113.457031 186.777344 113.652344 186.851562 C 115.964844 187.574219 117.980469 189.285156 118.054688 189.359375 C 118.203125 189.496094 118.234375 189.738281 118.101562 189.886719 C 118.007812 189.960938 117.90625 190.007812 117.800781 190.007812 Z M 117.800781 190.007812 " fill-opacity="1" fill-rule="nonzero"/><path fill="#09122d" d="M 127.054688 172.113281 C 127.054688 172.113281 130.628906 168.375 135.378906 166.675781 C 140.125 164.980469 142.875 164.601562 142.875 164.601562 L 134.957031 149.007812 C 134.957031 149.007812 129.246094 149.445312 124.621094 152.539062 C 120.007812 155.632812 120.292969 158.308594 120.625 158.953125 C 120.953125 159.601562 127.054688 172.113281 127.054688 172.113281 Z M 127.054688 172.113281 " fill-opacity="1" fill-rule="nonzero"/><path fill="#09122d" d="M 191.734375 190.863281 L 191.734375 184.164062 C 191.734375 183.410156 192.347656 182.796875 193.101562 182.796875 L 218.625 182.796875 C 218.925781 182.796875 219.210938 182.902344 219.453125 183.082031 L 225.207031 187.527344 C 225.539062 187.785156 225.734375 188.1875 225.734375 188.609375 L 225.734375 189.105469 C 225.734375 189.707031 225.34375 190.234375 224.769531 190.414062 L 219.078125 192.183594 C 218.941406 192.230469 218.804688 192.246094 218.671875 192.246094 L 193.085938 192.246094 C 192.347656 192.230469 191.734375 191.613281 191.734375 190.863281 Z M 191.734375 190.863281 " fill-opacity="1" fill-rule="nonzero"/><path fill="#546dcd" d="M 54.683594 169.996094 C 54.621094 169.996094 54.5625 169.980469 54.503906 169.953125 C 54.324219 169.847656 54.246094 169.621094 54.351562 169.441406 C 61.578125 155.933594 62.359375 134.722656 62.359375 134.511719 C 62.359375 134.300781 62.539062 134.136719 62.75 134.152344 C 62.960938 134.152344 63.125 134.332031 63.113281 134.542969 C 63.113281 134.753906 62.316406 156.144531 55.011719 169.800781 C 54.9375 169.921875 54.816406 169.996094 54.683594 169.996094 Z M 54.683594 169.996094 " fill-opacity="1" fill-rule="nonzero"/><path fill="#09122d" d="M 210.828125 184.386719 C 210.632812 184.386719 210.484375 184.253906 210.453125 184.058594 L 205.960938 143.933594 C 205.929688 143.722656 206.082031 143.542969 206.292969 143.511719 C 206.5 143.480469 206.683594 143.632812 206.710938 143.839844 L 211.203125 183.96875 C 211.234375 184.179688 211.085938 184.359375 210.875 184.386719 C 210.859375 184.375 210.84375 184.386719 210.828125 184.386719 Z M 210.828125 184.386719 " fill-opacity="1" fill-rule="nonzero"/><path fill="#09122d" d="M 268.492188 163.296875 C 268.324219 163.296875 268.175781 163.191406 268.128906 163.027344 C 268.070312 162.832031 262.121094 143.226562 261.972656 142.699219 C 261.910156 142.503906 262.03125 142.292969 262.226562 142.234375 C 262.421875 142.175781 262.632812 142.277344 262.691406 142.488281 C 262.84375 142.984375 268.011719 160.019531 268.761719 162.515625 C 270.667969 162.273438 280.691406 160.96875 283.273438 160.367188 C 283.46875 160.320312 283.679688 160.441406 283.726562 160.652344 C 283.769531 160.847656 283.652344 161.058594 283.441406 161.101562 C 280.539062 161.777344 269.015625 163.25 268.535156 163.3125 C 268.519531 163.28125 268.507812 163.296875 268.492188 163.296875 Z M 268.492188 163.296875 " fill-opacity="1" fill-rule="nonzero"/><path fill="#09122d" d="M 181.710938 162.679688 C 181.605469 162.679688 181.5 162.636719 181.425781 162.546875 C 180.179688 161.058594 180.074219 159.40625 179.984375 157.664062 C 179.96875 157.421875 179.953125 157.167969 179.9375 156.925781 C 179.804688 154.945312 178.886719 152.390625 178.886719 152.375 C 178.8125 152.179688 178.917969 151.96875 179.113281 151.894531 C 179.308594 151.820312 179.519531 151.925781 179.59375 152.121094 C 179.636719 152.222656 180.539062 154.792969 180.691406 156.882812 C 180.707031 157.136719 180.71875 157.390625 180.734375 157.632812 C 180.839844 159.316406 180.914062 160.773438 182.011719 162.078125 C 182.148438 162.246094 182.132812 162.46875 181.96875 162.605469 C 181.878906 162.648438 181.800781 162.679688 181.710938 162.679688 Z M 181.710938 162.679688 " fill-opacity="1" fill-rule="nonzero"/><path fill="#09122d" d="M 224.410156 98.949219 C 224.445312 99.210938 224.445312 99.464844 224.410156 99.714844 C 224.371094 99.964844 224.300781 100.191406 224.195312 100.394531 C 224.089844 100.597656 223.957031 100.757812 223.800781 100.882812 C 223.640625 101.007812 223.46875 101.082031 223.285156 101.105469 C 223.097656 101.132812 222.914062 101.109375 222.730469 101.03125 C 222.542969 100.957031 222.371094 100.835938 222.214844 100.667969 C 222.058594 100.503906 221.929688 100.304688 221.824219 100.074219 C 221.71875 99.84375 221.648438 99.597656 221.613281 99.335938 C 221.578125 99.078125 221.578125 98.820312 221.617188 98.570312 C 221.652344 98.320312 221.722656 98.09375 221.828125 97.890625 C 221.9375 97.6875 222.066406 97.527344 222.226562 97.402344 C 222.382812 97.277344 222.554688 97.203125 222.738281 97.179688 C 222.925781 97.152344 223.109375 97.179688 223.296875 97.253906 C 223.480469 97.328125 223.652344 97.449219 223.808594 97.617188 C 223.964844 97.78125 224.09375 97.980469 224.199219 98.210938 C 224.304688 98.441406 224.375 98.6875 224.410156 98.949219 Z M 224.410156 98.949219 " fill-opacity="1" fill-rule="nonzero"/><path fill="#09122d" d="M 233.5625 98.738281 C 233.597656 98.996094 233.597656 99.253906 233.558594 99.503906 C 233.523438 99.753906 233.449219 99.980469 233.34375 100.183594 C 233.238281 100.386719 233.109375 100.546875 232.949219 100.671875 C 232.792969 100.796875 232.621094 100.871094 232.4375 100.894531 C 232.25 100.921875 232.066406 100.898438 231.878906 100.820312 C 231.695312 100.746094 231.523438 100.625 231.367188 100.457031 C 231.210938 100.292969 231.078125 100.09375 230.976562 99.863281 C 230.871094 99.632812 230.800781 99.386719 230.765625 99.125 C 230.726562 98.867188 230.726562 98.609375 230.765625 98.359375 C 230.804688 98.109375 230.875 97.882812 230.980469 97.679688 C 231.085938 97.476562 231.21875 97.316406 231.375 97.191406 C 231.53125 97.066406 231.703125 96.992188 231.890625 96.96875 C 232.074219 96.941406 232.261719 96.964844 232.445312 97.042969 C 232.632812 97.117188 232.800781 97.238281 232.957031 97.40625 C 233.117188 97.570312 233.246094 97.769531 233.351562 98 C 233.453125 98.230469 233.523438 98.476562 233.5625 98.738281 Z M 233.5625 98.738281 " fill-opacity="1" fill-rule="nonzero"/><path fill="#09122d" d="M 219.316406 97.734375 C 219.289062 97.734375 219.273438 97.734375 219.242188 97.722656 C 219.03125 97.675781 218.910156 97.480469 218.957031 97.285156 C 219.167969 96.277344 220.097656 94.3125 222.15625 94.117188 C 224.710938 93.875 225.613281 95.679688 225.640625 95.753906 C 225.734375 95.933594 225.65625 96.160156 225.460938 96.25 C 225.28125 96.339844 225.054688 96.265625 224.964844 96.070312 C 224.9375 96.007812 224.246094 94.65625 222.21875 94.851562 C 220.203125 95.03125 219.707031 97.316406 219.679688 97.421875 C 219.648438 97.617188 219.484375 97.734375 219.316406 97.734375 Z M 219.316406 97.734375 " fill-opacity="1" fill-rule="nonzero"/><path fill="#09122d" d="M 235.152344 97.332031 C 234.972656 97.332031 234.820312 97.210938 234.792969 97.03125 C 234.777344 96.925781 234.265625 94.65625 232.253906 94.460938 C 230.226562 94.265625 229.535156 95.632812 229.503906 95.679688 C 229.414062 95.859375 229.1875 95.933594 229.007812 95.84375 C 228.828125 95.753906 228.738281 95.527344 228.828125 95.347656 C 228.859375 95.273438 229.757812 93.46875 232.3125 93.710938 C 234.371094 93.90625 235.304688 95.859375 235.511719 96.878906 C 235.558594 97.089844 235.421875 97.285156 235.226562 97.332031 C 235.199219 97.332031 235.167969 97.332031 235.152344 97.332031 Z M 235.152344 97.332031 " fill-opacity="1" fill-rule="nonzero"/><path fill="#09122d" d="M 228.558594 107.410156 C 228.527344 107.410156 228.511719 107.410156 228.480469 107.394531 C 227.535156 107.199219 226.859375 106.71875 226.46875 105.984375 C 225.539062 104.210938 226.648438 101.535156 226.710938 101.429688 C 226.785156 101.234375 227.007812 101.144531 227.203125 101.234375 C 227.398438 101.3125 227.492188 101.535156 227.398438 101.730469 C 227.386719 101.761719 226.378906 104.179688 227.144531 105.652344 C 227.429688 106.195312 227.925781 106.523438 228.648438 106.675781 C 228.859375 106.71875 228.976562 106.914062 228.933594 107.125 C 228.886719 107.277344 228.722656 107.410156 228.558594 107.410156 Z M 228.558594 107.410156 " fill-opacity="1" fill-rule="nonzero"/><path fill="#09122d" d="M 231.410156 108.175781 C 227.867188 109.109375 227.820312 109.695312 229.488281 110.941406 C 231.171875 112.1875 233.921875 110.835938 234.417969 108.507812 C 234.898438 106.179688 232.132812 107.980469 231.410156 108.175781 Z M 231.410156 108.175781 " fill-opacity="1" fill-rule="nonzero"/><path fill="#09122d" d="M 111.023438 99.074219 C 111.210938 99.101562 111.382812 99.175781 111.539062 99.296875 C 111.699219 99.421875 111.828125 99.585938 111.933594 99.789062 C 112.039062 99.988281 112.113281 100.214844 112.148438 100.46875 C 112.1875 100.71875 112.1875 100.972656 112.152344 101.234375 C 112.113281 101.492188 112.042969 101.738281 111.941406 101.96875 C 111.835938 102.199219 111.707031 102.398438 111.546875 102.566406 C 111.390625 102.730469 111.222656 102.851562 111.035156 102.929688 C 110.851562 103.003906 110.664062 103.027344 110.480469 103.003906 C 110.292969 102.976562 110.121094 102.902344 109.964844 102.78125 C 109.808594 102.65625 109.675781 102.492188 109.570312 102.289062 C 109.464844 102.089844 109.394531 101.863281 109.355469 101.609375 C 109.316406 101.359375 109.316406 101.105469 109.351562 100.84375 C 109.390625 100.585938 109.460938 100.339844 109.5625 100.109375 C 109.667969 99.878906 109.800781 99.679688 109.957031 99.511719 C 110.113281 99.347656 110.285156 99.226562 110.46875 99.148438 C 110.65625 99.074219 110.839844 99.050781 111.023438 99.074219 Z M 111.023438 99.074219 " fill-opacity="1" fill-rule="nonzero"/><path fill="#09122d" d="M 102.15625 96.90625 C 102.34375 96.933594 102.515625 97.007812 102.671875 97.128906 C 102.828125 97.253906 102.960938 97.417969 103.066406 97.617188 C 103.171875 97.820312 103.242188 98.046875 103.28125 98.296875 C 103.320312 98.546875 103.320312 98.804688 103.285156 99.066406 C 103.246094 99.324219 103.175781 99.570312 103.074219 99.800781 C 102.96875 100.03125 102.835938 100.230469 102.679688 100.398438 C 102.523438 100.5625 102.351562 100.683594 102.167969 100.757812 C 101.980469 100.835938 101.796875 100.859375 101.613281 100.835938 C 101.425781 100.808594 101.253906 100.734375 101.097656 100.609375 C 100.9375 100.488281 100.808594 100.324219 100.703125 100.121094 C 100.597656 99.917969 100.523438 99.691406 100.488281 99.441406 C 100.449219 99.191406 100.449219 98.9375 100.484375 98.675781 C 100.523438 98.414062 100.59375 98.171875 100.695312 97.9375 C 100.800781 97.707031 100.929688 97.511719 101.089844 97.34375 C 101.246094 97.179688 101.414062 97.058594 101.601562 96.980469 C 101.785156 96.90625 101.972656 96.878906 102.15625 96.90625 Z M 102.15625 96.90625 " fill-opacity="1" fill-rule="nonzero"/><path fill="#09122d" d="M 114.824219 100.996094 C 114.613281 100.996094 114.449219 100.832031 114.449219 100.636719 C 114.449219 100.53125 114.375 98.203125 112.421875 97.644531 C 110.46875 97.089844 109.535156 98.308594 109.492188 98.351562 C 109.371094 98.515625 109.128906 98.546875 108.964844 98.425781 C 108.800781 98.308594 108.769531 98.066406 108.890625 97.902344 C 108.933594 97.824219 110.152344 96.21875 112.617188 96.910156 C 114.597656 97.464844 115.171875 99.570312 115.183594 100.605469 C 115.199219 100.816406 115.035156 100.996094 114.824219 100.996094 Z M 114.824219 100.996094 " fill-opacity="1" fill-rule="nonzero"/><path fill="#09122d" d="M 105.480469 97.210938 C 105.480469 97.210938 105.464844 97.210938 105.464844 97.210938 C 105.253906 97.195312 105.105469 97.03125 105.105469 96.820312 C 105.105469 96.757812 105.132812 95.226562 103.269531 94.445312 C 101.40625 93.648438 99.890625 95.421875 99.816406 95.496094 C 99.679688 95.664062 99.441406 95.679688 99.289062 95.542969 C 99.125 95.40625 99.109375 95.167969 99.246094 95.015625 C 99.90625 94.21875 101.664062 92.945312 103.554688 93.753906 C 105.914062 94.761719 105.855469 96.773438 105.855469 96.863281 C 105.839844 97.058594 105.675781 97.210938 105.480469 97.210938 Z M 105.480469 97.210938 " fill-opacity="1" fill-rule="nonzero"/><path fill="#09122d" d="M 105.210938 109.320312 C 105.027344 109.320312 104.878906 109.199219 104.847656 109.019531 C 104.804688 108.808594 104.9375 108.613281 105.148438 108.566406 C 105.871094 108.417969 106.367188 108.085938 106.652344 107.546875 C 107.417969 106.089844 106.394531 103.65625 106.394531 103.625 C 106.320312 103.429688 106.410156 103.21875 106.589844 103.128906 C 106.785156 103.054688 106.996094 103.128906 107.085938 103.324219 C 107.132812 103.445312 108.257812 106.105469 107.328125 107.875 C 106.9375 108.613281 106.261719 109.09375 105.3125 109.289062 C 105.269531 109.320312 105.238281 109.320312 105.210938 109.320312 Z M 105.210938 109.320312 " fill-opacity="1" fill-rule="nonzero"/><path fill="#09122d" d="M 102.355469 110.101562 C 105.898438 111.03125 105.945312 111.617188 104.277344 112.863281 C 102.59375 114.109375 99.84375 112.757812 99.351562 110.429688 C 98.855469 108.101562 101.632812 109.90625 102.355469 110.101562 Z M 102.355469 110.101562 " fill-opacity="1" fill-rule="nonzero"/><path fill="#546dcd" d="M 124.679688 22.230469 L 85.753906 22.230469 C 84.085938 22.230469 82.71875 23.582031 82.71875 25.265625 L 82.71875 52.878906 C 82.71875 54.542969 84.070312 55.910156 85.753906 55.910156 L 117.617188 55.910156 L 127.714844 66.007812 L 127.714844 25.25 C 127.699219 23.582031 126.347656 22.230469 124.679688 22.230469 Z M 124.679688 22.230469 " fill-opacity="1" fill-rule="nonzero"/><path fill="#ffffff" d="M 116.28125 37.011719 L 108.484375 37.011719 L 108.484375 29.214844 L 101.949219 29.214844 L 101.949219 37.011719 L 94.152344 37.011719 L 94.152344 43.546875 L 101.949219 43.546875 L 101.949219 51.34375 L 108.484375 51.34375 L 108.484375 43.546875 L 116.28125 43.546875 Z M 116.28125 37.011719 " fill-opacity="1" fill-rule="nonzero"/></svg>